<svg xmlns="http://www.w3.org/2000/svg" viewBox="0 0 1000.03318 999.99994"><defs><style>.a{fill:#edf2f7;}.b{fill:none;stroke:#edf2f7;stroke-linecap:round;stroke-miterlimit:10;stroke-width:40px;}</style></defs><title>about</title><path class="a" d="M350.04855,206.84825a40.67144,40.67144,0,0,1,37.557,25.09767l119.07559,287.476.00022.00018a17.304,17.304,0,0,0,16.35232,11.09119c9.08185,0,18.14411-6.58429,18.14447-17.9524l.00159-46.70959a47.8125,47.8125,0,1,1,95.625-.001s-9.80676,129.42038-.0044,170.43759c9.80219,41.01685,80.52222,194.39765-189.29458,306.15943,0,0-42.36835,17.55267-95.97214,17.55267-62.85879,0-141.1617-24.15479-184.62227-129.07788-48.677-117.51654-58.29947-140.75061-58.297-140.74744.00122.00159,2.36028,5.69562,3.50885,8.4679l.00917.02215-.00917-.02215L43.10437,532.02551a40.64058,40.64058,0,1,1,75.094-31.105l62.74581,151.49a17.99782,17.99782,0,0,0,33.25039-13.7876l-106.20179-256.403a40.64067,40.64067,0,1,1,75.09419-31.105l99.32021,239.78656a17.99806,17.99806,0,0,0,33.2514-13.78638l-124.968-301.70559a40.64059,40.64059,0,1,1,75.094-31.105L383.86975,529.3913a17.99805,17.99805,0,0,0,33.2518-13.7854l-104.61-252.555a40.66663,40.66663,0,0,1,37.537-56.20268m.00162-39.99994H350.05a80.81349,80.81349,0,0,0-66.19425,34.55875,80.66829,80.66829,0,0,0-131.81108,84.87111q-3.23973-.26083-6.51506-.26105a80.66633,80.66633,0,0,0-74.492,111.51l15.96515,38.54468q-3.16261-.24852-6.35995-.2489A80.65053,80.65053,0,0,0,6.14937,547.33313L71.64684,705.44928c.04214.10419.08449.20764.12753.31165l.391.94439,1.75679,4.24219,8.6326,20.84283,47.4014,114.43915c23.108,55.78742,57.37561,97.21662,101.8508,123.13684,34.87822,20.327,75.16,30.63361,119.72661,30.63361,60.86179,0,109.25159-19.7572,111.2818-20.59845,61.945-25.65839,112.02161-55.74017,148.83661-89.40857,32.97357-30.15521,56.16382-63.8634,68.92676-100.188,10.15985-28.9162,13.77081-59.75159,10.7326-91.64941-2.46179-25.846-8.72778-47.25263-12.87415-61.41779-1.1286-3.85583-2.19482-7.4978-2.73242-9.74719-5.75018-24.06122-2.88519-106.94879.98578-158.12042l.114-1.50641.00018-1.5134a87.80534,87.80534,0,0,0-165.75916-40.41739l-86.48483-208.7942A80.6712,80.6712,0,0,0,350.05,166.84831Z" transform="translate(0.03318)"/><path class="b" d="M631.64516,20C824.03623,20,980,175.96377,980,368.35484" transform="translate(0.03318)"/><path class="b" d="M631.64516,136.11828c128.26071,0,232.23656,103.97585,232.23656,232.23656" transform="translate(0.03318)"/><path class="b" d="M631.64516,252.23656A116.11827,116.11827,0,0,1,747.76344,368.35484" transform="translate(0.03318)"/></svg>