<svg xmlns="http://www.w3.org/2000/svg" viewBox="0 0 1000.033 1000"><defs><style>.b{fill:none;stroke:#edf2f7;stroke-linecap:round;stroke-miterlimit:10;stroke-width:40px}</style></defs><path d="M350.049 206.848a40.671 40.671 0 0 1 37.557 25.098L506.68 519.422a17.304 17.304 0 0 0 16.353 11.091c9.082 0 18.144-6.584 18.144-17.952l.002-46.71a47.813 47.813 0 1 1 95.625 0s-9.807 129.42-.005 170.437c9.803 41.017 80.523 194.398-189.294 306.16 0 0-42.369 17.552-95.972 17.552-62.86 0-141.162-24.155-184.623-129.078-48.677-117.516-58.3-140.75-58.297-140.747.002.001 2.36 5.695 3.51 8.468l.008.022-.009-.022-69.019-166.617a40.64 40.64 0 1 1 75.094-31.105l62.746 151.49a17.998 17.998 0 0 0 33.25-13.788L107.994 382.22a40.64 40.64 0 1 1 75.094-31.105l99.32 239.786a17.998 17.998 0 0 0 33.252-13.786L190.69 275.41a40.64 40.64 0 1 1 75.094-31.105L383.87 529.39a17.998 17.998 0 0 0 33.252-13.785L312.512 263.05a40.667 40.667 0 0 1 37.537-56.203m.001-40a80.813 80.813 0 0 0-66.194 34.559 80.668 80.668 0 0 0-131.811 84.871q-3.24-.26-6.515-.26a80.666 80.666 0 0 0-74.492 111.51l15.965 38.544q-3.163-.249-6.36-.25A80.65 80.65 0 0 0 6.149 547.334L71.647 705.45l.127.312.391.944 1.757 4.243 8.633 20.842 47.401 114.44c23.108 55.787 57.376 97.216 101.851 123.136 34.878 20.327 75.16 30.634 119.727 30.634 60.861 0 109.251-19.757 111.281-20.599 61.945-25.658 112.022-55.74 148.837-89.408 32.974-30.155 56.164-63.863 68.927-100.188 10.16-28.916 13.77-59.752 10.732-91.65-2.461-25.845-8.727-47.252-12.874-61.417-1.128-3.856-2.195-7.498-2.732-9.747-5.75-24.062-2.885-106.95.986-158.12l.114-1.507v-1.514a87.805 87.805 0 0 0-165.76-40.417l-86.484-208.794a80.671 80.671 0 0 0-74.511-49.79Z" style="fill:#edf2f7" transform="translate(.033)"/><path d="M631.678 20c192.391 0 348.355 155.964 348.355 348.355" class="b"/><path d="M631.678 136.118c128.261 0 232.237 103.976 232.237 232.237M631.678 252.237a116.118 116.118 0 0 1 116.119 116.118" class="b"/></svg>