<svg xmlns="http://www.w3.org/2000/svg" xml:space="preserve" style="enable-background:new 0 0 1000 1000" viewBox="0 0 1000 1000"><style>.st1{fill:none;stroke:#376480;stroke-width:40;stroke-linecap:round;stroke-miterlimit:10}</style><path id="Layer_2" d="M350.05 206.85c5.38 0 10.67 1.08 15.56 3.1 9.61 3.98 17.7 11.63 22 22l119.08 287.48c3.16 7.62 9.76 11.09 16.35 11.09 9.08 0 18.14-6.58 18.14-17.95v-46.71c0-26.41 21.4-47.81 47.81-47.81 13.21 0 25.16 5.35 33.81 14 8.65 8.66 14.01 20.61 14.01 33.81 0 0-9.81 129.42 0 170.44 9.8 41.02 80.52 194.4-189.29 306.16 0 0-42.37 17.55-95.97 17.55-62.86 0-141.16-24.15-184.62-129.08-48.68-117.52-58.3-140.75-58.3-140.75s2.36 5.7 3.51 8.47l.01.02c0-.01-.01-.02-.01-.02L43.1 532.03c-8.59-20.74 1.26-44.51 21.99-53.1a40.504 40.504 0 0 1 15.54-3.11c5.38 0 10.67 1.08 15.56 3.1 9.61 3.98 17.7 11.63 22 22l62.75 151.49c2.87 6.92 9.57 11.1 16.63 11.1a18 18 0 0 0 6.88-1.37c9.18-3.8 13.54-14.33 9.74-23.52l-106.2-256.4c-8.59-20.74 1.26-44.51 21.99-53.1a40.504 40.504 0 0 1 15.54-3.11c5.38 0 10.67 1.08 15.56 3.1 9.61 3.98 17.7 11.63 22 22L282.4 590.9c2.87 6.92 9.57 11.1 16.63 11.1 2.29 0 4.63-.44 6.88-1.38 9.18-3.8 13.54-14.33 9.74-23.51l-124.96-301.7c-8.59-20.74 1.26-44.51 21.99-53.1a40.504 40.504 0 0 1 15.54-3.11c5.38 0 10.67 1.08 15.56 3.1 9.61 3.98 17.7 11.63 22 22l118.09 285.09c2.87 6.93 9.57 11.11 16.63 11.11 2.3 0 4.63-.44 6.88-1.38 9.18-3.8 13.54-14.33 9.74-23.52L312.51 263.05c-8.59-20.74 1.26-44.51 21.99-53.1a40.69 40.69 0 0 1 15.55-3.1m0-40c-10.62 0-21 2.07-30.85 6.15-14.48 6-26.62 15.83-35.34 28.41-7.09-6.74-15.44-12.19-24.75-16.05-9.87-4.08-20.25-6.15-30.88-6.15-10.62 0-21 2.07-30.85 6.15-19.9 8.24-35.4 23.74-43.64 43.64-7.64 18.43-8.2 38.59-1.69 57.28a83 83 0 0 0-6.52-.26c-10.62 0-21 2.07-30.85 6.15-41.08 17.02-60.66 64.28-43.64 105.36L87 436.07c-2.11-.17-4.23-.25-6.36-.25-10.62 0-21 2.07-30.85 6.15-19.9 8.24-35.4 23.74-43.64 43.64-8.24 19.9-8.24 41.82 0 61.72l65.5 158.12c.04.1.08.21.13.31l.39.94 1.76 4.24 8.63 20.84 47.4 114.44c23.11 55.79 57.38 97.22 101.85 123.14 34.88 20.33 75.16 30.63 119.73 30.63 60.86 0 109.25-19.76 111.28-20.6 61.95-25.66 112.02-55.74 148.84-89.41 32.97-30.16 56.16-63.86 68.93-100.19 10.16-28.92 13.77-59.75 10.73-91.65-2.46-25.85-8.73-47.25-12.87-61.42-1.13-3.86-2.19-7.5-2.73-9.75-5.75-24.06-2.89-106.95.99-158.12l.11-1.51v-1.51c0-23.45-9.13-45.5-25.71-62.09-16.61-16.6-38.66-25.72-62.11-25.72-33.85 0-63.29 19.26-77.94 47.4l-86.48-208.79c-8.24-19.89-23.73-35.39-43.63-43.64-9.89-4.08-20.27-6.14-30.9-6.14z" style="fill:#376480"/><g id="Layer_3"><path d="M631.65 20C824.04 20 980 175.96 980 368.35" class="st1"/><path d="M631.65 136.12c128.26 0 232.24 103.98 232.24 232.24M631.65 252.24c64.13 0 116.12 51.99 116.12 116.12" class="st1"/></g></svg>