<svg xmlns="http://www.w3.org/2000/svg" xml:space="preserve" style="enable-background:new 0 0 1000 1000" viewBox="0 0 1000 1000"><style>.st0{fill:#376480}</style><path id="Layer_3" d="M960 40v460c0 62.12-12.16 122.36-36.13 179.04-23.17 54.77-56.34 103.97-98.6 146.23-42.26 42.26-91.46 75.43-146.23 98.6C622.36 947.84 562.12 960 500 960s-122.36-12.16-179.04-36.13c-54.77-23.17-103.97-56.34-146.23-98.6-42.26-42.26-75.43-91.46-98.6-146.23C52.16 622.36 40 562.12 40 500s12.16-122.36 36.13-179.04c23.17-54.77 56.34-103.97 98.6-146.23s91.46-75.43 146.23-98.6C377.64 52.16 437.88 40 500 40h460m40-40H500C223.86 0 0 223.86 0 500s223.86 500 500 500 500-223.86 500-500V0z" class="st0"/><path id="Layer_3_copy" d="M960 40v420c0 56.72-11.1 111.72-32.99 163.47-21.15 50.01-51.44 94.93-90.03 133.51-38.59 38.58-83.51 68.87-133.51 90.03C651.72 868.9 596.72 880 540 880s-111.72-11.1-163.47-32.99c-50.01-21.15-94.93-51.44-133.51-90.03-38.59-38.59-68.87-83.51-90.03-133.51C131.1 571.72 120 516.72 120 460s11.1-111.72 32.99-163.47c21.15-50.01 51.44-94.93 90.03-133.51s83.51-68.87 133.51-90.03C428.28 51.1 483.28 40 540 40h420m40-40H540C285.95 0 80 205.95 80 460s205.95 460 460 460 460-205.95 460-460V0z" class="st0"/><path id="Layer_2" d="m451.24 204.81-74.56 510.38H540s163.32 0 163.32-127.6S540 460 540 460s163.32 0 163.32-127.6S540 204.81 540 204.81h-88.76z" style="fill:none;stroke:#376480;stroke-width:40;stroke-linecap:round;stroke-linejoin:round;stroke-miterlimit:10"/></svg>