<svg xmlns="http://www.w3.org/2000/svg" viewBox="0 0 1000 1000"><defs><style>.a{fill:#edf2f7;}.b{fill:none;stroke:#edf2f7;stroke-linecap:round;stroke-linejoin:round;stroke-width:40px;}</style></defs><title>branding</title><path class="a" d="M960,40V500A460.1319,460.1319,0,0,1,76.13261,679.04041,459.85308,459.85308,0,0,1,500,40H960m40-40H500C223.8576,0,0,223.8576,0,500s223.8576,500,500,500,500-223.8576,500-500V0Z"/><path class="a" d="M960,40V460A420.25464,420.25464,0,1,1,540,40H960m40-40H540C285.94894,0,80,205.949,80,460S285.94894,920,540,920s460-205.949,460-460V0Z"/><path class="b" d="M451.23773,204.80847,376.67742,715.19153H540s163.32258,0,163.32258-127.59576S540,460,540,460s163.32258,0,163.32258-127.59577S540,204.80847,540,204.80847Z"/></svg>