<svg id="Layer_1" data-name="Layer 1" xmlns="http://www.w3.org/2000/svg" viewBox="0 0 512 512"><defs><style>.cls-1,.cls-3{fill:#17bebb;}.cls-1{stroke:#17bebb;stroke-linecap:round;stroke-linejoin:round;stroke-width:11px;}.cls-2{fill:#fbfffe;}</style></defs><title>Artboard 1</title><path class="cls-1" d="M435.58,341.32c-11.76,22.86-59.56,30.43-86.34,31l-3.25.08q-12.24.27-46.33-4.7-61.44-9.86-73.18-9.59l-1.25,0q7.92-25.41,14.91-59.31Q246.62,265.5,251,181.94l16.25-21.86q48.13-59.06,47.46-89a25.74,25.74,0,0,0-1.19-8.22q-8.37-16.55-21.6-16.25l-3.25.07q-12.73.29-30.78,19.94-7.78,9.68-15.05,30.57-7.22,23.4-12.43,91-20.08,18.19-37.84,28.34-24.24,11.3-26.36,16.84l0,.49.51.49q32.78-8.73,62.95-33.65L226,248.71q-8.82,73.92-17.27,109.08l-9,.2q-30.48.69-42,11.45-20.42,14.44-20.05,30.68l.1,4.25.63,5.73q7,20.08,24.93,19.68,30.21-.69,54.53-52.71,8.73-.19,35.59,4.94a299.66,299.66,0,0,0,81.94,9.73c30-.68,99.88-11.21,104.72-38.76ZM250.32,141.25A365.54,365.54,0,0,1,258,88.3q10.25-33.06,21.47-33.66l4.24-.23q10.69,3.44,11.4,16.66l.17,3.24q1.64,30.68-45.45,95.23l-.75,0,0-.5ZM176.66,415.83l-6.24.33q-9.94-3.46-10.67-17.19l.67-6.29q3.24-14.18,24.19-15.29l2-.11a150.89,150.89,0,0,1,20-.07l.5,0Q192.38,415,176.66,415.83Z"/><path class="cls-2" d="M248.06,439A158.11,158.11,0,0,0,306.24,428h.08A158.17,158.17,0,0,1,248.06,439Zm-.18,0a160,160,0,0,1-36.3-4.19h0A160,160,0,0,0,247.88,439Z"/><path class="cls-3" d="M306.24,411.93a15.94,15.94,0,0,0-5.86,1.13,143.21,143.21,0,0,1-85.11,6.16,16.19,16.19,0,0,0-3.71-.43,15.86,15.86,0,0,0-13.8,8l-.16.28a15.85,15.85,0,0,0,10.13,23.31,175.86,175.86,0,0,0,104.88-7.66c14.47-5.75,12.93-26.66-2.24-30.2l-.59-.14a15.77,15.77,0,0,0-3.54-.41Z"/><path class="cls-2" d="M401.25,322.43A159.12,159.12,0,0,0,407,280.09a159,159,0,0,1-5.73,42.33ZM407,280a158.57,158.57,0,0,0-72.74-133.49l.07,0A158.57,158.57,0,0,1,407,280Z"/><path class="cls-3" d="M334.31,130.44a15.84,15.84,0,0,0-9.62,3.25l-.38.29a15.86,15.86,0,0,0,1.17,25.91,142.93,142.93,0,0,1,60.26,158.57A15.76,15.76,0,0,0,405.06,338l.43-.11A15.65,15.65,0,0,0,416.61,327,175.21,175.21,0,0,0,343,133a15.91,15.91,0,0,0-8.66-2.56Z"/><path class="cls-3" d="M218.58,129.35a16,16,0,0,0-20.41-17.15A175.07,175.07,0,0,0,99,371.75a15.88,15.88,0,0,0,20.93,5.73l.29-.15a15.88,15.88,0,0,0,6-22.43A142.1,142.1,0,0,1,105,280c0-64.7,43.19-119.49,102.26-137.08a16,16,0,0,0,11.32-13.57Z"/></svg>