<?xml version="1.0" encoding="utf-8"?>
<!-- Generator: Adobe Illustrator 23.0.1, SVG Export Plug-In . SVG Version: 6.00 Build 0)  -->
<svg version="1.1" xmlns="http://www.w3.org/2000/svg" xmlns:xlink="http://www.w3.org/1999/xlink" x="0px" y="0px"
	 viewBox="0 0 1000 1000" style="enable-background:new 0 0 1000 1000;" xml:space="preserve">
<style type="text/css">
	.st0{fill:#376480;}
	.st1{fill:none;stroke:#376480;stroke-width:40;stroke-linecap:round;stroke-linejoin:round;stroke-miterlimit:10;}
</style>
<g id="Layer_3">
	<g>
		<path class="st0" d="M960,40v460c0,62.12-12.16,122.36-36.13,179.04c-23.17,54.77-56.34,103.97-98.6,146.23
			c-42.26,42.26-91.46,75.43-146.23,98.6C622.36,947.84,562.12,960,500,960s-122.36-12.16-179.04-36.13
			c-54.77-23.17-103.97-56.34-146.23-98.6c-42.26-42.26-75.43-91.46-98.6-146.23C52.16,622.36,40,562.12,40,500
			s12.16-122.36,36.13-179.04c23.17-54.77,56.34-103.97,98.6-146.23s91.46-75.43,146.23-98.6C377.64,52.16,437.88,40,500,40H960
			 M1000,0c0,0-361.93,0-500,0C223.86,0,0,223.86,0,500s223.86,500,500,500s500-223.86,500-500C1000,361.93,1000,0,1000,0L1000,0z"
			/>
	</g>
</g>
<g id="Layer_3_copy">
	<g>
		<path class="st0" d="M960,40v420c0,56.72-11.1,111.72-32.99,163.47c-21.15,50.01-51.44,94.93-90.03,133.51
			c-38.59,38.58-83.51,68.87-133.51,90.03C651.72,868.9,596.72,880,540,880s-111.72-11.1-163.47-32.99
			c-50.01-21.15-94.93-51.44-133.51-90.03c-38.59-38.59-68.87-83.51-90.03-133.51C131.1,571.72,120,516.72,120,460
			s11.1-111.72,32.99-163.47c21.15-50.01,51.44-94.93,90.03-133.51s83.51-68.87,133.51-90.03C428.28,51.1,483.28,40,540,40H960
			 M1000,0c0,0-332.97,0-460,0C285.95,0,80,205.95,80,460s205.95,460,460,460s460-205.95,460-460C1000,332.97,1000,0,1000,0L1000,0z
			"/>
	</g>
</g>
<g id="Layer_2">
	<path class="st1" d="M451.24,204.81l-74.56,510.38H540c0,0,163.32,0,163.32-127.6S540,460,540,460s163.32,0,163.32-127.6
		S540,204.81,540,204.81H451.24z"/>
</g>
</svg>
