<svg xmlns="http://www.w3.org/2000/svg" viewBox="0 0 1000 1000"><defs><style>.a{fill:#edf2f7}</style></defs><path d="M960 40v460A460.132 460.132 0 0 1 76.133 679.04 459.853 459.853 0 0 1 500 40h460m40-40H500C223.858 0 0 223.858 0 500s223.858 500 500 500 500-223.858 500-500V0Z" class="a"/><path d="M960 40v420A420.255 420.255 0 1 1 540 40h420m40-40H540C285.949 0 80 205.949 80 460s205.949 460 460 460 460-205.949 460-460V0Z" class="a"/><path d="m451.238 204.808-74.56 510.384H540s163.323 0 163.323-127.596S540 460 540 460s163.323 0 163.323-127.596S540 204.808 540 204.808Z" style="fill:none;stroke:#edf2f7;stroke-linecap:round;stroke-linejoin:round;stroke-width:40px"/></svg>