<svg id="Layer_1" data-name="Layer 1" xmlns="http://www.w3.org/2000/svg" xmlns:xlink="http://www.w3.org/1999/xlink" viewBox="0 0 2500 1844"><defs><style>.cls-1{fill:none;}.cls-2{clip-path:url(#clip-path);}.cls-3{fill:#fbfffe;}</style><clipPath id="clip-path"><rect class="cls-1" y="0.11" width="2500" height="1843.83"/></clipPath></defs><title>Artboard 1</title><g class="cls-2"><path class="cls-3" d="M2500,880.87v82.3c-.78,4.47-1.77,8.85-2.28,13.3-4.26,35.8-7,71.83-12.91,107.36-19.21,115.5-60.76,222.84-122.48,322.1Q2221.71,1632,1982.59,1750a888.1,888.1,0,0,1-292.92,86.44c-22.63,2.62-45.25,5-67.88,7.45H743.52c-4.43-.82-8.83-2.14-13.29-2.4-88.56-5.58-173.77-25.77-255-61.3Q210,1664.15,80.31,1404.86A738.4,738.4,0,0,1,7.37,1162Q3.64,1131.22,0,1100.42v-79.86c.84-4.42,2.14-8.85,2.41-13.29C7,930.54,22.74,856,50.45,784.43q111.89-289,389.39-428.07c95.86-48,198-73.23,304.91-78.82,52.33-2.72,104.61.2,156.63,7.18,4.71.63,11.5-1.46,14.77-4.82q112.2-114.6,256-185.49c93.15-45.62,191.17-75,294.36-86.79,24.28-2.78,48.62-5.06,72.94-7.57h74.88c4.9.76,9.82,1.62,14.71,2.2,37.1,4.32,74.41,7,111.15,13.19C1854.84,34.67,1961.56,75.83,2060.33,137Q2287.49,277.57,2406,517.35a886,886,0,0,1,86.52,293.13c2.68,23.47,5,46.95,7.45,70.39M1102.16,348.3c1.5,2,1.87,2.9,2.51,3.21a999.59,999.59,0,0,1,146.89,88.82c2.93,2.12,10.17,1.24,13.71-1,127.32-80.68,265.35-108.52,413.62-82.23,145.29,25.76,263.52,98.36,353.85,214.3C2135,702.64,2174,851,2145.78,1016.09c-18.93,110.64-63.25,209.9-138.58,293.05-137.45,151.58-309.57,214.28-512.18,187.74-124.73-16.34-232.41-70.15-321.52-160.21C1059.12,1221.14,944,1106.36,829.28,991.14,814,975.79,797,963.44,775,960.74c-38.46-4.71-73.35,14.49-90,49-14.81,30.84-12.9,65.61,19.24,97.22,127.88,125.53,254.63,252.22,382.37,377.88a616,616,0,0,0,70.14,59.69c93.31,67.76,198.52,105.23,312.45,120.31,89.42,11.81,178.15,9.28,266.19-10.51,167.94-37.72,307.06-123.44,416.63-255.7q135.7-164,164.26-375.91A736.83,736.83,0,0,0,2309.44,781c-25.41-130.24-80.51-246.79-168.8-346-168.46-189.15-380.39-273.6-632.59-254.75-97,7.24-188.79,35.74-275.15,81a725.82,725.82,0,0,0-130.74,87.08m-61.71,1320.49q-5.21-4.83-10.37-9.69c-52.28-49.36-104.85-98.42-156.52-148.42-10-9.67-19.2-14.38-33.35-14-52.33,1.28-104.7,1.5-156.26-10.14-256.38-58-405.25-336.73-310.76-582C447.72,711.09,654,593.32,857.49,629.63c91.19,16.28,171.23,54.88,236.93,122.64,80.13,82.71,162.64,163.06,243.63,244.94,18.43,18.64,39.6,27.14,65.14,23.49,33-4.71,59.28-20.43,71.21-52.79,11.69-31.86,6-62-18.08-86.44-85-86.12-168-174.39-256.42-256.84-171.53-160-373.79-207.55-597.49-139.52-300.89,91.42-477,402.12-408.23,708.7,62.65,279.34,307,475.39,592.82,475.64q119.71.12,239.46,0c4,0,7.9-.35,14-.66"/></g></svg>