<svg xmlns="http://www.w3.org/2000/svg" viewBox="0 0 668.358 1000"><defs><style>.a{fill:none;stroke:#edf2f7;stroke-miterlimit:10;stroke-width:40px}</style></defs><path d="m378.697 399.356 236.55 165.584a77.63 77.63 0 0 1 0 127.194l-236.55 165.584a77.63 77.63 0 0 1-89.036 0L53.112 692.134a77.63 77.63 0 0 1 0-127.194l236.55-165.584" class="a"/><path d="M20 628.537V756.45a42.17 42.17 0 0 0 16.37 33.356l253.291 176.161a77.63 77.63 0 0 0 89.036 0l253.419-177.814a42.17 42.17 0 0 0 16.242-33.257V628.537M381.535 218.99v362.191a47.356 47.356 0 0 1-47.356 47.356 47.356 47.356 0 0 1-47.356-47.356V218.988" class="a"/><circle cx="334.179" cy="125.12" r="105.12" class="a"/><ellipse cx="164.67" cy="628.537" class="a" rx="61.161" ry="51.583"/><path d="m378.697 399.356 236.55 165.584a77.63 77.63 0 0 1 0 127.194l-236.55 165.584a77.63 77.63 0 0 1-89.036 0L53.112 692.134a77.63 77.63 0 0 1 0-127.194l236.55-165.584" class="a"/><path d="M20 628.537V756.45a42.17 42.17 0 0 0 16.37 33.356l253.291 176.161a77.63 77.63 0 0 0 89.036 0l253.419-177.814a42.17 42.17 0 0 0 16.242-33.257V628.537M381.535 218.99v362.191a47.356 47.356 0 0 1-47.356 47.356 47.356 47.356 0 0 1-47.356-47.356V218.988" class="a"/><circle cx="334.179" cy="125.12" r="105.12" class="a"/><ellipse cx="164.67" cy="628.537" class="a" rx="61.161" ry="51.583"/></svg>