<svg xmlns="http://www.w3.org/2000/svg" xml:space="preserve" id="Layer_1" x="0" y="0" style="enable-background:new 0 0 1000 1000" version="1.1" viewBox="0 0 1000 1000"><style>.st0,.st1{fill:none;stroke:#edf2f7;stroke-width:40;stroke-miterlimit:10}.st1{stroke:#376480}</style><path d="m544.52 399.36 236.55 165.58c22.07 15.45 33.11 39.52 33.11 63.6 0 24.07-11.04 48.14-33.11 63.6L544.52 857.72c-26.73 18.71-62.31 18.71-89.04 0L218.93 692.13c-22.07-15.45-33.11-39.52-33.11-63.6 0-24.07 11.04-48.14 33.11-63.6l236.55-165.58" class="st0"/><path d="M185.82 628.54v127.91c0 13.05 6.04 25.37 16.37 33.36l253.29 176.16c26.73 18.71 62.31 18.71 89.04 0l253.42-177.81a42.165 42.165 0 0 0 16.24-33.26V628.54" class="st0"/><path d="M547.36 218.99v362.19c0 26.15-21.2 47.36-47.36 47.36-26.15 0-47.36-21.2-47.36-47.36V218.99" class="st0"/><circle cx="500" cy="125.12" r="105.12" class="st0"/><ellipse cx="330.49" cy="628.54" class="st0" rx="61.16" ry="51.58"/><path d="m544.52 399.36 236.55 165.58c22.07 15.45 33.11 39.52 33.11 63.6 0 24.07-11.04 48.14-33.11 63.6L544.52 857.72c-26.73 18.71-62.31 18.71-89.04 0L218.93 692.13c-22.07-15.45-33.11-39.52-33.11-63.6 0-24.07 11.04-48.14 33.11-63.6l236.55-165.58" class="st1"/><path d="M185.82 628.54v127.91c0 13.05 6.04 25.37 16.37 33.36l253.29 176.16c26.73 18.71 62.31 18.71 89.04 0l253.42-177.81a42.165 42.165 0 0 0 16.24-33.26V628.54" class="st1"/><path d="M547.36 218.99v362.19c0 26.15-21.2 47.36-47.36 47.36-26.15 0-47.36-21.2-47.36-47.36V218.99" class="st1"/><circle cx="500" cy="125.12" r="105.12" class="st1"/><ellipse cx="330.49" cy="628.54" class="st1" rx="61.16" ry="51.58"/></svg>