<svg xmlns="http://www.w3.org/2000/svg" viewBox="0 0 668.35821 1000"><defs><style>.a{fill:none;stroke:#edf2f7;stroke-miterlimit:10;stroke-width:40px;}</style></defs><title>games</title><path class="a" d="M544.51786,399.3557,781.067,564.94013a77.62995,77.62995,0,0,1,0,127.19387L544.51786,857.71837a77.63,77.63,0,0,1-89.03571,0L218.933,692.134a77.62995,77.62995,0,0,1,0-127.19387L455.48215,399.3557" transform="translate(-165.8209 0)"/><path class="a" d="M185.82091,628.53706V756.44957a42.16959,42.16959,0,0,0,16.37,33.35649L455.48216,965.967a77.63,77.63,0,0,0,89.03571,0l253.4187-177.81389a42.16959,42.16959,0,0,0,16.24253-33.25751V628.53706" transform="translate(-165.8209 0)"/><path class="a" d="M547.35577,218.99V581.18132A47.35572,47.35572,0,0,1,500.00005,628.537H500a47.35572,47.35572,0,0,1-47.35572-47.35572V218.98813" transform="translate(-165.8209 0)"/><circle class="a" cx="334.1791" cy="125.11981" r="105.11981"/><ellipse class="a" cx="164.66951" cy="628.53706" rx="61.16129" ry="51.5834"/><path class="a" d="M544.51786,399.3557,781.067,564.94013a77.62995,77.62995,0,0,1,0,127.19387L544.51786,857.71837a77.63,77.63,0,0,1-89.03571,0L218.933,692.134a77.62995,77.62995,0,0,1,0-127.19387L455.48215,399.3557" transform="translate(-165.8209 0)"/><path class="a" d="M185.82091,628.53706V756.44957a42.16959,42.16959,0,0,0,16.37,33.35649L455.48216,965.967a77.63,77.63,0,0,0,89.03571,0l253.4187-177.81389a42.16959,42.16959,0,0,0,16.24253-33.25751V628.53706" transform="translate(-165.8209 0)"/><path class="a" d="M547.35577,218.99V581.18132A47.35572,47.35572,0,0,1,500.00005,628.537H500a47.35572,47.35572,0,0,1-47.35572-47.35572V218.98813" transform="translate(-165.8209 0)"/><circle class="a" cx="334.1791" cy="125.11981" r="105.11981"/><ellipse class="a" cx="164.66951" cy="628.53706" rx="61.16129" ry="51.5834"/></svg>