<?xml version="1.0" encoding="utf-8"?>
<!-- Generator: Adobe Illustrator 23.0.1, SVG Export Plug-In . SVG Version: 6.00 Build 0)  -->
<svg version="1.1" id="Layer_1" xmlns="http://www.w3.org/2000/svg" xmlns:xlink="http://www.w3.org/1999/xlink" x="0px" y="0px"
	 viewBox="0 0 1000 1000" style="enable-background:new 0 0 1000 1000;" xml:space="preserve">
<style type="text/css">
	.st0{fill:none;stroke:#EDF2F7;stroke-width:40;stroke-miterlimit:10;}
	.st1{fill:none;stroke:#376480;stroke-width:40;stroke-miterlimit:10;}
</style>
<g id="Layer_1">
	<g>
		<path class="st0" d="M544.52,399.36l236.55,165.58c22.07,15.45,33.11,39.52,33.11,63.6c0,24.07-11.04,48.14-33.11,63.6
			L544.52,857.72c-26.73,18.71-62.31,18.71-89.04,0L218.93,692.13c-22.07-15.45-33.11-39.52-33.11-63.6
			c0-24.07,11.04-48.14,33.11-63.6l236.55-165.58"/>
		<path class="st0" d="M185.82,628.54l0,127.91c0,13.05,6.04,25.37,16.37,33.36l253.29,176.16c26.73,18.71,62.31,18.71,89.04,0
			l253.42-177.81c10.25-7.99,16.24-20.26,16.24-33.26V628.54"/>
		<path class="st0" d="M547.36,218.99v362.19c0,26.15-21.2,47.36-47.36,47.36h0c-26.15,0-47.36-21.2-47.36-47.36V218.99"/>
		<circle class="st0" cx="500" cy="125.12" r="105.12"/>
		<ellipse class="st0" cx="330.49" cy="628.54" rx="61.16" ry="51.58"/>
	</g>
	<g>
		<path class="st1" d="M544.52,399.36l236.55,165.58c22.07,15.45,33.11,39.52,33.11,63.6c0,24.07-11.04,48.14-33.11,63.6
			L544.52,857.72c-26.73,18.71-62.31,18.71-89.04,0L218.93,692.13c-22.07-15.45-33.11-39.52-33.11-63.6
			c0-24.07,11.04-48.14,33.11-63.6l236.55-165.58"/>
		<path class="st1" d="M185.82,628.54l0,127.91c0,13.05,6.04,25.37,16.37,33.36l253.29,176.16c26.73,18.71,62.31,18.71,89.04,0
			l253.42-177.81c10.25-7.99,16.24-20.26,16.24-33.26V628.54"/>
		<path class="st1" d="M547.36,218.99v362.19c0,26.15-21.2,47.36-47.36,47.36h0c-26.15,0-47.36-21.2-47.36-47.36V218.99"/>
		<circle class="st1" cx="500" cy="125.12" r="105.12"/>
		<ellipse class="st1" cx="330.49" cy="628.54" rx="61.16" ry="51.58"/>
	</g>
</g>
</svg>
