<svg xmlns="http://www.w3.org/2000/svg" xml:space="preserve" id="Layer_2" x="0" y="0" style="enable-background:new 0 0 500 370.95" version="1.1" viewBox="0 0 500 370.95"><style>.st0{fill:none;stroke:#edf2f7;stroke-width:20;stroke-linecap:round;stroke-linejoin:round;stroke-miterlimit:10}</style><path d="M57.12 218.7H41.75C24.29 218.7 10 200.27 10 177.74V50.96C10 28.43 24.29 10 41.75 10H82.6c17.46 0 31.75 18.43 31.75 40.96L88.87 177.74c-5.58 23.11-14.29 40.96-31.75 40.96zM442.88 218.7h15.37c17.46 0 31.75-18.43 31.75-40.96V50.96C490 28.43 475.71 10 458.25 10H417.4c-17.46 0-31.75 18.43-31.75 40.96l25.48 126.78c5.58 23.11 14.29 40.96 31.75 40.96z" class="st0"/><path d="M386.36 54.46s-72.52-12.82-109.62-12.28-95.34 61.41-81.53 92.1c12.37 27.47 41.56 11.32 50.84 4.31 12.82-9.69 23.82-28.54 36.64-19.93 12.82 8.62 78.51 91.27 94.76 123.1M377.44 241.76c8.21 17.63-9.8 46.29-41.73 23.74-16.82-11.88-62.29-70.55-62.29-70.55M356.81 279.42c8.21 17.63-17.03 54.81-46.09 33.47-16.6-12.19-75.85-77.82-75.85-77.82" class="st0"/><path d="M301.77 305.62c8.21 17.63-4.92 50.64-43.67 24.87-17.15-11.4-58.19-56.05-58.19-56.05" class="st0"/><path d="M269.32 339.97s-25.63 26.26-48.28 20.02c-12.35-3.4-45.26-26.73-87.85-87.17-31.1-44.14-47.13-84.9-47.13-84.9M114.35 50.96h129.34M416.41 194.95l-52.29 23.75" class="st0"/></svg>