<svg xmlns="http://www.w3.org/2000/svg" xml:space="preserve" id="Layer_2" x="0" y="0" style="enable-background:new 0 0 500 373.64" version="1.1" viewBox="0 0 500 373.64"><style>.st0{fill:none;stroke:#f54838;stroke-width:30;stroke-linecap:round;stroke-linejoin:round;stroke-miterlimit:10}</style><path d="M61.14 219.35H46.09c-17.1 0-31.09-18.05-31.09-40.1V55.1C15 33.05 28.99 15 46.09 15h40c17.1 0 31.09 18.05 31.09 40.1L92.22 179.24c-5.46 22.63-13.99 40.11-31.08 40.11zM438.86 219.35h15.05c17.1 0 31.09-18.05 31.09-40.1V55.1c0-22.06-13.99-40.1-31.09-40.1h-40c-17.1 0-31.09 18.05-31.09 40.1l24.95 124.14c5.47 22.63 14 40.11 31.09 40.11z" class="st0"/><path d="M383.52 58.54s-71.01-12.55-107.34-12.03c-36.33.53-93.36 60.13-79.83 90.18 12.11 26.89 40.7 11.09 49.78 4.22 12.56-9.49 23.32-27.95 35.88-19.51s76.87 89.36 92.78 120.54" class="st0"/><path d="M374.79 241.93c8.04 17.26-9.6 45.33-40.86 23.24-16.47-11.63-60.99-69.08-60.99-69.08M354.58 278.8c8.04 17.26-16.68 53.67-45.13 32.77-16.25-11.94-74.27-76.2-74.27-76.2" class="st0"/><path d="M300.69 304.46c8.04 17.26-4.82 49.58-42.76 24.35-16.79-11.17-56.98-54.88-56.98-54.88" class="st0"/><path d="M268.92 338.1s-25.1 25.71-47.27 19.6c-12.09-3.33-44.32-26.17-86.02-85.35-30.45-43.22-46.15-83.14-46.15-83.14M117.17 55.1h126.65M412.94 196.09l-51.19 23.26" class="st0"/></svg>