<?xml version="1.0" encoding="utf-8"?>
<!-- Generator: Adobe Illustrator 23.0.1, SVG Export Plug-In . SVG Version: 6.00 Build 0)  -->
<svg version="1.1" id="Layer_2" xmlns="http://www.w3.org/2000/svg" xmlns:xlink="http://www.w3.org/1999/xlink" x="0px" y="0px"
	 viewBox="0 0 500 370.95" style="enable-background:new 0 0 500 370.95;" xml:space="preserve">
<style type="text/css">
	.st0{fill:none;stroke:#EDF2F7;stroke-width:20;stroke-linecap:round;stroke-linejoin:round;stroke-miterlimit:10;}
</style>
<path class="st0" d="M57.12,218.7H41.75C24.29,218.7,10,200.27,10,177.74V50.96C10,28.43,24.29,10,41.75,10H82.6
	c17.46,0,31.75,18.43,31.75,40.96L88.87,177.74C83.29,200.85,74.58,218.7,57.12,218.7z"/>
<path class="st0" d="M442.88,218.7h15.37c17.46,0,31.75-18.43,31.75-40.96V50.96C490,28.43,475.71,10,458.25,10H417.4
	c-17.46,0-31.75,18.43-31.75,40.96l25.48,126.78C416.71,200.85,425.42,218.7,442.88,218.7z"/>
<path class="st0" d="M386.36,54.46c0,0-72.52-12.82-109.62-12.28s-95.34,61.41-81.53,92.1c12.37,27.47,41.56,11.32,50.84,4.31
	c12.82-9.69,23.82-28.54,36.64-19.93c12.82,8.62,78.51,91.27,94.76,123.1"/>
<path class="st0" d="M377.44,241.76c8.21,17.63-9.8,46.29-41.73,23.74c-16.82-11.88-62.29-70.55-62.29-70.55"/>
<path class="st0" d="M356.81,279.42c8.21,17.63-17.03,54.81-46.09,33.47c-16.6-12.19-75.85-77.82-75.85-77.82"/>
<path class="st0" d="M301.77,305.62c8.21,17.63-4.92,50.64-43.67,24.87c-17.15-11.4-58.19-56.05-58.19-56.05"/>
<path class="st0" d="M269.32,339.97c0,0-25.63,26.26-48.28,20.02c-12.35-3.4-45.26-26.73-87.85-87.17
	c-31.1-44.14-47.13-84.9-47.13-84.9"/>
<line class="st0" x1="114.35" y1="50.96" x2="243.69" y2="50.96"/>
<line class="st0" x1="416.41" y1="194.95" x2="364.12" y2="218.7"/>
</svg>
