<?xml version="1.0" encoding="utf-8"?>
<!-- Generator: Adobe Illustrator 23.0.1, SVG Export Plug-In . SVG Version: 6.00 Build 0)  -->
<svg version="1.1" id="Layer_2" xmlns="http://www.w3.org/2000/svg" xmlns:xlink="http://www.w3.org/1999/xlink" x="0px" y="0px"
	 viewBox="0 0 500 373.64" style="enable-background:new 0 0 500 373.64;" xml:space="preserve">
<style type="text/css">
	.st0{fill:none;stroke:#F54838;stroke-width:30;stroke-linecap:round;stroke-linejoin:round;stroke-miterlimit:10;}
</style>
<path class="st0" d="M61.14,219.35H46.09c-17.1,0-31.09-18.05-31.09-40.1V55.1C15,33.05,28.99,15,46.09,15h40
	c17.1,0,31.09,18.05,31.09,40.1L92.22,179.24C86.76,201.87,78.23,219.35,61.14,219.35z"/>
<path class="st0" d="M438.86,219.35h15.05c17.1,0,31.09-18.05,31.09-40.1V55.1c0-22.06-13.99-40.1-31.09-40.1h-40
	c-17.1,0-31.09,18.05-31.09,40.1l24.95,124.14C413.24,201.87,421.77,219.35,438.86,219.35z"/>
<path class="st0" d="M383.52,58.54c0,0-71.01-12.55-107.34-12.03c-36.33,0.53-93.36,60.13-79.83,90.18
	c12.11,26.89,40.7,11.09,49.78,4.22c12.56-9.49,23.32-27.95,35.88-19.51s76.87,89.36,92.78,120.54"/>
<path class="st0" d="M374.79,241.93c8.04,17.26-9.6,45.33-40.86,23.24c-16.47-11.63-60.99-69.08-60.99-69.08"/>
<path class="st0" d="M354.58,278.8c8.04,17.26-16.68,53.67-45.13,32.77c-16.25-11.94-74.27-76.2-74.27-76.2"/>
<path class="st0" d="M300.69,304.46c8.04,17.26-4.82,49.58-42.76,24.35c-16.79-11.17-56.98-54.88-56.98-54.88"/>
<path class="st0" d="M268.92,338.1c0,0-25.1,25.71-47.27,19.6c-12.09-3.33-44.32-26.17-86.02-85.35
	c-30.45-43.22-46.15-83.14-46.15-83.14"/>
<line class="st0" x1="117.17" y1="55.1" x2="243.82" y2="55.1"/>
<line class="st0" x1="412.94" y1="196.09" x2="361.75" y2="219.35"/>
</svg>
