<svg xmlns="http://www.w3.org/2000/svg" xmlns:xlink="http://www.w3.org/1999/xlink" viewBox="0 0 512 512"><defs><style>.cls-1,.cls-2,.cls-3,.cls-4,.cls-7{fill:none;}.cls-2,.cls-3,.cls-4,.cls-7{stroke:#17bebb;}.cls-2,.cls-4,.cls-7{stroke-linecap:round;}.cls-2{stroke-linejoin:round;}.cls-2,.cls-3,.cls-4{stroke-width:12px;}.cls-3,.cls-4,.cls-7{stroke-miterlimit:10;}.cls-5{clip-path:url(#clip-path);}.cls-6{fill:#17bebb;}.cls-7{stroke-width:18px;}</style><clipPath id="clip-path"><polygon class="cls-1" points="-214.43 240.43 269.24 -243.24 481 -11 25.48 480.35 -214.43 240.43"/></clipPath></defs><title>Artboard 1</title><g id="Layer_2" data-name="Layer 2"><path class="cls-2" d="M304.8,480H462c-9.37,0-9.37-29.66,0-29.66H304.8A14.83,14.83,0,0,0,290,465.17h0A14.83,14.83,0,0,0,304.8,480Z"/><path class="cls-3" d="M460.37,450.67V276H310.75a18.45,18.45,0,0,0-18.45,18.46L292.5,456"/><line class="cls-4" x1="313.72" y1="333.03" x2="436.32" y2="333.03"/><line class="cls-4" x1="313.72" y1="305.34" x2="436.32" y2="305.34"/><g class="cls-5"><rect class="cls-6" x="72.71" y="127.43" width="48.71" height="48.71"/><rect class="cls-6" x="121.43" y="78.71" width="48.71" height="48.71"/><rect class="cls-6" x="72.71" y="30" width="48.71" height="48.71"/><rect class="cls-6" x="316.29" y="30" width="48.71" height="48.71"/><rect class="cls-6" x="72.71" y="224.86" width="48.71" height="48.71"/><rect class="cls-6" x="72.71" y="176.14" width="48.71" height="48.71"/><rect class="cls-6" x="121.43" y="127.43" width="48.71" height="48.71"/><rect class="cls-6" x="170.14" y="78.71" width="48.71" height="48.71"/><rect class="cls-6" x="218.86" y="78.71" width="48.71" height="48.71"/><rect class="cls-6" x="170.14" y="127.43" width="48.71" height="48.71"/><rect class="cls-6" x="218.86" y="127.43" width="48.71" height="48.71"/><rect class="cls-6" x="267.57" y="78.71" width="48.71" height="48.71"/><rect class="cls-6" x="316.29" y="127.43" width="48.71" height="48.71"/><rect class="cls-6" x="24" y="224.86" width="48.71" height="48.71"/><rect class="cls-6" x="170.14" y="176.14" width="48.71" height="48.71"/><rect class="cls-6" x="218.86" y="176.14" width="48.71" height="48.71"/><rect class="cls-6" x="267.57" y="127.43" width="48.71" height="48.71"/><rect class="cls-6" x="316.29" y="176.14" width="48.71" height="48.71"/><rect class="cls-6" x="121.43" y="224.86" width="48.71" height="48.71"/><rect class="cls-6" x="170.14" y="224.86" width="48.71" height="48.71"/><rect class="cls-6" x="218.86" y="224.86" width="48.71" height="48.71"/><rect class="cls-6" x="267.57" y="224.86" width="48.71" height="48.71"/><rect class="cls-6" x="316.29" y="224.86" width="48.71" height="48.71"/><rect class="cls-6" x="365" y="224.86" width="48.71" height="48.71"/><rect class="cls-6" x="170.14" y="273.57" width="48.71" height="48.71"/><rect class="cls-6" x="218.86" y="273.57" width="48.71" height="48.71"/><rect class="cls-6" x="24" y="273.57" width="48.71" height="48.71"/><rect class="cls-6" x="365" y="273.57" width="48.71" height="48.71"/><rect class="cls-6" x="121.43" y="322.29" width="48.71" height="48.71"/><rect class="cls-6" x="121.43" y="273.57" width="48.71" height="48.71"/><rect class="cls-6" x="267.57" y="273.57" width="48.71" height="48.71"/><rect class="cls-6" x="267.57" y="322.29" width="48.71" height="48.71"/></g><line class="cls-7" x1="487.01" y1="37" x2="66.99" y2="486"/></g></svg>