<svg xmlns="http://www.w3.org/2000/svg" viewBox="0 0 1000 985.44387"><defs><style>.a{fill:none;stroke:#edf2f7;stroke-linecap:round;stroke-miterlimit:10;stroke-width:40px;}</style></defs><title>music</title><path class="a" d="M858.15819,398.06515C933.93791,459.834,980,541.32843,980,630.6529,980,823.592,765.09668,980,500,980S20,823.592,20,630.6529,234.90332,281.30581,500,281.30581c87.888,0,170.259,17.19132,241.11116,47.20568" transform="translate(0 -14.55613)"/><path class="a" d="M262.2016,834.74826C182.74971,785.664,132.33047,712.4438,132.33047,630.6529c0-35.11805,9.295-68.65608,26.192-99.382" transform="translate(0 -14.55613)"/><path class="a" d="M862.67418,586.43851a198.14691,198.14691,0,0,1,4.99535,44.21439C867.66953,778.44,703.05828,898.24516,500,898.24516q-21.94415,0-43.24244-1.83123" transform="translate(0 -14.55613)"/><path class="a" d="M662.21411,390.44586" transform="translate(0 -14.55613)"/><path class="a" d="M640.51873,383.29914" transform="translate(0 -14.55613)"/><path class="a" d="M378.12723,378.11182a500.73365,500.73365,0,0,1,246.386.68325" transform="translate(0 -14.55613)"/><path class="a" d="M620.26508,690.29462C594.06471,718.22579,549.97428,736.56048,500,736.56048c-80.36634,0-145.51613-47.41644-145.51613-105.90758S419.63366,524.74533,500,524.74533a197.934,197.934,0,0,1,35.33244,3.14353" transform="translate(0 -14.55613)"/><line class="a" x1="500" y1="616.09677" x2="500" y2="617.09677"/><path class="a" d="M799.89208,529.26785V43.879a9.30606,9.30606,0,0,1,16.06532-6.39312C948.815,178.18724,901.99892,237.71216,901.99892,237.71216" transform="translate(0 -14.55613)"/><circle class="a" cx="701.1238" cy="514.71172" r="98.76828"/></svg>