<svg xmlns="http://www.w3.org/2000/svg" viewBox="0 0 1000 985.444"><defs><style>.a{fill:none;stroke:#edf2f7;stroke-linecap:round;stroke-miterlimit:10;stroke-width:40px}</style></defs><path d="M858.158 383.509C933.938 445.278 980 526.772 980 616.097c0 192.939-214.903 349.347-480 349.347S20 809.036 20 616.097 234.903 266.75 500 266.75c87.888 0 170.259 17.191 241.111 47.205" class="a"/><path d="M262.202 820.192C182.75 771.108 132.33 697.888 132.33 616.097c0-35.118 9.295-68.656 26.192-99.382M862.674 571.882a198.147 198.147 0 0 1 4.996 44.215c0 147.787-164.612 267.592-367.67 267.592q-21.944 0-43.242-1.831M378.127 363.556a500.734 500.734 0 0 1 246.386.683M620.265 675.738c-26.2 27.932-70.29 46.266-120.265 46.266-80.366 0-145.516-47.416-145.516-105.907S419.634 510.189 500 510.189a197.934 197.934 0 0 1 35.332 3.144M500 616.097v1M799.892 514.712V29.322a9.306 9.306 0 0 1 16.065-6.392C948.815 163.63 902 223.156 902 223.156" class="a"/><circle cx="701.124" cy="514.712" r="98.768" class="a"/></svg>