<svg xmlns="http://www.w3.org/2000/svg" xml:space="preserve" style="enable-background:new 0 0 1000 1000" viewBox="0 0 1000 1000"><style>.st0{fill:none;stroke:#376480;stroke-width:40;stroke-linecap:round;stroke-miterlimit:10}</style><g id="Layer_2"><path d="M858.16 398.07C933.94 459.83 980 541.33 980 630.65 980 823.59 765.1 980 500 980S20 823.59 20 630.65 234.9 281.3 500 281.3c87.89 0 170.26 17.19 241.11 47.21" class="st0"/><path d="M262.2 834.75c-79.45-49.08-129.87-122.3-129.87-204.1 0-35.12 9.29-68.66 26.19-99.38M862.67 586.44c3.29 14.38 5 29.15 5 44.21 0 147.79-164.61 267.59-367.67 267.59-14.63 0-29.06-.62-43.24-1.83M378.13 378.11c38.14-9.75 79.16-15.05 121.87-15.05 43.7 0 85.63 5.55 124.51 15.73M620.27 690.29c-26.2 27.93-70.29 46.27-120.27 46.27-80.37 0-145.52-47.42-145.52-105.91s65.15-105.9 145.52-105.9c12.19 0 24.02 1.09 35.33 3.14M500 630.65v1" class="st0"/></g><g id="Layer_1"><path d="M799.89 529.27V43.88c0-8.41 10.29-12.51 16.07-6.39C948.82 178.19 902 237.71 902 237.71" class="st0"/><circle cx="701.12" cy="529.27" r="98.77" class="st0"/></g></svg>