<?xml version="1.0" encoding="utf-8"?>
<!-- Generator: Adobe Illustrator 23.0.1, SVG Export Plug-In . SVG Version: 6.00 Build 0)  -->
<svg version="1.1" id="Layer_1" xmlns="http://www.w3.org/2000/svg" xmlns:xlink="http://www.w3.org/1999/xlink" x="0px" y="0px"
	 viewBox="0 0 500 500" style="enable-background:new 0 0 500 500;" xml:space="preserve">
<style type="text/css">
	.st0{fill:#EDF2F7;}
</style>
<g>
	<path class="st0" d="M68.91,119.6c4.8,0,9.73,1.22,14.38,3.91L259.21,225c19.25,11.11,19.25,38.9,0,50.01L83.29,376.49
		c-4.65,2.68-9.58,3.91-14.38,3.91C53.83,380.4,40,368.34,40,351.49V148.51C40,131.66,53.83,119.6,68.91,119.6 M68.91,79.6
		C68.91,79.6,68.91,79.6,68.91,79.6C68.91,79.6,68.91,79.6,68.91,79.6c-38,0-68.91,30.92-68.91,68.91v202.98
		c0,38,30.91,68.91,68.91,68.91c11.99,0,23.87-3.2,34.37-9.26L279.2,309.65c10.87-6.27,19.8-15.33,25.82-26.19
		c5.64-10.18,8.63-21.75,8.63-33.46c0-11.71-2.98-23.28-8.63-33.46c-6.02-10.86-14.95-19.92-25.82-26.19L103.28,88.86
		C92.78,82.8,80.9,79.6,68.91,79.6L68.91,79.6L68.91,79.6z"/>
</g>
<g>
	<path class="st0" d="M431.7,119.6c15.56,0,28.3,12.73,28.3,28.3v204.2c0,15.56-12.73,28.3-28.3,28.3h-7.89
		c-15.56,0-28.3-12.73-28.3-28.3V147.9c0-15.56,12.73-28.3,28.3-28.3H431.7 M431.7,79.6h-7.89c-37.66,0-68.3,30.64-68.3,68.3v204.2
		c0,37.66,30.64,68.3,68.3,68.3h7.89c37.66,0,68.3-30.64,68.3-68.3V147.9C500,110.24,469.36,79.6,431.7,79.6L431.7,79.6z"/>
</g>
</svg>
