<svg xmlns="http://www.w3.org/2000/svg" xml:space="preserve" id="Layer_1" x="0" y="0" style="enable-background:new 0 0 500 500" version="1.1" viewBox="0 0 500 500"><style>.st0{fill:#edf2f7}</style><path d="M68.91 119.6c4.8 0 9.73 1.22 14.38 3.91L259.21 225c19.25 11.11 19.25 38.9 0 50.01L83.29 376.49c-4.65 2.68-9.58 3.91-14.38 3.91-15.08 0-28.91-12.06-28.91-28.91V148.51c0-16.85 13.83-28.91 28.91-28.91m0-40C30.91 79.6 0 110.52 0 148.51v202.98c0 38 30.91 68.91 68.91 68.91 11.99 0 23.87-3.2 34.37-9.26L279.2 309.65c10.87-6.27 19.8-15.33 25.82-26.19 5.64-10.18 8.63-21.75 8.63-33.46s-2.98-23.28-8.63-33.46c-6.02-10.86-14.95-19.92-25.82-26.19L103.28 88.86C92.78 82.8 80.9 79.6 68.91 79.6zM431.7 119.6c15.56 0 28.3 12.73 28.3 28.3v204.2c0 15.56-12.73 28.3-28.3 28.3h-7.89c-15.56 0-28.3-12.73-28.3-28.3V147.9c0-15.56 12.73-28.3 28.3-28.3h7.89m0-40h-7.89c-37.66 0-68.3 30.64-68.3 68.3v204.2c0 37.66 30.64 68.3 68.3 68.3h7.89c37.66 0 68.3-30.64 68.3-68.3V147.9c0-37.66-30.64-68.3-68.3-68.3z" class="st0"/></svg>