<svg xmlns="http://www.w3.org/2000/svg" xml:space="preserve" id="Layer_1" x="0" y="0" style="enable-background:new 0 0 500 500" version="1.1" viewBox="0 0 500 500"><style>.st0{fill:#f54838}</style><path d="M350 40c22 0 40 18 40 40v340c0 22-18 40-40 40s-40-18-40-40V80c0-22 18-40 40-40m0-40c-44.11 0-80 35.89-80 80v340c0 44.11 35.89 80 80 80s80-35.89 80-80V80c0-44.11-35.89-80-80-80zM150 40c22 0 40 18 40 40v340c0 22-18 40-40 40s-40-18-40-40V80c0-22 18-40 40-40m0-40c-44.11 0-80 35.89-80 80v340c0 44.11 35.89 80 80 80s80-35.89 80-80V80c0-44.11-35.89-80-80-80z" class="st0"/></svg>