<?xml version="1.0" encoding="utf-8"?>
<!-- Generator: Adobe Illustrator 23.0.1, SVG Export Plug-In . SVG Version: 6.00 Build 0)  -->
<svg version="1.1" id="Layer_1" xmlns="http://www.w3.org/2000/svg" xmlns:xlink="http://www.w3.org/1999/xlink" x="0px" y="0px"
	 viewBox="0 0 500 500" style="enable-background:new 0 0 500 500;" xml:space="preserve">
<style type="text/css">
	.st0{fill:#EDF2F7;}
</style>
<g>
	<path class="st0" d="M350,40c22,0,40,18,40,40v340c0,22-18,40-40,40s-40-18-40-40V80C310,58,328,40,350,40 M350,0
		c-44.11,0-80,35.89-80,80v340c0,44.11,35.89,80,80,80s80-35.89,80-80V80C430,35.89,394.11,0,350,0L350,0z"/>
</g>
<g>
	<path class="st0" d="M150,40c22,0,40,18,40,40v340c0,22-18,40-40,40s-40-18-40-40V80C110,58,128,40,150,40 M150,0
		c-44.11,0-80,35.89-80,80v340c0,44.11,35.89,80,80,80s80-35.89,80-80V80C230,35.89,194.11,0,150,0L150,0z"/>
</g>
</svg>
