<?xml version="1.0" encoding="utf-8"?>
<!-- Generator: Adobe Illustrator 23.0.1, SVG Export Plug-In . SVG Version: 6.00 Build 0)  -->
<svg version="1.1" id="Layer_1" xmlns="http://www.w3.org/2000/svg" xmlns:xlink="http://www.w3.org/1999/xlink" x="0px" y="0px"
	 viewBox="0 0 500 500" style="enable-background:new 0 0 500 500;" xml:space="preserve">
<style type="text/css">
	.st0{fill:#F54838;}
</style>
<g>
	<path class="st0" d="M108.42,40c7.74,0,15.67,1.97,23.16,6.29l283.31,163.45c31.01,17.89,31.01,62.64,0,80.53L131.58,453.71
		c-7.49,4.32-15.42,6.29-23.16,6.29c-24.28,0-46.56-19.42-46.56-46.55V86.55C61.86,59.42,84.14,40,108.42,40 M108.42,0v40V0
		c0,0-0.01,0-0.01,0C85.98,0,64.65,8.61,48.36,24.23c-17.09,16.38-26.5,38.51-26.5,62.33v326.89c0,23.82,9.41,45.95,26.49,62.33
		C64.65,491.4,85.98,500,108.42,500c15.03,0,29.95-4.03,43.15-11.64l283.31-163.45c13.67-7.89,24.89-19.25,32.44-32.87
		c7.09-12.78,10.83-27.32,10.83-42.05s-3.75-29.27-10.83-42.05c-7.55-13.61-18.76-24.98-32.44-32.87L151.57,11.64
		C138.36,4.03,123.45,0,108.42,0L108.42,0z"/>
</g>
</svg>
