<svg xmlns="http://www.w3.org/2000/svg" xml:space="preserve" id="Layer_1" x="0" y="0" style="enable-background:new 0 0 500 500" version="1.1" viewBox="0 0 500 500"><style>.st0{fill:#edf2f7}</style><path d="M431.09 119.6c15.08 0 28.91 12.06 28.91 28.91v202.98c0 16.85-13.83 28.91-28.91 28.91-4.8 0-9.73-1.22-14.38-3.91L240.79 275c-19.25-11.11-19.25-38.9 0-50.01L416.71 123.5c4.65-2.68 9.58-3.9 14.38-3.9m0-40c-11.99 0-23.87 3.2-34.37 9.26L220.8 190.35c-10.87 6.27-19.8 15.33-25.82 26.19-5.64 10.18-8.63 21.75-8.63 33.46s2.98 23.28 8.63 33.46c6.02 10.86 14.95 19.92 25.82 26.19l175.92 101.49c10.5 6.06 22.38 9.26 34.37 9.26 38 0 68.91-30.91 68.91-68.91V148.51c0-38-30.91-68.91-68.91-68.91zM76.19 119.6c15.56 0 28.3 12.73 28.3 28.3v204.2c0 15.56-12.73 28.3-28.3 28.3H68.3c-15.56 0-28.3-12.73-28.3-28.3V147.9c0-15.56 12.73-28.3 28.3-28.3h7.89m0-40H68.3C30.64 79.6 0 110.24 0 147.9v204.2c0 37.66 30.64 68.3 68.3 68.3h7.89c37.66 0 68.3-30.64 68.3-68.3V147.9c-.01-37.66-30.64-68.3-68.3-68.3z" class="st0"/></svg>