<?xml version="1.0" encoding="utf-8"?>
<!-- Generator: Adobe Illustrator 23.0.1, SVG Export Plug-In . SVG Version: 6.00 Build 0)  -->
<svg version="1.1" id="Layer_1" xmlns="http://www.w3.org/2000/svg" xmlns:xlink="http://www.w3.org/1999/xlink" x="0px" y="0px"
	 viewBox="0 0 500 500" style="enable-background:new 0 0 500 500;" xml:space="preserve">
<style type="text/css">
	.st0{fill:#EDF2F7;}
</style>
<g>
	<path class="st0" d="M431.09,119.6c15.08,0,28.91,12.06,28.91,28.91v202.98c0,16.85-13.83,28.91-28.91,28.91
		c-4.8,0-9.73-1.22-14.38-3.91L240.79,275c-19.25-11.11-19.25-38.9,0-50.01l175.92-101.49C421.36,120.82,426.29,119.6,431.09,119.6
		 M431.09,79.6c-11.99,0-23.87,3.2-34.37,9.26L220.8,190.35c-10.87,6.27-19.8,15.33-25.82,26.19c-5.64,10.18-8.63,21.75-8.63,33.46
		c0,11.71,2.98,23.28,8.63,33.46c6.02,10.86,14.95,19.92,25.82,26.19l175.92,101.49c10.5,6.06,22.38,9.26,34.37,9.26
		c38,0,68.91-30.91,68.91-68.91V148.51C500,110.51,469.09,79.6,431.09,79.6L431.09,79.6z"/>
</g>
<g>
	<path class="st0" d="M76.19,119.6c15.56,0,28.3,12.73,28.3,28.3v204.2c0,15.56-12.73,28.3-28.3,28.3H68.3
		c-15.56,0-28.3-12.73-28.3-28.3V147.9c0-15.56,12.73-28.3,28.3-28.3H76.19 M76.19,79.6H68.3C30.64,79.6,0,110.24,0,147.9v204.2
		c0,37.66,30.64,68.3,68.3,68.3h7.89c37.66,0,68.3-30.64,68.3-68.3V147.9C144.48,110.24,113.85,79.6,76.19,79.6L76.19,79.6z"/>
</g>
</svg>
