<svg xmlns="http://www.w3.org/2000/svg" viewBox="0 0 1000 998.749"><defs><style>.a{fill:none;stroke:#edf2f7;stroke-linecap:round;stroke-linejoin:round;stroke-width:40px}</style></defs><path d="M584.107 340.826C356.109 267.656 91.56 195.876 91.56 334.64v278.2c-44.41-11.04-71.56-12.85-71.56 1.45v-380.42c0-163.981 369.432-33.942 611.414 44.961M734.198 310.922c62.517 17.898 102.682 24.334 102.682 6.937v102.22c-37.73-9.384-87.914-25.435-144.48-43.934" class="a"/><path d="M535.333 404.745C343.876 349.86 163.12 320.708 163.12 435.41v278.2c-44.41-11.04-71.56-12.85-71.56 1.45v-380.42c0-138.765 264.548-66.983 492.546 6.188M692.398 376.146C815.54 416.42 908.44 445.088 908.44 418.63v102.22c-61.425-15.28-155.858-48.227-257.096-80.641" class="a"/><path d="M651.344 440.209C825.772 496.059 980 553.489 980 519.4v380.42c0 243.84-816.88-162.446-816.88-83.994v-380.42c0-114.702 180.756-85.548 372.212-30.661" class="a"/><path d="M887.44 58.609a46.197 46.197 0 0 1-8.51 26.47l-317.7 495.76a173.353 173.353 0 0 0-18.71-14.96c-39.42-22.79-56.35-16.8-107.23-24.56l-1.05-.12a43.78 43.78 0 0 1 5.99-11.82l373.74-489.79c13.81-19.71 39.54-25.52 57.48-12.95 10.49 7.34 15.99 19.34 15.99 31.97Z" class="a"/><path d="M542.52 565.883c194.624 136.277-324.912 236.873-284.598 187.89 76.868-93.396 56.679-227.029 177.371-212.457 50.873 7.758 67.81 1.773 107.226 24.567Z" class="a"/></svg>