<svg id="Layer_1" data-name="Layer 1" xmlns="http://www.w3.org/2000/svg" viewBox="0 0 337.71 398"><defs><style>.cls-1,.cls-4{fill:none;stroke-linecap:round;}.cls-1,.cls-3,.cls-4{stroke:#17bebb;stroke-miterlimit:10;}.cls-1{stroke-width:50px;}.cls-2,.cls-3{fill:#17bebb;}.cls-3,.cls-4{fill-rule:evenodd;}.cls-4{stroke-width:20px;}</style></defs><title>print</title><line class="cls-1" x1="25" y1="26.78" x2="163.45" y2="203.8"/><line class="cls-2" x1="25" y1="26.78" x2="163.45" y2="203.8"/><path class="cls-3" d="M267.36,297.79c28.59-34.51,51.63-.07,47.28,29.08-3,20.31,5.37,50.39,38.95,56.59C292.6,392,233.24,339.49,267.36,297.79Z" transform="translate(-74.62 -57)"/><path class="cls-2" d="M297,77c16,0,39.19,13,59,33.15C376,130.54,389,154.82,389,172v.26L392.33,428a7.06,7.06,0,0,1-7.05,7H193.72a7.05,7.05,0,0,1-7.05-7.05V84.05a7.05,7.05,0,0,1,7.05-7H297m0-20H193.72a27,27,0,0,0-27.05,27.05V428A27,27,0,0,0,193.72,455H385.28A27,27,0,0,0,412.33,428L409,172c0-49-66-115-112-115Z" transform="translate(-74.62 -57)"/><path class="cls-4" d="M307,75l-10,46.78A50.23,50.23,0,0,0,347.22,172L390,162" transform="translate(-74.62 -57)"/></svg>