<svg xmlns="http://www.w3.org/2000/svg" xml:space="preserve" style="enable-background:new 0 0 1000 1000" viewBox="0 0 1000 1000"><style>.st0{fill:none;stroke:#376480;stroke-width:40;stroke-linecap:round;stroke-linejoin:round;stroke-miterlimit:10}</style><g id="Layer_1"><path d="M584.11 342.08c-228-73.17-492.55-144.95-492.55-6.19v278.2C47.15 603.05 20 601.24 20 615.54V235.12c0-163.98 369.43-33.94 611.41 44.96M734.2 312.17c62.52 17.9 102.68 24.33 102.68 6.94v102.22c-37.73-9.38-87.91-25.43-144.48-43.93" class="st0"/><path d="M535.33 406c-191.46-54.88-372.21-84.04-372.21 30.66v278.2c-44.41-11.04-71.56-12.85-71.56 1.45V335.89c0-138.76 264.55-66.98 492.55 6.19M692.4 377.4c123.14 40.27 216.04 68.94 216.04 42.48V522.1c-61.43-15.28-155.86-48.23-257.1-80.64" class="st0"/><path d="M651.34 441.46C825.77 497.31 980 554.74 980 520.65v380.42c0 243.84-816.88-162.45-816.88-83.99V436.66c0-114.7 180.76-85.55 372.21-30.66" class="st0"/></g><g id="Layer_2"><path d="M887.44 59.86c0 8.98-2.77 18.28-8.51 26.47l-317.7 495.76c-5.3-4.94-11.52-9.92-18.71-14.96-39.42-22.79-56.35-16.8-107.23-24.56l-1.05-.12c1.23-3.86 3.18-7.81 5.99-11.82L813.97 40.84c13.81-19.71 39.54-25.52 57.48-12.95 10.49 7.34 15.99 19.34 15.99 31.97z" class="st0"/><path d="M542.52 567.13C737.14 703.41 217.61 804 257.92 755.02c76.87-93.4 56.68-227.03 177.37-212.46 50.88 7.77 67.81 1.78 107.23 24.57z" class="st0"/></g></svg>