<svg xmlns="http://www.w3.org/2000/svg" viewBox="0 0 1000 998.74878"><defs><style>.a{fill:none;stroke:#edf2f7;stroke-linecap:round;stroke-linejoin:round;stroke-width:40px;}</style></defs><title>print</title><path class="a" d="M584.10705,342.07766C356.10931,268.90759,91.56,197.12787,91.56,335.89v278.2C47.15,603.05,20,601.24,20,615.54V235.12c0-163.98076,369.43177-33.942,611.4145,44.96148" transform="translate(0 -1.25122)"/><path class="a" d="M734.19826,312.173C796.71537,330.071,836.88,336.50766,836.88,319.11V421.33c-37.72942-9.38357-87.91415-25.43447-144.48062-43.93386" transform="translate(0 -1.25122)"/><path class="a" d="M535.33261,405.99662C343.87553,351.11167,163.12,321.95891,163.12,436.66v278.2c-44.41-11.04-71.56-12.85-71.56,1.45V335.89c0-138.76445,264.54814-66.98306,492.54638,6.18852" transform="translate(0 -1.25122)"/><path class="a" d="M692.39845,377.39747C815.54038,417.67016,908.44,446.33916,908.44,419.88V522.1c-61.4252-15.27919-155.85835-48.22668-257.09573-80.641" transform="translate(0 -1.25122)"/><path class="a" d="M651.34369,441.45989C825.77176,497.30957,980,554.74048,980,520.65192V901.07256c0,243.84-816.87948-162.44632-816.87948-83.994V436.65792c0-114.70211,180.7552-85.54735,372.21147-30.66116" transform="translate(0 -1.25122)"/><path class="a" d="M887.44,59.86a46.1975,46.1975,0,0,1-8.51,26.47L561.23,582.09a173.35338,173.35338,0,0,0-18.71-14.96c-39.42-22.79-56.35-16.8-107.23-24.56q-.525-.06006-1.05-.12a43.78033,43.78033,0,0,1,5.99-11.82L813.97,40.84C827.78,21.13,853.51,15.32,871.45,27.89,881.94,35.23,887.44,47.23,887.44,59.86Z" transform="translate(0 -1.25122)"/><path class="a" d="M542.51947,567.13393c194.6246,136.27775-324.91182,236.87313-284.59725,187.8904C334.79029,661.62865,314.60085,527.99561,435.293,542.5672,486.16629,550.32548,503.10345,544.34026,542.51947,567.13393Z" transform="translate(0 -1.25122)"/></svg>