<svg id="Layer_1" data-name="Layer 1" xmlns="http://www.w3.org/2000/svg" viewBox="0 0 512 512"><defs><style>.cls-1,.cls-2{fill:none;stroke:#fbfffe;stroke-miterlimit:10;stroke-width:12px;}.cls-2{stroke-linecap:round;}</style></defs><title>Artboard 1</title><path class="cls-1" d="M430.09,233.94c-9.55-27-19.22-58.7-26.26-78.82-8.25-23.6-36.69-13.71-41.25,13.49-6.89,41.11,28.95,121.63,14,127.3C356.22,303.61,308.5,113,278.39,71a19.13,19.13,0,0,0-18.1-8c-2.85.41-7.4,2.95-9.72,5a24.27,24.27,0,0,0-7.89,18.89c1.44,41.73,45.15,153.84,35.29,157.58-11.27,4.26-54.63-154.14-81.06-166.06-7.74-3.48-19.17.68-23.38,8.86-12.33,23.91,56.52,177.48,40.62,183.5-8.42,3.19-48.37-116.41-75-124.52-5.9-1.8-15.52-1.57-19.29,8.37C107.6,187.11,187.67,322.53,170,329.23c-15,5.67-29.89-50.7-55.84-74-7.76-7-20.28-8.13-20.92,6.85-1,22.83,22.79,77.15,34.05,106.87C181.45,512,282.34,473.46,330.15,455.7,466.23,405.15,475.8,363.12,430.09,233.94Z"/><path class="cls-1" d="M445.5,160.5c0-58.59-47-106-105-106"/><path class="cls-1" d="M461.59,125.5c0-48.09-38.55-87-86.18-87"/><path class="cls-1" d="M111.11,106.67C76.87,132.26,69.68,180.41,95,214.32"/><path class="cls-1" d="M70.63,112.56c-28.1,21-34,60.51-13.2,88.35"/><path class="cls-2" d="M379,293c-2,4-7,32-22,31"/></svg>