<?xml version="1.0" standalone="no"?>
<!DOCTYPE svg PUBLIC "-//W3C//DTD SVG 20010904//EN"
 "http://www.w3.org/TR/2001/REC-SVG-20010904/DTD/svg10.dtd">
<svg version="1.0" xmlns="http://www.w3.org/2000/svg"
 width="700.000000pt" height="700.000000pt" viewBox="0 0 700.000000 700.000000"
 preserveAspectRatio="xMidYMid meet">
<metadata>
Created by potrace 1.14, written by Peter Selinger 2001-2017
</metadata>
<g transform="translate(0.000000,700.000000) scale(0.100000,-0.100000)"
fill="#000000" stroke="none">
<path d="M3271 6655 c-5 -5 -63 -136 -131 -290 -67 -154 -124 -282 -126 -284
-2 -2 -34 21 -71 50 -278 222 -525 352 -751 395 -82 16 -234 13 -302 -6 -153
-42 -296 -162 -369 -311 -46 -94 -88 -246 -98 -354 -27 -275 13 -641 109
-1005 11 -41 26 -99 33 -128 8 -29 24 -84 36 -122 13 -38 20 -72 17 -76 -4 -3
-67 -21 -140 -39 -330 -81 -598 -174 -828 -289 -424 -212 -640 -466 -641 -756
-3 -386 384 -714 1119 -948 103 -33 208 -66 234 -73 l46 -14 -22 -45 c-12 -25
-39 -85 -60 -135 -21 -49 -49 -112 -61 -140 -13 -27 -53 -120 -89 -205 -37
-85 -77 -177 -90 -205 -20 -42 -21 -51 -9 -55 8 -3 92 -5 186 -4 95 0 175 -1
178 -2 4 -2 3 -24 -2 -49 -21 -114 -30 -399 -17 -531 50 -484 326 -744 734
-690 332 45 784 342 1230 809 l112 117 188 -188 c431 -429 797 -669 1112 -728
182 -34 318 -15 452 63 140 80 256 251 296 435 3 13 7 34 10 47 3 14 7 27 9
30 2 4 7 38 11 76 15 136 7 443 -15 559 -5 25 -6 47 -2 47 3 1 87 3 186 4 137
1 179 4 177 14 -2 11 -79 189 -134 311 -11 25 -27 61 -35 80 -8 19 -23 53 -33
75 -10 22 -30 68 -44 103 -15 34 -40 92 -56 128 -17 35 -30 68 -30 72 0 4 21
13 48 21 122 33 379 118 491 163 484 192 774 439 846 719 106 408 -250 787
-985 1047 -155 54 -500 153 -577 165 -12 2 -25 6 -29 9 -3 4 8 53 24 110 27
89 85 312 98 373 9 41 25 121 30 150 2 17 9 55 14 85 35 203 45 474 24 632
-30 227 -96 381 -214 498 -204 204 -487 224 -840 59 -114 -53 -274 -152 -385
-236 -6 -5 -43 -34 -83 -66 l-73 -58 -25 58 c-14 32 -34 76 -44 98 -10 22 -55
126 -100 230 -45 105 -87 194 -92 200 -12 14 -437 14 -447 0z m-1056 -518
c170 -58 424 -220 597 -379 l46 -43 -71 -161 c-40 -88 -83 -185 -96 -215 -12
-30 -38 -88 -56 -129 -19 -41 -79 -178 -134 -305 -56 -126 -105 -237 -109
-245 -5 -8 -31 -18 -58 -21 -27 -4 -74 -10 -104 -13 -30 -4 -62 -9 -70 -11 -8
-2 -37 -6 -65 -10 -27 -3 -62 -8 -76 -10 -19 -4 -28 0 -32 13 -93 305 -154
550 -172 699 -2 13 -6 40 -9 60 -34 222 -24 498 23 624 38 99 76 141 161 173
30 11 157 -4 225 -27z m2832 11 c106 -50 164 -209 166 -457 2 -187 -7 -271
-58 -556 -3 -16 -8 -38 -11 -47 -3 -10 -8 -30 -10 -45 -7 -39 -63 -253 -74
-283 -4 -14 -18 -58 -30 -97 l-22 -73 -36 6 c-20 3 -77 11 -127 19 -114 18
-195 28 -217 27 -21 -1 -28 8 -65 93 -160 362 -423 967 -423 973 0 10 41 48
135 123 118 94 176 135 274 193 218 129 394 173 498 124z m-1436 -1258 c36
-47 81 -107 101 -135 l36 -50 -248 0 -248 0 29 41 c26 39 171 227 204 267 18
21 11 27 126 -123z m337 -564 c24 -2 45 -6 46 -7 5 -6 48 -101 114 -254 33
-77 121 -279 196 -449 75 -171 136 -315 136 -320 0 -25 -192 -363 -342 -603
l-90 -143 -66 -2 c-179 -4 -816 -3 -882 2 -61 4 -76 9 -85 25 -6 11 -27 46
-47 77 -83 128 -241 396 -346 589 l-31 57 85 193 c47 107 91 208 99 224 7 17
32 73 55 125 23 52 52 118 64 145 13 28 49 111 81 185 32 74 64 140 71 145 6
6 72 12 145 14 74 1 135 4 136 5 5 4 614 -3 661 -8z m-1741 -88 c-20 -51 -43
-98 -48 -98 -5 0 -30 71 -30 87 0 7 27 14 75 22 4 0 6 -5 3 -11z m2654 2 c17
0 17 -3 -4 -61 l-22 -61 -27 59 c-34 75 -34 77 3 69 17 -3 40 -6 50 -6z
m-3043 -245 c38 -93 85 -206 104 -250 l35 -80 -192 -440 c-106 -241 -198 -447
-203 -456 -10 -16 -21 -14 -134 17 -544 152 -913 352 -1022 553 -55 102 -27
199 91 312 151 144 369 258 703 369 142 47 534 152 546 146 1 -1 33 -77 72
-171z m3472 165 c19 -6 47 -13 62 -15 40 -7 174 -41 238 -60 30 -9 71 -20 90
-25 64 -16 273 -92 379 -137 194 -83 333 -168 439 -268 196 -184 156 -346
-133 -540 -187 -125 -529 -264 -835 -340 -36 -9 -72 -18 -81 -21 -11 -3 -21 8
-34 38 -10 24 -34 76 -52 116 -18 41 -33 75 -33 77 0 3 -11 28 -24 57 -35 77
-60 133 -96 218 -18 41 -40 93 -50 115 -10 22 -41 93 -70 159 l-52 118 75 177
c42 97 90 213 107 259 17 45 32 82 33 82 1 0 18 -5 37 -10z m-2833 -1448 l73
-124 -54 6 c-29 4 -62 8 -72 10 -11 2 -49 7 -85 10 l-67 7 56 125 c46 102 58
122 66 107 5 -10 42 -74 83 -141z m2240 8 l42 -95 -32 -7 c-18 -4 -57 -9 -87
-12 -30 -3 -77 -8 -103 -12 l-48 -6 39 63 c21 35 58 98 82 139 42 71 44 73 54
50 6 -14 30 -68 53 -120z m-2492 -466 c27 -3 59 -7 70 -9 21 -3 87 -10 225
-25 83 -9 242 -23 268 -23 7 0 43 -43 79 -96 83 -119 271 -373 346 -466 31
-38 57 -74 57 -80 0 -11 -261 -279 -358 -367 -164 -150 -365 -298 -512 -377
-164 -87 -335 -123 -421 -87 -83 35 -143 152 -166 321 -14 107 -5 372 17 497
5 29 12 69 15 88 5 31 47 132 121 298 46 100 71 158 110 250 38 91 40 93 69
88 17 -3 52 -8 80 -12z m2692 4 c5 -7 33 -69 63 -138 29 -69 62 -143 72 -165
56 -119 147 -346 153 -383 33 -204 38 -449 11 -587 -20 -101 -69 -200 -119
-240 -37 -28 -43 -30 -130 -30 -105 0 -156 14 -292 80 -153 75 -388 244 -554
399 -140 131 -351 349 -351 363 0 5 17 29 38 55 113 140 255 330 373 501 30
44 62 81 70 82 8 1 57 5 109 9 52 4 109 9 125 11 38 5 124 14 190 21 28 2 60
7 71 9 12 3 48 7 80 11 32 3 61 7 63 10 8 7 18 4 28 -8z m-1155 -93 c-13 -23
-202 -272 -223 -294 l-22 -23 -17 22 c-38 47 -217 286 -222 295 -4 7 80 10
242 10 163 0 246 -3 242 -10z"/>
<path d="M3380 3852 c-171 -57 -286 -209 -295 -391 -14 -248 181 -456 424
-453 190 3 364 152 399 344 39 206 -73 418 -258 490 -77 29 -198 34 -270 10z"/>
</g>
</svg>
