<?xml version="1.0" standalone="no"?>
<!DOCTYPE svg PUBLIC "-//W3C//DTD SVG 20010904//EN"
 "http://www.w3.org/TR/2001/REC-SVG-20010904/DTD/svg10.dtd">
<svg version="1.0" xmlns="http://www.w3.org/2000/svg"
 width="614.000000pt" height="614.000000pt" viewBox="0 0 614.000000 614.000000"
 preserveAspectRatio="xMidYMid meet">
<metadata>
Created by potrace 1.11, written by Peter Selinger 2001-2013
</metadata>
<g transform="translate(0.000000,614.000000) scale(0.100000,-0.100000)"
fill="#000000" stroke="none">
<path d="M2909 5906 c-47 -16 -93 -50 -117 -84 -11 -15 -67 -135 -125 -267
-58 -132 -110 -252 -117 -267 l-12 -26 -103 78 c-191 145 -372 240 -538 282
-154 39 -314 12 -410 -68 -255 -214 -268 -762 -36 -1530 26 -88 51 -167 54
-176 5 -12 -3 -17 -32 -22 -109 -20 -428 -104 -568 -151 -528 -177 -830 -400
-891 -661 -15 -62 -16 -83 -6 -136 37 -203 212 -380 528 -537 135 -67 337
-144 499 -191 61 -18 113 -34 116 -36 4 -2 -51 -136 -122 -298 -115 -263 -129
-300 -129 -350 0 -68 20 -119 63 -164 58 -61 99 -75 230 -80 103 -4 117 -7
113 -21 -3 -9 -10 -79 -16 -156 -12 -154 -2 -317 27 -434 19 -82 72 -194 114
-245 80 -95 234 -156 361 -142 332 38 757 331 1216 840 l62 69 67 -74 c407
-446 764 -716 1065 -803 126 -36 192 -42 281 -22 125 28 230 112 291 233 32
64 65 205 75 321 10 109 1 363 -15 413 -4 14 10 17 108 21 88 4 122 9 153 25
89 46 134 120 135 217 0 54 -11 84 -125 344 -69 157 -125 290 -125 296 0 6 53
26 118 44 163 46 366 123 506 193 316 157 491 334 528 537 10 53 9 74 -6 136
-61 259 -368 487 -891 661 -141 47 -459 131 -568 150 -28 4 -37 10 -33 20 22
58 102 336 130 455 120 497 120 882 1 1109 -124 236 -362 293 -678 161 -104
-43 -260 -137 -384 -232 -79 -59 -108 -76 -114 -67 -4 8 -59 130 -121 272 -62
142 -125 273 -140 292 -16 18 -51 45 -80 59 -48 24 -62 26 -177 26 -77 -1
-140 -6 -162 -14z m346 -473 c59 -137 127 -288 150 -338 23 -49 45 -101 50
-114 4 -13 107 -251 230 -530 292 -664 267 -606 406 -926 67 -154 132 -302
146 -330 14 -27 44 -97 68 -155 52 -127 363 -834 399 -907 14 -29 26 -56 26
-59 0 -4 59 -140 130 -304 72 -164 130 -300 130 -304 0 -3 -61 -6 -136 -6
l-135 0 -36 77 c-19 43 -48 112 -65 153 -40 101 -81 194 -139 318 -27 57 -49
107 -49 111 0 9 -215 499 -272 621 -22 47 -50 112 -63 145 -13 33 -71 168
-130 300 -215 481 -348 782 -394 895 -53 126 -236 545 -311 710 -26 58 -78
176 -115 263 -37 86 -71 157 -75 157 -4 0 -40 -75 -80 -167 -40 -93 -98 -224
-129 -293 -32 -69 -108 -240 -169 -380 -148 -342 -419 -956 -535 -1215 -52
-115 -110 -248 -130 -295 -19 -47 -99 -226 -176 -399 -77 -172 -143 -323 -147
-335 -4 -11 -26 -61 -49 -111 -45 -97 -72 -158 -133 -305 -22 -52 -56 -130
-75 -173 l-36 -77 -136 0 c-134 0 -136 0 -130 21 4 11 58 136 120 277 62 142
125 289 140 327 16 39 34 79 41 90 6 11 96 214 199 450 102 237 204 471 227
520 22 50 96 218 164 375 68 157 138 317 155 355 266 601 478 1087 484 1106 4
13 27 65 50 114 23 50 91 201 150 338 l108 247 82 0 82 0 108 -247z m-30
-2148 c285 -136 293 -546 13 -696 -80 -42 -193 -52 -281 -24 -154 48 -259 198
-259 370 0 170 98 310 257 368 76 27 192 19 270 -18z"/>
</g>
</svg>
