<svg xmlns="http://www.w3.org/2000/svg" width="933.333" height="933.333" version="1.0" viewBox="0 0 700 700"><path d="M327.1 34.5c-.5.5-6.3 13.6-13.1 29-6.7 15.4-12.4 28.2-12.6 28.4-.2.2-3.4-2.1-7.1-5-27.8-22.2-52.5-35.2-75.1-39.5-8.2-1.6-23.4-1.3-30.2.6-15.3 4.2-29.6 16.2-36.9 31.1-4.6 9.4-8.8 24.6-9.8 35.4-2.7 27.5 1.3 64.1 10.9 100.5 1.1 4.1 2.6 9.9 3.3 12.8.8 2.9 2.4 8.4 3.6 12.2 1.3 3.8 2 7.2 1.7 7.6-.4.3-6.7 2.1-14 3.9-33 8.1-59.8 17.4-82.8 28.9C22.6 301.6 1 327 .9 356c-.3 38.6 38.4 71.4 111.9 94.8 10.3 3.3 20.8 6.6 23.4 7.3l4.6 1.4-2.2 4.5c-1.2 2.5-3.9 8.5-6 13.5-2.1 4.9-4.9 11.2-6.1 14-1.3 2.7-5.3 12-8.9 20.5-3.7 8.5-7.7 17.7-9 20.5-2 4.2-2.1 5.1-.9 5.5.8.3 9.2.5 18.6.4 9.5 0 17.5.1 17.8.2.4.2.3 2.4-.2 4.9-2.1 11.4-3 39.9-1.7 53.1 5 48.4 32.6 74.4 73.4 69 33.2-4.5 78.4-34.2 123-80.9l11.2-11.7 18.8 18.8c43.1 42.9 79.7 66.9 111.2 72.8 18.2 3.4 31.8 1.5 45.2-6.3 14-8 25.6-25.1 29.6-43.5.3-1.3.7-3.4 1-4.7.3-1.4.7-2.7.9-3 .2-.4.7-3.8 1.1-7.6 1.5-13.6.7-44.3-1.5-55.9-.5-2.5-.6-4.7-.2-4.7.3-.1 8.7-.3 18.6-.4 13.7-.1 17.9-.4 17.7-1.4-.2-1.1-7.9-18.9-13.4-31.1-1.1-2.5-2.7-6.1-3.5-8-.8-1.9-2.3-5.3-3.3-7.5s-3-6.8-4.4-10.3c-1.5-3.4-4-9.2-5.6-12.8-1.7-3.5-3-6.8-3-7.2 0-.4 2.1-1.3 4.8-2.1 12.2-3.3 37.9-11.8 49.1-16.3 48.4-19.2 77.4-43.9 84.6-71.9 10.6-40.8-25-78.7-98.5-104.7-15.5-5.4-50-15.3-57.7-16.5-1.2-.2-2.5-.6-2.9-.9-.3-.4.8-5.3 2.4-11 2.7-8.9 8.5-31.2 9.8-37.3.9-4.1 2.5-12.1 3-15 .2-1.7.9-5.5 1.4-8.5 3.5-20.3 4.5-47.4 2.4-63.2-3-22.7-9.6-38.1-21.4-49.8-20.4-20.4-48.7-22.4-84-5.9-11.4 5.3-27.4 15.2-38.5 23.6-.6.5-4.3 3.4-8.3 6.6l-7.3 5.8-2.5-5.8c-1.4-3.2-3.4-7.6-4.4-9.8-1-2.2-5.5-12.6-10-23-4.5-10.5-8.7-19.4-9.2-20-1.2-1.4-43.7-1.4-44.7 0zM221.5 86.3c17 5.8 42.4 22 59.7 37.9l4.6 4.3-7.1 16.1c-4 8.8-8.3 18.5-9.6 21.5-1.2 3-3.8 8.8-5.6 12.9-1.9 4.1-7.9 17.8-13.4 30.5-5.6 12.6-10.5 23.7-10.9 24.5-.5.8-3.1 1.8-5.8 2.1-2.7.4-7.4 1-10.4 1.3-3 .4-6.2.9-7 1.1-.8.2-3.7.6-6.5 1-2.7.3-6.2.8-7.6 1-1.9.4-2.8 0-3.2-1.3-9.3-30.5-15.4-55-17.2-69.9-.2-1.3-.6-4-.9-6-3.4-22.2-2.4-49.8 2.3-62.4 3.8-9.9 7.6-14.1 16.1-17.3 3-1.1 15.7.4 22.5 2.7zm283.2-1.1c10.6 5 16.4 20.9 16.6 45.7.2 18.7-.7 27.1-5.8 55.6-.3 1.6-.8 3.8-1.1 4.7-.3 1-.8 3-1 4.5-.7 3.9-6.3 25.3-7.4 28.3-.4 1.4-1.8 5.8-3 9.7l-2.2 7.3-3.6-.6c-2-.3-7.7-1.1-12.7-1.9-11.4-1.8-19.5-2.8-21.7-2.7-2.1.1-2.8-.8-6.5-9.3-16-36.2-42.3-96.7-42.3-97.3 0-1 4.1-4.8 13.5-12.3 11.8-9.4 17.6-13.5 27.4-19.3 21.8-12.9 39.4-17.3 49.8-12.4zM361.1 211c3.6 4.7 8.1 10.7 10.1 13.5l3.6 5h-49.6l2.9-4.1c2.6-3.9 17.1-22.7 20.4-26.7 1.8-2.1 1.1-2.7 12.6 12.3zm33.7 56.4c2.4.2 4.5.6 4.6.7.5.6 4.8 10.1 11.4 25.4 3.3 7.7 12.1 27.9 19.6 44.9 7.5 17.1 13.6 31.5 13.6 32 0 2.5-19.2 36.3-34.2 60.3l-9 14.3-6.6.2c-17.9.4-81.6.3-88.2-.2-6.1-.4-7.6-.9-8.5-2.5-.6-1.1-2.7-4.6-4.7-7.7-8.3-12.8-24.1-39.6-34.6-58.9l-3.1-5.7 8.5-19.3c4.7-10.7 9.1-20.8 9.9-22.4.7-1.7 3.2-7.3 5.5-12.5s5.2-11.8 6.4-14.5c1.3-2.8 4.9-11.1 8.1-18.5 3.2-7.4 6.4-14 7.1-14.5.6-.6 7.2-1.2 14.5-1.4 7.4-.1 13.5-.4 13.6-.5.5-.4 61.4.3 66.1.8zm-174.1 8.8c-2 5.1-4.3 9.8-4.8 9.8s-3-7.1-3-8.7c0-.7 2.7-1.4 7.5-2.2.4 0 .6.5.3 1.1zm265.4-.2c1.7 0 1.7.3-.4 6.1l-2.2 6.1-2.7-5.9c-3.4-7.5-3.4-7.7.3-6.9 1.7.3 4 .6 5 .6zm-304.3 24.5c3.8 9.3 8.5 20.6 10.4 25l3.5 8-19.2 44c-10.6 24.1-19.8 44.7-20.3 45.6-1 1.6-2.1 1.4-13.4-1.7-54.4-15.2-91.3-35.2-102.2-55.3-5.5-10.2-2.7-19.9 9.1-31.2 15.1-14.4 36.9-25.8 70.3-36.9 14.2-4.7 53.4-15.2 54.6-14.6.1.1 3.3 7.7 7.2 17.1zM529 284c1.9.6 4.7 1.3 6.2 1.5 4 .7 17.4 4.1 23.8 6 3 .9 7.1 2 9 2.5 6.4 1.6 27.3 9.2 37.9 13.7 19.4 8.3 33.3 16.8 43.9 26.8 19.6 18.4 15.6 34.6-13.3 54-18.7 12.5-52.9 26.4-83.5 34-3.6.9-7.2 1.8-8.1 2.1-1.1.3-2.1-.8-3.4-3.8-1-2.4-3.4-7.6-5.2-11.6-1.8-4.1-3.3-7.5-3.3-7.7 0-.3-1.1-2.8-2.4-5.7-3.5-7.7-6-13.3-9.6-21.8-1.8-4.1-4-9.3-5-11.5-1-2.2-4.1-9.3-7-15.9l-5.2-11.8 7.5-17.7c4.2-9.7 9-21.3 10.7-25.9 1.7-4.5 3.2-8.2 3.3-8.2.1 0 1.8.5 3.7 1zM245.7 428.8l7.3 12.4-5.4-.6c-2.9-.4-6.2-.8-7.2-1-1.1-.2-4.9-.7-8.5-1l-6.7-.7 5.6-12.5c4.6-10.2 5.8-12.2 6.6-10.7.5 1 4.2 7.4 8.3 14.1zm224-.8 4.2 9.5-3.2.7c-1.8.4-5.7.9-8.7 1.2-3 .3-7.7.8-10.3 1.2l-4.8.6 3.9-6.3c2.1-3.5 5.8-9.8 8.2-13.9 4.2-7.1 4.4-7.3 5.4-5 .6 1.4 3 6.8 5.3 12zm-249.2 46.6c2.7.3 5.9.7 7 .9 2.1.3 8.7 1 22.5 2.5 8.3.9 24.2 2.3 26.8 2.3.7 0 4.3 4.3 7.9 9.6 8.3 11.9 27.1 37.3 34.6 46.6 3.1 3.8 5.7 7.4 5.7 8 0 1.1-26.1 27.9-35.8 36.7-16.4 15-36.5 29.8-51.2 37.7-16.4 8.7-33.5 12.3-42.1 8.7-8.3-3.5-14.3-15.2-16.6-32.1-1.4-10.7-.5-37.2 1.7-49.7.5-2.9 1.2-6.9 1.5-8.8.5-3.1 4.7-13.2 12.1-29.8 4.6-10 7.1-15.8 11-25 3.8-9.1 4-9.3 6.9-8.8 1.7.3 5.2.8 8 1.2zm269.2-.4c.5.7 3.3 6.9 6.3 13.8 2.9 6.9 6.2 14.3 7.2 16.5 5.6 11.9 14.7 34.6 15.3 38.3 3.3 20.4 3.8 44.9 1.1 58.7-2 10.1-6.9 20-11.9 24-3.7 2.8-4.3 3-13 3-10.5 0-15.6-1.4-29.2-8-15.3-7.5-38.8-24.4-55.4-39.9-14-13.1-35.1-34.9-35.1-36.3 0-.5 1.7-2.9 3.8-5.5 11.3-14 25.5-33 37.3-50.1 3-4.4 6.2-8.1 7-8.2.8-.1 5.7-.5 10.9-.9s10.9-.9 12.5-1.1c3.8-.5 12.4-1.4 19-2.1 2.8-.2 6-.7 7.1-.9 1.2-.3 4.8-.7 8-1.1 3.2-.3 6.1-.7 6.3-1 .8-.7 1.8-.4 2.8.8zm-115.5 9.3c-1.3 2.3-20.2 27.2-22.3 29.4l-2.2 2.3-1.7-2.2c-3.8-4.7-21.7-28.6-22.2-29.5-.4-.7 8-1 24.2-1 16.3 0 24.6.3 24.2 1z"/><path d="M338 314.8c-17.1 5.7-28.6 20.9-29.5 39.1-1.4 24.8 18.1 45.6 42.4 45.3 19-.3 36.4-15.2 39.9-34.4 3.9-20.6-7.3-41.8-25.8-49-7.7-2.9-19.8-3.4-27-1z"/></svg>