<?xml version="1.0" encoding="utf-8"?>
<!-- Generator: Adobe Illustrator 23.0.1, SVG Export Plug-In . SVG Version: 6.00 Build 0)  -->
<svg version="1.1" id="Layer_1" xmlns="http://www.w3.org/2000/svg" xmlns:xlink="http://www.w3.org/1999/xlink" x="0px" y="0px"
	 viewBox="0 0 664 586.1" style="enable-background:new 0 0 664 586.1;" xml:space="preserve">
<style type="text/css">
	.st0{fill:#F54838;}
	.st1{fill:#EDF2F7;}
</style>
<path class="st0" d="M656,268.2c-3.5-5.4-8.2-10.7-14-15.9v0.3c-3.7-3.3-7.8-6.4-12.3-9.6v-0.4c-4.3-2.9-9-5.8-14-8.6
	c-14.1-7.8-31.1-15-50.9-21.4c-19.7-6.5-41.5-12-64.8-16.5c7.7-22.5,13.8-44.1,18.1-64.4c13.8-65.8,6.8-110.6-20-126.1
	c-14.3-8.2-33-7.4-54.9,1.9c-15.1,6.4-31.8,16.9-49.7,31.4c-0.3,0.2-0.6,0.5-0.9,0.7c-0.1,0.1-0.2,0.2-0.3,0.3
	c-4.4,3.6-8.9,7.4-13.5,11.5c-4,3.5-8,7.2-11.9,11.1c-11.6,11.1-23.2,23.4-34.8,36.8c-15.6-18-31.3-34.1-46.8-47.9
	c-43.8-39.4-81.6-56.7-108.4-50c-3.9,0.9-7.6,2.4-11,4.3c-26.8,15.5-33.8,60.3-20,126.1c4.3,20.3,10.4,41.9,18.1,64.3
	c-6.4,1.3-12.8,2.6-19,4c-11,2.5-21.6,5.2-31.7,8.2c-4.7,1.4-9.4,2.8-13.9,4.2c-4.2,1.4-8.2,2.8-12.2,4.2
	c-14.8,5.3-27.7,11.1-38.9,17.3c-5,2.8-9.7,5.7-14,8.6v0.1c-4.5,3.1-8.6,6.3-12.3,9.6v-0.1c-5.8,5.2-10.5,10.5-14,15.9
	c-5.2,8-7.9,16.4-8,24.8c0,8.5,2.7,16.9,7.9,24.9c3.4,5.2,7.8,10.2,13.2,15.1c3.2,2.9,6.7,5.7,10.6,8.5c3.6,2.6,7.6,5.2,11.9,7.7
	c9.3,5.5,20.2,10.8,32.4,15.7c7.3,2.9,15,5.7,23.2,8.4c5.5,1.8,11.1,3.6,16.9,5.2c15.1,4.3,31.1,8.1,48,11.4
	c-7.7,22.5-13.8,44.1-18.1,64.4c-13.8,65.8-6.8,110.5,20,126c6.6,3.8,14.1,5.7,22.5,5.7c8.1,0,16.9-1.8,26.4-5.2
	c20.7-7.5,44.6-23,70.5-46.3c15.4-13.8,30.9-29.8,46.5-47.6c15.7,17.8,31.2,33.9,46.7,47.7c37.7,33.8,71,51.4,96.6,51.4
	c6.3,0,12.2-1.1,17.5-3.3c1.8-0.7,3.6-1.6,5.3-2.5c26.8-15.5,33.8-60.2,20-126c-4.3-20.3-10.4-41.9-18.1-64.3
	c23.3-4.5,45-10,64.6-16.4c34.9-11.4,61.2-25,77.9-40.1c0.2-0.1,0.3-0.3,0.5-0.4c0.2-0.2,0.3-0.3,0.5-0.5c0.3-0.3,0.7-0.6,1-0.9
	c4.7-4.5,8.6-9,11.7-13.7c5.2-8,7.9-16.4,7.9-24.9C663.9,284.6,661.2,276.2,656,268.2z M653.7,293.2c0,9.6-4.6,19.1-13.4,28.3
	c-0.3,0.3-0.5,0.5-0.8,0.8c-0.2,0.2-0.4,0.4-0.6,0.6c-2.7,2.6-5.7,5.2-9,7.9c-0.7,0.5-1.4,1-2,1.5c-0.4,0.3-0.8,0.6-1.1,0.9
	c-2.5,1.8-5.2,3.6-8,5.4c-3,1.9-6.1,3.7-9.5,5.5c-0.3,0.2-0.6,0.3-1,0.5c-0.8,0.4-1.6,0.8-2.4,1.3c-0.6,0.3-1.2,0.6-1.8,0.9
	c-0.5,0.2-0.9,0.5-1.4,0.7c-4,2-8.2,3.9-12.5,5.8c-1,0.4-1.9,0.8-2.9,1.2c-0.1,0-0.2,0.1-0.3,0.1c-4.5,1.9-9.2,3.7-14.1,5.5
	c-2.5,0.9-5,1.8-7.7,2.7c-1.1,0.4-2.2,0.7-3.3,1.1h-0.1c-4.5,1.5-9.1,2.9-13.8,4.3c-16,4.7-33.2,8.8-51.3,12.2
	c-3.1-8.7-6.5-17.5-10.1-26.5c-4.3-10.8-9-21.7-14-32.6c-4-8.7-8.1-17.5-12.4-26.3c-0.3-0.6-0.6-1.3-0.9-1.9c0.3-0.7,0.6-1.3,1-1.9
	c11-22.3,20.7-44.3,29.2-65.8c2.4-6.1,4.7-12.1,6.8-18.1c0.2-0.4,0.3-0.9,0.5-1.3c23.4,4.5,45,10,64.7,16.4
	C620.1,241.5,653.7,267.4,653.7,293.2z M245.4,553.6c-1.1,0.7-2.2,1.5-3.3,2.2c-0.3,0.2-0.6,0.4-1,0.6c-0.7,0.5-1.4,0.9-2.1,1.3
	c-19.3,12.1-36.4,18.3-50.2,18.3c-6.6,0-12.5-1.4-17.6-4.3c-22.4-12.9-27.9-55-15.2-115.3c4.3-20.3,10.5-42,18.3-64.5
	c29.4,5.3,61.1,9.1,94.1,11.2c18.4,27.7,37.6,53.3,56.9,76.2c-15.6,18.1-31.3,34.2-46.8,48.1C267,537.7,256,546.4,245.4,553.6
	C245.4,553.5,245.4,553.5,245.4,553.6z M261.5,193.7c-9.1,14.1-18,28.6-26.6,43.5c-6.1,10.6-12,21.3-17.6,31.9
	c-2.3,4.2-4.4,8.5-6.6,12.7c-12.9-26.6-23.9-52.8-33.1-77.9c2.5-0.5,5.1-0.9,7.7-1.3C209.4,198.6,235,195.6,261.5,193.7z M486.4,204
	c-9.2,25.1-20.2,51.2-33,77.8c-2.2-4.3-4.4-8.5-6.7-12.8c-5.6-10.6-11.5-21.3-17.6-31.9c-8.5-14.8-17.4-29.2-26.4-43.2
	C432,195.9,460.1,199.3,486.4,204z M475.2,10.2c6.7,0,12.6,1.4,17.6,4.3c22.4,12.9,27.9,55,15.2,115.4
	c-4.3,20.2-10.4,41.8-18.3,64.3c-29.4-5.3-61.2-9.1-94.2-11.2c-18.4-27.7-37.5-53.3-56.8-76.1c15.6-18,31.4-34.2,46.8-48.1
	c13.3-11.9,26-21.8,38-29.4C443.4,16.8,461,10.2,475.2,10.2z M382.5,182.4c-6.6-0.3-13.4-0.6-20.1-0.8l4.4,10.2c0.1,0,0.2,0,0.3,0
	l0.1,0.1c7.5,0.2,15.1,0.6,22.5,1c10.4,15.8,20.6,32.3,30.4,49.3s19,34.1,27.5,51c-6.2,12.4-12.8,24.9-19.7,37.3l0,0.1
	c-0.1,0.1-0.2,0.3-0.2,0.4l5,11.5c4.5-8,8.9-15.9,13.1-23.8c2.5-4.7,4.9-9.3,7.4-14c12.9,26.5,23.9,52.6,33.1,77.8
	c-26.3,4.7-54.6,8.1-83.9,10.2c2.5-3.9,5-7.8,7.5-11.8h-11.8c0,0-0.1,0.1-0.1,0.1h-0.1c-2.6,4.2-5.3,8.3-8,12.5
	c-18.9,1.1-38.2,1.7-57.8,1.7c-19.6,0-39-0.6-57.9-1.7c-2.7-4.2-5.5-8.4-8.1-12.6h-11.8c0,0,0.1,0.1,0.1,0.1h-0.3
	c2.5,3.9,4.9,7.8,7.4,11.6c-29.4-2.1-57.5-5.6-83.8-10.2c9.2-25.1,20.2-51.2,33.1-77.7c2.5,4.8,5,9.4,7.4,14.2
	c4.2,7.9,8.6,15.8,13.1,23.8l5-11.5c-0.1-0.2-0.2-0.3-0.3-0.5l0.1-0.2c-6.9-12.4-13.5-24.9-19.7-37.3c8.5-16.9,17.7-34,27.5-51
	c9.8-16.9,19.9-33.3,30.3-49.1c7.7-0.5,15.3-0.8,23-1.1l4.4-10.2c-0.1,0-0.2,0-0.3,0l0,0c-6.7,0.2-13.4,0.5-20,0.8
	c16.5-24.3,33.5-47,50.6-67.4C349,135.5,366,158.2,382.5,182.4z M171,14.5c5.1-2.9,11-4.3,17.6-4.3c22.8,0,54.3,16.9,89.9,48.8
	c15.4,13.9,31.2,30.1,46.8,48.1c-19.3,22.8-38.4,48.4-56.8,76.1c-16.6,1.1-32.8,2.5-48.5,4.4c-15.7,1.9-30.9,4.1-45.6,6.8
	c-8-22.6-14.1-44.3-18.4-64.6c-12.3-58.5-7.5-99.8,13.1-114.1C169.7,15.2,170.4,14.8,171,14.5z M281.3,403.8
	c16.6,0.9,33.5,1.3,50.6,1.3c17.2,0,34.2-0.5,50.9-1.3c-16.4,24.4-33.5,47.1-50.7,67.5C314.8,450.9,297.7,428.2,281.3,403.8z
	 M493,571.8c-22.4,12.9-61.5-3.3-107.5-44.5c-15.5-13.9-31.2-30-46.8-48.1c19.2-22.8,38.4-48.4,56.8-76c33.1-2.1,64.8-5.9,94.2-11.2
	c7.8,22.6,14,44.3,18.3,64.6c12.3,58.4,7.5,99.7-13.1,114C494.3,571,493.6,571.4,493,571.8z M102.6,222.3
	c19.7-6.5,41.3-11.9,64.6-16.4c0.2,0.5,0.4,1.1,0.6,1.5c2.1,6,4.4,12,6.8,18.1c8.5,21.5,18.2,43.5,29.2,65.8c0.4,0.6,0.7,1.2,1,1.9
	c-0.3,0.6-0.6,1.3-0.9,1.9c-4.3,8.8-8.4,17.6-12.4,26.3c-5,10.9-9.7,21.8-14,32.6c-3.6,9-7,17.7-10.1,26.4
	c-23.4-4.6-45.2-10.1-64.8-16.5c-58.6-19.2-92.3-45-92.3-70.8S43.9,241.4,102.6,222.3z"/>
<g>
	<polygon class="st1" points="327.8,155.9 235.6,366.5 249.2,366.5 332.1,178.5 414.5,366.6 428.1,366.6 335.9,155.9 	"/>
	<path class="st0" d="M332.1,273.5c-10.5,0-19,8.8-19,19.6c0,10.8,8.5,19.6,19,19.6s19-8.8,19-19.6S342.6,273.5,332.1,273.5z"/>
</g>
</svg>
