<svg xmlns="http://www.w3.org/2000/svg" xml:space="preserve" id="Layer_1" x="0" y="0" style="enable-background:new 0 0 664 586.1" version="1.1" viewBox="0 0 664 586.1"><style>.st0{fill:#f54838}</style><path d="M656 268.2c-3.5-5.4-8.2-10.7-14-15.9v.3c-3.7-3.3-7.8-6.4-12.3-9.6v-.4c-4.3-2.9-9-5.8-14-8.6-14.1-7.8-31.1-15-50.9-21.4-19.7-6.5-41.5-12-64.8-16.5 7.7-22.5 13.8-44.1 18.1-64.4 13.8-65.8 6.8-110.6-20-126.1-14.3-8.2-33-7.4-54.9 1.9-15.1 6.4-31.8 16.9-49.7 31.4-.3.2-.6.5-.9.7l-.3.3c-4.4 3.6-8.9 7.4-13.5 11.5-4 3.5-8 7.2-11.9 11.1-11.6 11.1-23.2 23.4-34.8 36.8-15.6-18-31.3-34.1-46.8-47.9-43.8-39.4-81.6-56.7-108.4-50-3.9.9-7.6 2.4-11 4.3-26.8 15.5-33.8 60.3-20 126.1 4.3 20.3 10.4 41.9 18.1 64.3-6.4 1.3-12.8 2.6-19 4-11 2.5-21.6 5.2-31.7 8.2-4.7 1.4-9.4 2.8-13.9 4.2-4.2 1.4-8.2 2.8-12.2 4.2-14.8 5.3-27.7 11.1-38.9 17.3-5 2.8-9.7 5.7-14 8.6v.1c-4.5 3.1-8.6 6.3-12.3 9.6v-.1c-5.8 5.2-10.5 10.5-14 15.9-5.2 8-7.9 16.4-8 24.8 0 8.5 2.7 16.9 7.9 24.9 3.4 5.2 7.8 10.2 13.2 15.1 3.2 2.9 6.7 5.7 10.6 8.5 3.6 2.6 7.6 5.2 11.9 7.7 9.3 5.5 20.2 10.8 32.4 15.7 7.3 2.9 15 5.7 23.2 8.4 5.5 1.8 11.1 3.6 16.9 5.2 15.1 4.3 31.1 8.1 48 11.4-7.7 22.5-13.8 44.1-18.1 64.4-13.8 65.8-6.8 110.5 20 126 6.6 3.8 14.1 5.7 22.5 5.7 8.1 0 16.9-1.8 26.4-5.2 20.7-7.5 44.6-23 70.5-46.3 15.4-13.8 30.9-29.8 46.5-47.6 15.7 17.8 31.2 33.9 46.7 47.7 37.7 33.8 71 51.4 96.6 51.4 6.3 0 12.2-1.1 17.5-3.3 1.8-.7 3.6-1.6 5.3-2.5 26.8-15.5 33.8-60.2 20-126-4.3-20.3-10.4-41.9-18.1-64.3 23.3-4.5 45-10 64.6-16.4 34.9-11.4 61.2-25 77.9-40.1.2-.1.3-.3.5-.4l.5-.5c.3-.3.7-.6 1-.9 4.7-4.5 8.6-9 11.7-13.7 5.2-8 7.9-16.4 7.9-24.9-.1-8.3-2.8-16.7-8-24.7zm-2.3 25c0 9.6-4.6 19.1-13.4 28.3l-.8.8-.6.6c-2.7 2.6-5.7 5.2-9 7.9-.7.5-1.4 1-2 1.5-.4.3-.8.6-1.1.9-2.5 1.8-5.2 3.6-8 5.4-3 1.9-6.1 3.7-9.5 5.5-.3.2-.6.3-1 .5-.8.4-1.6.8-2.4 1.3l-1.8.9c-.5.2-.9.5-1.4.7-4 2-8.2 3.9-12.5 5.8-1 .4-1.9.8-2.9 1.2-.1 0-.2.1-.3.1-4.5 1.9-9.2 3.7-14.1 5.5-2.5.9-5 1.8-7.7 2.7-1.1.4-2.2.7-3.3 1.1h-.1c-4.5 1.5-9.1 2.9-13.8 4.3-16 4.7-33.2 8.8-51.3 12.2-3.1-8.7-6.5-17.5-10.1-26.5-4.3-10.8-9-21.7-14-32.6-4-8.7-8.1-17.5-12.4-26.3-.3-.6-.6-1.3-.9-1.9.3-.7.6-1.3 1-1.9 11-22.3 20.7-44.3 29.2-65.8 2.4-6.1 4.7-12.1 6.8-18.1.2-.4.3-.9.5-1.3 23.4 4.5 45 10 64.7 16.4 58.6 19.1 92.2 45 92.2 70.8zM245.4 553.6c-1.1.7-2.2 1.5-3.3 2.2-.3.2-.6.4-1 .6-.7.5-1.4.9-2.1 1.3-19.3 12.1-36.4 18.3-50.2 18.3-6.6 0-12.5-1.4-17.6-4.3-22.4-12.9-27.9-55-15.2-115.3 4.3-20.3 10.5-42 18.3-64.5 29.4 5.3 61.1 9.1 94.1 11.2 18.4 27.7 37.6 53.3 56.9 76.2-15.6 18.1-31.3 34.2-46.8 48.1-11.5 10.3-22.5 19-33.1 26.2 0-.1 0-.1 0 0zm16.1-359.9c-9.1 14.1-18 28.6-26.6 43.5-6.1 10.6-12 21.3-17.6 31.9-2.3 4.2-4.4 8.5-6.6 12.7-12.9-26.6-23.9-52.8-33.1-77.9 2.5-.5 5.1-.9 7.7-1.3 24.1-4 49.7-7 76.2-8.9zM486.4 204c-9.2 25.1-20.2 51.2-33 77.8-2.2-4.3-4.4-8.5-6.7-12.8-5.6-10.6-11.5-21.3-17.6-31.9-8.5-14.8-17.4-29.2-26.4-43.2 29.3 2 57.4 5.4 83.7 10.1zM475.2 10.2c6.7 0 12.6 1.4 17.6 4.3 22.4 12.9 27.9 55 15.2 115.4-4.3 20.2-10.4 41.8-18.3 64.3-29.4-5.3-61.2-9.1-94.2-11.2-18.4-27.7-37.5-53.3-56.8-76.1 15.6-18 31.4-34.2 46.8-48.1 13.3-11.9 26-21.8 38-29.4 19.9-12.6 37.5-19.2 51.7-19.2zm-92.7 172.2c-6.6-.3-13.4-.6-20.1-.8l4.4 10.2h.3l.1.1c7.5.2 15.1.6 22.5 1 10.4 15.8 20.6 32.3 30.4 49.3s19 34.1 27.5 51c-6.2 12.4-12.8 24.9-19.7 37.3v.1c-.1.1-.2.3-.2.4l5 11.5c4.5-8 8.9-15.9 13.1-23.8 2.5-4.7 4.9-9.3 7.4-14 12.9 26.5 23.9 52.6 33.1 77.8-26.3 4.7-54.6 8.1-83.9 10.2 2.5-3.9 5-7.8 7.5-11.8h-11.8l-.1.1h-.1c-2.6 4.2-5.3 8.3-8 12.5-18.9 1.1-38.2 1.7-57.8 1.7-19.6 0-39-.6-57.9-1.7-2.7-4.2-5.5-8.4-8.1-12.6h-11.8l.1.1h-.3c2.5 3.9 4.9 7.8 7.4 11.6-29.4-2.1-57.5-5.6-83.8-10.2 9.2-25.1 20.2-51.2 33.1-77.7 2.5 4.8 5 9.4 7.4 14.2 4.2 7.9 8.6 15.8 13.1 23.8l5-11.5c-.1-.2-.2-.3-.3-.5l.1-.2c-6.9-12.4-13.5-24.9-19.7-37.3 8.5-16.9 17.7-34 27.5-51 9.8-16.9 19.9-33.3 30.3-49.1 7.7-.5 15.3-.8 23-1.1l4.4-10.2h-.3c-6.7.2-13.4.5-20 .8 16.5-24.3 33.5-47 50.6-67.4 17.1 20.3 34.1 43 50.6 67.2zM171 14.5c5.1-2.9 11-4.3 17.6-4.3 22.8 0 54.3 16.9 89.9 48.8 15.4 13.9 31.2 30.1 46.8 48.1-19.3 22.8-38.4 48.4-56.8 76.1-16.6 1.1-32.8 2.5-48.5 4.4-15.7 1.9-30.9 4.1-45.6 6.8-8-22.6-14.1-44.3-18.4-64.6-12.3-58.5-7.5-99.8 13.1-114.1.6-.5 1.3-.9 1.9-1.2zm110.3 389.3c16.6.9 33.5 1.3 50.6 1.3 17.2 0 34.2-.5 50.9-1.3-16.4 24.4-33.5 47.1-50.7 67.5-17.3-20.4-34.4-43.1-50.8-67.5zm211.7 168c-22.4 12.9-61.5-3.3-107.5-44.5-15.5-13.9-31.2-30-46.8-48.1 19.2-22.8 38.4-48.4 56.8-76 33.1-2.1 64.8-5.9 94.2-11.2 7.8 22.6 14 44.3 18.3 64.6 12.3 58.4 7.5 99.7-13.1 114-.6.4-1.3.8-1.9 1.2zM102.6 222.3c19.7-6.5 41.3-11.9 64.6-16.4.2.5.4 1.1.6 1.5 2.1 6 4.4 12 6.8 18.1 8.5 21.5 18.2 43.5 29.2 65.8.4.6.7 1.2 1 1.9-.3.6-.6 1.3-.9 1.9-4.3 8.8-8.4 17.6-12.4 26.3-5 10.9-9.7 21.8-14 32.6-3.6 9-7 17.7-10.1 26.4-23.4-4.6-45.2-10.1-64.8-16.5-58.6-19.2-92.3-45-92.3-70.8s33.6-51.7 92.3-70.8z" class="st0"/><path d="m327.8 155.9-92.2 210.6h13.6l82.9-188 82.4 188.1h13.6l-92.2-210.7z" style="fill:#edf2f7"/><path d="M332.1 273.5c-10.5 0-19 8.8-19 19.6s8.5 19.6 19 19.6 19-8.8 19-19.6-8.5-19.6-19-19.6z" class="st0"/></svg>