<svg xmlns="http://www.w3.org/2000/svg" xml:space="preserve" id="svg3012" x="0" y="0" style="enable-background:new 0 0 738.6 740.5" version="1.1" viewBox="0 0 738.6 740.5"><style>.st0{fill:#ea3442}.st1{fill:#d5e4f5}</style><path d="M507 166.5c-98.4-61.5-136.4-85-137.7-85-1.3 0-39.3 23.5-137.7 85-128.1 80.1-135.8 85-135.5 86.5.3 1.5 59.7 206.8 61.1 211.2.6 1.8 2.4 2.7 38 17.8 20.6 8.8 37.8 16.2 38.3 16.6.5.4 7.2 30.2 17.1 76l16.2 75.4 24 15.5 24 15.4.3 12.9.3 12.9 25.2 16.9c24.8 16.6 25.3 16.9 28.6 16.9 3.3 0 3.4 0 28.9-17l25.5-17 .2-12.8.2-12.8 24-15.4 24-15.5 16.2-75.4c9.8-45.8 16.5-75.6 17-76 .5-.4 17.7-7.8 38.3-16.6 35.7-15.2 37.4-16 38-17.8 1.4-4.4 60.8-209.7 61.1-211.2.2-1.5-7.5-6.4-135.6-86.5zM292.2 582c-.3-.1-2.3-.2-4.4-.4l-3.8-.2-10.9-57.9c-6-31.8-11.2-58.2-11.5-58.7-.3-.5-15.7-7.5-34.2-15.5l-33.5-14.7-9.4-38.2c-5.1-20.8-9.3-38-9.3-38.3.1-.1 2.1-.2 4.6-.3l4.5-.2 9.3 34.2 9.3 34.2 32.9 15.4c27.9 13 33 15.6 33.4 16.9.4 1.2 18.3 95.1 23.2 121.5.2 1.2.1 2.2-.2 2.2zm-29.6-284.5c-18.1 12.9-33.5 23.8-34.2 24.3-1.2.8-2-.5-17.4-31.4-8.9-17.7-16.1-32.6-16.1-33 0-.6 10.2-32.9 10.6-33.6.3-.4 90.4 49.4 90.2 49.8-.1.3-15 11-33.1 23.9zm140.6 398.6-16.5 10.1c-9.1 5.5-16.9 10-17.4 10s-7.9-4.3-16.5-9.6-16-9.8-16.5-10.1c-.5-.3-.8-1.5-.6-3.2l.2-2.7 15.7 9.6c12.3 7.5 16.1 9.6 17.9 9.6 1.8 0 5.4-1.9 16.9-9 8.1-4.9 15.2-9.3 15.8-9.6 1-.5 1.1-.3 1.1 2.1l-.1 2.8zm-15.1-21.8c-9.9 6.2-18.3 11.3-18.8 11.3s-8.6-4.9-18.1-10.9c-9.5-6-17.6-11.1-18-11.3-.5-.3 1-3.6 4.8-10.6l5.6-10.2 12.9-4.5 12.9-4.5 12.9 4.5 12.9 4.5 5.6 10.2c3 5.5 5.4 10.1 5.4 10.2-.1 0-8.2 5.1-18.1 11.3zm54.8-400.7c-.1-.5 90-50.3 90.2-49.8.5.9 10.6 32.9 10.6 33.7 0 .5-7.3 15.4-16.2 33.1l-16.1 32.1-34.2-24.3c-18.7-13.4-34.2-24.5-34.3-24.8zm111.2 122.8-9.4 38.2-33.8 14.8c-24.5 10.7-34 15.2-34.3 16.1-.3.7-5.3 27-11.2 58.4s-10.7 57.2-10.7 57.3c0 0-2 .2-4.4.3l-4.4.3.4-2.3c4.7-25.7 22.8-120.3 23.1-121.4.4-1.3 5.5-3.9 33.4-16.9l32.9-15.4 9.3-34.2 9.3-34.2 4.5.2c2.5.1 4.5.3 4.6.3-.1.5-4.2 17.6-9.3 38.5z" class="st0"/><path d="m219.4 280.3-12-24 2.3-7.3c1.4-4.3 2.6-7.3 3.2-7.4 1.4-.2 59.6 32 59.9 33.1.1.7-6.3 5.6-19.4 14.9-10.8 7.7-20.1 14.1-20.8 14.2-1.1.4-3.1-3.3-13.2-23.5zM485.8 290.1c-13-9.2-19.7-14.4-19.7-15.2 0-.8 8.1-5.5 29.4-17.3 16.2-8.9 29.8-16.1 30.3-16 .5.1 1.8 3.1 3.2 7.4l2.3 7.3-11.9 23.9c-6.9 13.8-12.3 23.9-12.8 23.9-.6 0-9.9-6.3-20.8-14z" class="st1"/><path d="M163.4 48.7C75.5 21.9 2.7 0 1.8 0 .4 0 0 .3 0 1.5c0 1.1 85.7 229.6 88.8 236.8.4 1 1 1.4 1.8 1.2 2.2-.6 232.4-140.3 232.6-141.2.1-.6-43.1-14-159.8-49.6zm89.8 59.8c-1 .7-11.2 6.9-22.6 13.8-11.4 6.9-22.6 13.6-24.9 15.1-2.3 1.4-6.3 3.9-8.9 5.4-2.6 1.5-13.7 8.2-24.6 14.8-10.9 6.6-21.4 13-23.3 14.1-4 2.3-34.8 21-38.7 23.4-1.4.9-2.9 1.8-3.2 2-.6.4-2.8-4.8-8.6-20.6-3.1-8.4-4.8-13-6.5-17.3-1.8-4.7-6.5-16.9-11-29.1-.3-.7-1.2-3-2-5.1-1.6-4.1-11.2-29.5-14.7-39-5.2-14.1-6-16.1-6.9-18.2-1.4-3.3-4.8-12.2-5.3-14-.3-.9-1.1-3.1-2-5-.8-1.9-1.5-3.6-1.5-4 0-.3 2.2.1 5 1 2.7.9 7.3 2.3 10.1 3.1 2.8.8 7.8 2.4 11.2 3.4 7.5 2.3 24.9 7.6 28.8 8.7 2.6.7 12.8 3.8 27.2 8.3 11.2 3.5 26 8 33.5 10.2 4.4 1.3 9.1 2.8 10.5 3.2 1.4.5 5.7 1.8 9.6 2.9 3.9 1.1 9.5 2.8 12.5 3.8s8.2 2.6 11.5 3.5c3.3 1 7.6 2.3 9.6 2.9 1.9.6 7.4 2.3 12.1 3.7 4.8 1.4 12.3 3.7 16.8 5.1l8.2 2.5-1.9 1.4zM736.9 0c-1 0-73.8 21.9-161.8 48.7-116.6 35.5-159.9 49-159.7 49.6.1.5 52.4 32.5 116.2 71.1 63.7 38.6 116.3 70.1 116.9 70.1 1-.2 89.3-232.8 89.9-237 .4-2.4.3-2.5-1.5-2.5zm-48.4 48.7c-.8 1.8-1.7 4.1-2 5-.5 1.8-3.9 10.7-5.3 14-.9 2.1-1.7 4.1-6.9 18.2-3.5 9.4-13.1 34.9-14.7 39-.8 2.1-1.7 4.4-2 5.1-4.5 12.2-9.1 24.4-11 29.1-1.7 4.3-3.5 9.2-6.5 17.3-1 2.6-3.1 8.4-4.8 12.8-1.7 4.4-3.1 8-3.1 8.1-.1.1-1.5-.8-3.3-1.9-4.4-2.8-35-21.3-39.3-23.8-1.9-1.1-12.4-7.5-23.3-14.1s-22-13.3-24.6-14.8c-2.6-1.5-6.7-4-9-5.4-2.3-1.4-13.5-8.2-24.9-15.1-11.4-6.9-21.6-13.1-22.6-13.8l-1.8-1.3 8.2-2.5c4.5-1.4 12.1-3.6 16.8-5.1 4.8-1.4 10.2-3.1 12.1-3.7 1.9-.6 6.3-1.9 9.6-2.9s8.5-2.6 11.5-3.5c3-1 8.6-2.7 12.5-3.8 3.9-1.1 8.2-2.4 9.6-2.9 1.4-.5 6.1-1.9 10.5-3.2 7.6-2.2 22.4-6.7 33.5-10.2 14.4-4.4 24.6-7.6 27.2-8.3 3.9-1.1 21.3-6.3 28.8-8.7 3.3-1 8.4-2.6 11.2-3.4 2.8-.9 7.3-2.3 10.1-3.1 2.7-.9 5-1.3 5-1 0 .3-.6 2.1-1.5 3.9z" class="st0"/></svg>