<?xml version="1.0" encoding="utf-8"?>
<!-- Generator: Adobe Illustrator 23.0.1, SVG Export Plug-In . SVG Version: 6.00 Build 0)  -->
<svg version="1.1"
	 id="svg3012" inkscape:version="0.48.4 r9939" sodipodi:docname="foxinfinity.svg" xmlns:cc="http://creativecommons.org/ns#" xmlns:dc="http://purl.org/dc/elements/1.1/" xmlns:inkscape="http://www.inkscape.org/namespaces/inkscape" xmlns:rdf="http://www.w3.org/1999/02/22-rdf-syntax-ns#" xmlns:sodipodi="http://sodipodi.sourceforge.net/DTD/sodipodi-0.dtd" xmlns:svg="http://www.w3.org/2000/svg"
	 xmlns="http://www.w3.org/2000/svg" xmlns:xlink="http://www.w3.org/1999/xlink" x="0px" y="0px" viewBox="0 0 837.3 839.5"
	 style="enable-background:new 0 0 837.3 839.5;" xml:space="preserve">
<style type="text/css">
	.st0{fill:#2D2C34;}
	.st1{fill:#EA3442;}
</style>
<path class="st0" d="M556.4,216C458,154.5,420,131,418.7,131c-1.3,0-39.3,23.5-137.7,85c-128.1,80.1-135.8,85-135.5,86.5
	c0.3,1.5,59.7,206.8,61.1,211.2c0.6,1.8,2.4,2.7,38,17.8c20.6,8.8,37.8,16.2,38.3,16.6c0.5,0.4,7.2,30.2,17.1,76l16.2,75.4l24,15.5
	l24,15.4l0.3,12.9l0.3,12.9l25.2,16.9c24.8,16.6,25.3,16.9,28.6,16.9c3.3,0,3.4,0,28.9-17l25.5-17l0.2-12.8l0.2-12.8l24-15.4
	l24-15.5l16.2-75.4c9.8-45.8,16.5-75.6,17-76c0.5-0.4,17.7-7.8,38.3-16.6c35.7-15.2,37.4-16,38-17.8c1.4-4.4,60.8-209.7,61.1-211.2
	C692.2,301,684.5,296.1,556.4,216z M341.6,631.5c-0.3-0.1-2.3-0.2-4.4-0.4l-3.8-0.2L322.5,573c-6-31.8-11.2-58.2-11.5-58.7
	s-15.7-7.5-34.2-15.5l-33.5-14.7l-9.4-38.2c-5.1-20.8-9.3-38-9.3-38.3c0.1-0.1,2.1-0.2,4.6-0.3l4.5-0.2l9.3,34.2l9.3,34.2l32.9,15.4
	c27.9,13,33,15.6,33.4,16.9c0.4,1.2,18.3,95.1,23.2,121.5C342,630.5,341.9,631.5,341.6,631.5z M312,347
	c-18.1,12.9-33.5,23.8-34.2,24.3c-1.2,0.8-2-0.5-17.4-31.4c-8.9-17.7-16.1-32.6-16.1-33c0-0.6,10.2-32.9,10.6-33.6
	c0.3-0.4,90.4,49.4,90.2,49.8C345,323.4,330.1,334.1,312,347z M452.6,745.6l-16.5,10.1c-9.1,5.5-16.9,10-17.4,10s-7.9-4.3-16.5-9.6
	s-16-9.8-16.5-10.1s-0.8-1.5-0.6-3.2l0.2-2.7l15.7,9.6c12.3,7.5,16.1,9.6,17.9,9.6s5.4-1.9,16.9-9c8.1-4.9,15.2-9.3,15.8-9.6
	c1-0.5,1.1-0.3,1.1,2.1L452.6,745.6z M437.5,723.8c-9.9,6.2-18.3,11.3-18.8,11.3s-8.6-4.9-18.1-10.9s-17.6-11.1-18-11.3
	c-0.5-0.3,1-3.6,4.8-10.6l5.6-10.2l12.9-4.5l12.9-4.5l12.9,4.5l12.9,4.5l5.6,10.2c3,5.5,5.4,10.1,5.4,10.2
	C455.5,712.5,447.4,717.6,437.5,723.8z M492.3,323.1c-0.1-0.5,90-50.3,90.2-49.8c0.5,0.9,10.6,32.9,10.6,33.7
	c0,0.5-7.3,15.4-16.2,33.1l-16.1,32.1l-34.2-24.3C507.9,334.5,492.4,323.4,492.3,323.1z M603.5,445.9l-9.4,38.2l-33.8,14.8
	c-24.5,10.7-34,15.2-34.3,16.1c-0.3,0.7-5.3,27-11.2,58.4c-5.9,31.4-10.7,57.2-10.7,57.3c0,0-2,0.2-4.4,0.3l-4.4,0.3l0.4-2.3
	c4.7-25.7,22.8-120.3,23.1-121.4c0.4-1.3,5.5-3.9,33.4-16.9l32.9-15.4l9.3-34.2l9.3-34.2l4.5,0.2c2.5,0.1,4.5,0.3,4.6,0.3
	C612.7,407.9,608.6,425,603.5,445.9z"/>
<path class="st1" d="M268.8,329.8l-12-24l2.3-7.3c1.4-4.3,2.6-7.3,3.2-7.4c1.4-0.2,59.6,32,59.9,33.1c0.1,0.7-6.3,5.6-19.4,14.9
	c-10.8,7.7-20.1,14.1-20.8,14.2C280.9,353.7,278.9,350,268.8,329.8L268.8,329.8z"/>
<path class="st1" d="M535.2,339.6c-13-9.2-19.7-14.4-19.7-15.2c0-0.8,8.1-5.5,29.4-17.3c16.2-8.9,29.8-16.1,30.3-16s1.8,3.1,3.2,7.4
	l2.3,7.3l-11.9,23.9c-6.9,13.8-12.3,23.9-12.8,23.9C555.4,353.6,546.1,347.3,535.2,339.6L535.2,339.6z"/>
<path class="st0" d="M212.8,98.2C124.9,71.4,52.1,49.5,51.2,49.5c-1.4,0-1.8,0.3-1.8,1.5c0,1.1,85.7,229.6,88.8,236.8
	c0.4,1,1,1.4,1.8,1.2c2.2-0.6,232.4-140.3,232.6-141.2C372.7,147.2,329.5,133.8,212.8,98.2z M302.6,158c-1,0.7-11.2,6.9-22.6,13.8
	c-11.4,6.9-22.6,13.6-24.9,15.1c-2.3,1.4-6.3,3.9-8.9,5.4c-2.6,1.5-13.7,8.2-24.6,14.8c-10.9,6.6-21.4,13-23.3,14.1
	c-4,2.3-34.8,21-38.7,23.4c-1.4,0.9-2.9,1.8-3.2,2c-0.6,0.4-2.8-4.8-8.6-20.6c-3.1-8.4-4.8-13-6.5-17.3c-1.8-4.7-6.5-16.9-11-29.1
	c-0.3-0.7-1.2-3-2-5.1c-1.6-4.1-11.2-29.5-14.7-39c-5.2-14.1-6-16.1-6.9-18.2c-1.4-3.3-4.8-12.2-5.3-14c-0.3-0.9-1.1-3.1-2-5
	c-0.8-1.9-1.5-3.6-1.5-4c0-0.3,2.2,0.1,5,1c2.7,0.9,7.3,2.3,10.1,3.1c2.8,0.8,7.8,2.4,11.2,3.4c7.5,2.3,24.9,7.6,28.8,8.7
	c2.6,0.7,12.8,3.8,27.2,8.3c11.2,3.5,26,8,33.5,10.2c4.4,1.3,9.1,2.8,10.5,3.2c1.4,0.5,5.7,1.8,9.6,2.9c3.9,1.1,9.5,2.8,12.5,3.8
	s8.2,2.6,11.5,3.5c3.3,1,7.6,2.3,9.6,2.9c1.9,0.6,7.4,2.3,12.1,3.7c4.8,1.4,12.3,3.7,16.8,5.1l8.2,2.5L302.6,158z"/>
<path class="st0" d="M786.3,49.5c-1,0-73.8,21.9-161.8,48.7c-116.6,35.5-159.9,49-159.7,49.6c0.1,0.5,52.4,32.5,116.2,71.1
	c63.7,38.6,116.3,70.1,116.9,70.1c1-0.2,89.3-232.8,89.9-237C788.2,49.6,788.1,49.5,786.3,49.5z M737.9,98.2c-0.8,1.8-1.7,4.1-2,5
	c-0.5,1.8-3.9,10.7-5.3,14c-0.9,2.1-1.7,4.1-6.9,18.2c-3.5,9.4-13.1,34.9-14.7,39c-0.8,2.1-1.7,4.4-2,5.1
	c-4.5,12.2-9.1,24.4-11,29.1c-1.7,4.3-3.5,9.2-6.5,17.3c-1,2.6-3.1,8.4-4.8,12.8c-1.7,4.4-3.1,8-3.1,8.1c-0.1,0.1-1.5-0.8-3.3-1.9
	c-4.4-2.8-35-21.3-39.3-23.8c-1.9-1.1-12.4-7.5-23.3-14.1c-10.9-6.6-22-13.3-24.6-14.8s-6.7-4-9-5.4s-13.5-8.2-24.9-15.1
	c-11.4-6.9-21.6-13.1-22.6-13.8l-1.8-1.3l8.2-2.5c4.5-1.4,12.1-3.6,16.8-5.1c4.8-1.4,10.2-3.1,12.1-3.7c1.9-0.6,6.3-1.9,9.6-2.9
	s8.5-2.6,11.5-3.5c3-1,8.6-2.7,12.5-3.8c3.9-1.1,8.2-2.4,9.6-2.9c1.4-0.5,6.1-1.9,10.5-3.2c7.6-2.2,22.4-6.7,33.5-10.2
	c14.4-4.4,24.6-7.6,27.2-8.3c3.9-1.1,21.3-6.3,28.8-8.7c3.3-1,8.4-2.6,11.2-3.4c2.8-0.9,7.3-2.3,10.1-3.1c2.7-0.9,5-1.3,5-1
	C739.4,94.6,738.8,96.4,737.9,98.2z"/>
</svg>
