<svg xmlns="http://www.w3.org/2000/svg" xml:space="preserve" id="Layer_1" x="0" y="0" style="enable-background:new 0 0 2061.7 607.5" version="1.1" viewBox="0 0 2061.7 607.5"><style>.st0{fill:#ff74f9}.st1{fill:#9a94ff}</style><path d="M1643 284.1h-30.5c-5.1-13.5-8.9-26.9-11-40.1 9.3 3.6 17.7 9.2 25.4 16.9 7.2 7.1 12.5 14.8 16.1 23.2z" class="st0"/><path d="M1695.1 313.3c0 4.7-1.7 8.8-5 12.2-3.4 3.4-7.4 5.1-12.2 5.1h-43.1c-6.5-11.4-12.4-22.9-17.4-34.4h41.7c-3.2-16.5-11-31.1-23.7-43.7-10.4-10.5-22.3-17.6-35.4-21.6-.9-12-.2-23.7 2.3-35 21.6 4.8 40.8 15.6 57.5 32.3 23.5 23.4 35.3 51.8 35.3 85.1z" class="st0"/><path d="m1814.4 239.2-132.7 159.2c-5.1-6.3-10.1-12.8-15-19.4-1.7-2.2-3.3-4.5-4.9-6.7-7-9.7-13.7-19.6-19.9-29.7h35.9c7.9 0 15-3 20.7-8.6 5.6-5.6 8.6-12.8 8.6-20.7 0-36.4-13-68-38.8-93.7-18.2-18.2-39.2-30-62.7-35.4 4-11.7 10.1-22.8 18.7-33.3 54.2-65.9 119-5.7 149.3 29.9h-68.8c-7.9 0-15 3-20.7 8.6s-8.6 12.8-8.6 20.6c0 7.9 3 15 8.6 20.7 5.6 5.6 12.7 8.6 20.7 8.6h109.6zM1723.3 445.8h135.3c-34.8 36.6-64.4 60.4-68 60.4-3.1 0-32.5-23.8-67.3-60.4z" class="st0"/><path d="M1889 404.5c1.2 1.2 2.2 2.5 3 3.9-7.4 8.9-14.9 17.5-22.2 25.5h-157.6c-7.4-8.1-15-16.8-22.5-25.8.4-.7.8-1.3 1.3-2l149.2-178.9h-135.4c-4.7 0-8.8-1.7-12.2-5.1-3.4-3.4-5.1-7.4-5.1-12.2 0-4.7 1.7-8.8 5.1-12.2 3.4-3.4 7.4-5.1 12.2-5.1h78.5c4.6 6 7.3 9.9 7.4 9.9.1 0 2.6-3.8 6.9-9.9h79.3c4.7 0 8.8 1.7 12.2 5.1 3.4 3.4 5 7.4 5 12.2 0 4.3-1.4 8-4.1 11.2l-148.7 178.2h135.6c4.7.1 8.7 1.8 12.1 5.2z" class="st0"/><path d="M1899.9 398.6c-.7-.9-1.5-1.8-2.4-2.7-5.6-5.6-12.8-8.6-20.7-8.6h-110l132.3-158.5c4.5-5.3 6.9-11.8 6.9-19 0-7.9-3-15-8.6-20.6-5.6-5.6-12.8-8.6-20.7-8.6h-70.3c29.1-36.6 93.1-99.7 150.4-29.9 57.8 70.3 4.4 171.5-56.9 247.9zM252.2 433.8c-47.5 0-88.1-16.8-121.7-50.5C96.8 349.7 80 309.1 80 261.6s16.8-88.1 50.5-121.7c33.6-33.6 74.2-50.5 121.7-50.5 40.4 0 76.5 12.7 108.1 38.2 1.4 1.1 2.6 2.3 3.6 3.8 1.9 2.8 2.8 6.1 2.8 9.6 0 4.7-1.7 8.8-5.1 12.2-3.4 3.4-7.4 5.1-12.2 5.1-4.5 0-8.3-1.5-11.7-4.6-.4-.4-.8-.8-1.3-1.1-24.1-19.2-52.2-28.8-84.4-28.8-38 0-70.5 13.5-97.4 40.4-26.9 26.9-40.4 59.4-40.4 97.4 0 38 13.5 70.5 40.4 97.4 26.9 26.9 59.4 40.4 97.4 40.4 25.9 0 49.1-6.2 69.8-18.6 5.6-3.4 9-9.4 9-16v-50.1c0-10.3-8.3-18.6-18.6-18.6H263c-4.7 0-8.8-1.7-12.2-5.1-3.4-3.4-5.1-7.4-5.1-12.2 0-4.7 1.7-8.8 5.1-12.2 3.4-3.4 7.4-5.1 12.2-5.1h12.1c23.5-.1 58.1-2 74.9 14.3 17.5 17 15.4 51.3 15.4 75.7v24.7c-.2 3.3-.8 6.3-1.8 9.1-13.7 42.8-99.3 47.9-111.4 48.5zM436.8 141.1c0 5.9-2.1 10.9-6.4 15.2-4.2 4.2-9.3 6.3-15.2 6.3-5.9 0-10.9-2.1-15.2-6.3-4.2-4.2-6.4-9.3-6.4-15.2 0-5.9 2.1-10.9 6.4-15.2 4.2-4.2 9.3-6.4 15.2-6.4 5.9 0 10.9 2.1 15.2 6.4 4.3 4.2 6.4 9.3 6.4 15.2zM398.1 210c0-4.7 1.7-8.8 5.1-12.2 3.4-3.4 7.4-5.1 12.2-5.1 4.7 0 8.8 1.7 12.2 5.1 3.4 3.4 5.1 7.4 5.1 12.2v206.6c0 4.7-1.7 8.8-5.1 12.2-3.4 3.4-7.4 5.1-12.2 5.1-4.7 0-8.8-1.7-12.2-5.1-3.4-3.4-5.1-7.4-5.1-12.2V210zM462.1 210c0-4.7 1.7-8.8 5.1-12.2 3.4-3.4 7.4-5.1 12.2-5.1s8.8 1.7 12.2 5.1c3.4 3.4 5.1 7.4 5.1 12.2v18.9c24.1-24.1 52.8-36.2 86.1-36.2 16.8 0 32.2 2.9 46.3 8.6 2.6 1 5 2.5 7.1 4.5 3.3 3.4 5 7.5 5 12.3s-1.7 8.8-5.1 12.2c-3.4 3.4-7.4 5.1-12.2 5.1-2.7 0-5.2-.6-7.5-1.7-10.2-4.3-21.4-6.5-33.6-6.5-23.8 0-44.1 8.4-60.9 25.2s-25.2 37.1-25.2 60.9v103.3c0 4.7-1.7 8.8-5.1 12.2-3.4 3.4-7.4 5.1-12.2 5.1s-8.8-1.7-12.2-5.1c-3.4-3.4-5.1-7.4-5.1-12.2V210zM655.3 425.2c-5.5-5.5-8.6-13-8.6-20.8V106.7c0-4.7 1.7-8.8 5.1-12.2 3.4-3.4 7.4-5.1 12.2-5.1s8.8 1.7 12.2 5.1c3.4 3.4 5.1 7.4 5.1 12.2v275.5c0 9.5 7.7 17.2 17.2 17.2 4.7 0 8.8 1.7 12.2 5.1 3.4 3.4 5.1 7.4 5.1 12.2s-1.7 8.8-5.1 12.2c-3.4 3.4-7.4 5.1-12.2 5.1h-22.3c-7.9-.2-15.4-3.3-20.9-8.8zM1066.7 518.5c-9.4 0-17-7.6-17-17v-66.8c0-4.7 1.7-8.8 5.1-12.2 3.4-3.4 7.4-5.1 12.2-5.1s8.8 1.7 12.2 5.1c3.4 3.4 5.1 7.4 5.1 12.2l-.4 66.8c-.2 9.4-7.8 17-17.2 17z" class="st0"/><path d="M1016.4 467.7c0-9.4 7.6-17 17-17h66.8c4.7 0 8.8 1.7 12.2 5.1 3.4 3.4 5.1 7.4 5.1 12.2s-1.7 8.8-5.1 12.2c-3.4 3.4-7.4 5.1-12.2 5.1l-66.8-.4c-9.4-.2-17-7.8-17-17.2z" class="st0"/><path d="M915.3 374.9c4.7 0 8.8 1.7 12.2 5.1 3.4 3.4 5.1 7.4 5.1 12.2s-1.8 9-5.4 12.7C905 424.3 878.8 434 848.6 434c-33.3 0-61.7-11.8-85.2-35.3-23.6-23.7-35.4-52.1-35.4-85.4 0-33.3 11.8-61.7 35.3-85.2 23.5-23.5 51.9-35.3 85.2-35.3 30.1 0 56.3 9.7 78.6 29.1 4 3.6 6 8 6 13.3 0 4.7-1.7 8.8-5.1 12.2-3.4 3.4-7.4 5.1-12.2 5.1-4.2 0-7.8-1.3-11-3.9-16.1-14.2-34.9-21.3-56.4-21.3-23.8 0-44.1 8.4-60.9 25.2s-25.2 37.1-25.2 60.9c0 23.8 8.4 44.1 25.2 60.9 16.8 16.8 37.1 25.2 60.9 25.2 21.5 0 40.3-7 56.2-21.1 3.1-2.4 6.6-3.5 10.7-3.5z" class="st1"/><path d="M1188.1 313.3c0 33.3-11.8 61.7-35.3 85.2-23.5 23.5-51.9 35.3-85.2 35.3-33.3 0-61.7-11.8-85.2-35.3-23.6-23.5-35.4-51.9-35.4-85.2 0-33.3 11.8-61.7 35.3-85.2 23.5-23.5 51.9-35.3 85.2-35.3 33.3 0 61.7 11.8 85.2 35.3 23.6 23.5 35.4 51.9 35.4 85.2zm-120.5-86.1c-23.8 0-44.1 8.4-60.9 25.2-16.8 16.8-25.2 37.1-25.2 60.9 0 23.8 8.4 44.1 25.2 60.9 16.8 16.8 37.1 25.2 60.9 25.2 23.8 0 44.1-8.4 60.9-25.2 16.8-16.8 25.2-37.1 25.2-60.9 0-23.8-8.4-44.1-25.2-60.9-16.8-16.8-37.1-25.2-60.9-25.2z" class="st0"/><path d="M1407.1 106.2c0-4.7 1.7-8.8 5.1-12.2 3.4-3.4 7.4-5.1 12.2-5.1 4.7 0 8.8 1.7 12.2 5.1 3.4 3.4 5.1 7.4 5.1 12.2v207.1c0 33.3-11.8 61.7-35.3 85.2-23.5 23.5-51.9 35.3-85.2 35.3-33.3 0-61.7-11.8-85.2-35.3-23.5-23.5-35.3-51.9-35.3-85.2 0-33.3 11.8-61.7 35.3-85.2 23.5-23.5 51.9-35.3 85.2-35.3 33.3 0 61.7 11.8 85.2 35.3l.9.9V106.2zm0 207.1c0-23.8-8.4-44.1-25.2-60.9-16.8-16.8-37.1-25.2-60.9-25.2-23.8 0-44.1 8.4-60.9 25.2-16.8 16.8-25.2 37.1-25.2 60.9 0 23.8 8.4 44.1 25.2 60.9 16.8 16.8 37.1 25.2 60.9 25.2 23.8 0 44.1-8.4 60.9-25.2 16.8-16.8 25.2-37.1 25.2-60.9zM1659.8 228.1c-16.7-16.7-35.8-27.5-57.5-32.3-8.8-2-18.1-3-27.8-3-33.3 0-61.7 11.8-85.2 35.3-23.5 23.5-35.3 52-35.3 85.2 0 33.3 11.8 61.7 35.3 85.2 23.5 23.5 51.9 35.3 85.2 35.3 30.1 0 56.3-9.7 78.6-29.1 3.3-3.4 5-7.5 5-12.3 0-4.7-1.7-8.8-5.1-12.2-3.4-3.4-7.4-5.1-12.2-5.1-4 0-7.6 1.2-10.8 3.7-15.5 13.6-34 20.4-55.5 20.4-23.8 0-44.1-8.4-60.9-25.2-12.6-12.6-20.5-27.2-23.7-43.7h187.9c4.7 0 8.8-1.7 12.2-5.1 3.4-3.4 5-7.4 5-12.2.1-33-11.7-61.4-35.2-84.9zm-169.9 68c3.2-16.5 11.1-31.1 23.7-43.7 16.8-16.8 37.1-25.2 60.9-25.2 9 0 17.5 1.2 25.5 3.6 13.2 3.9 25 11.1 35.4 21.6 12.6 12.6 20.5 27.2 23.7 43.7h-169.2z" class="st1"/><path d="M1661.8 372.2c1.6 2.3 3.3 4.5 4.9 6.7-1.2-2.4-2.9-4.6-4.9-6.7z" style="fill:#fff"/><path d="M1892 408.3c1.4 2.5 2.1 5.2 2.1 8.3 0 4.7-1.7 8.8-5 12.2-3.4 3.4-7.4 5.1-12.2 5.1h-172.2c-4.7 0-8.8-1.7-12.2-5.1-3.4-3.4-5.1-7.4-5.1-12.2 0-3.2.7-6 2.2-8.6.4-.7.8-1.3 1.3-2l149.2-178.9h-135.4c-4.7 0-8.8-1.7-12.2-5.1-3.4-3.4-5.1-7.4-5.1-12.2 0-4.7 1.7-8.8 5.1-12.2 3.4-3.4 7.4-5.1 12.2-5.1h172.2c4.7 0 8.8 1.7 12.2 5.1 3.4 3.4 5 7.4 5 12.2 0 4.3-1.4 8-4.1 11.2l-148.7 178.2h135.6c4.7 0 8.8 1.7 12.2 5.1 1.1 1.4 2.1 2.6 2.9 4z" class="st1"/></svg>