<?xml version="1.0" encoding="utf-8"?>
<!-- Generator: Adobe Illustrator 23.0.1, SVG Export Plug-In . SVG Version: 6.00 Build 0)  -->
<svg version="1.1" id="Layer_1" xmlns="http://www.w3.org/2000/svg" xmlns:xlink="http://www.w3.org/1999/xlink" x="0px" y="0px"
	 viewBox="0 0 2061.7 607.5" style="enable-background:new 0 0 2061.7 607.5;" xml:space="preserve">
<style type="text/css">
	.st0{fill:#FF74F9;}
	.st1{fill:#9A94FF;}
	.st2{fill:#FFFFFF;}
</style>
<g>
	<g>
		<path class="st0" d="M1643,284.1h-30.5c-5.1-13.5-8.9-26.9-11-40.1c9.3,3.6,17.7,9.2,25.4,16.9
			C1634.1,268,1639.4,275.7,1643,284.1z"/>
	</g>
	<g>
		<path class="st0" d="M1695.1,313.3c0,4.7-1.7,8.8-5,12.2c-3.4,3.4-7.4,5.1-12.2,5.1h-43.1c-6.5-11.4-12.4-22.9-17.4-34.4h41.7
			c-3.2-16.5-11-31.1-23.7-43.7c-10.4-10.5-22.3-17.6-35.4-21.6c-0.9-12-0.2-23.7,2.3-35c21.6,4.8,40.8,15.6,57.5,32.3
			C1683.3,251.6,1695.1,280,1695.1,313.3z"/>
	</g>
	<g>
		<path class="st0" d="M1814.4,239.2l-132.7,159.2c-5.1-6.3-10.1-12.8-15-19.4c-1.7-2.2-3.3-4.5-4.9-6.7c-7-9.7-13.7-19.6-19.9-29.7
			h35.9c7.9,0,15-3,20.7-8.6c5.6-5.6,8.6-12.8,8.6-20.7c0-36.4-13-68-38.8-93.7c-18.2-18.2-39.2-30-62.7-35.4
			c4-11.7,10.1-22.8,18.7-33.3c54.2-65.9,119-5.7,149.3,29.9h-68.8c-7.9,0-15,3-20.7,8.6s-8.6,12.8-8.6,20.6c0,7.9,3,15,8.6,20.7
			c5.6,5.6,12.7,8.6,20.7,8.6H1814.4z"/>
	</g>
	<g>
		<path class="st0" d="M1723.3,445.8h135.3c-34.8,36.6-64.4,60.4-68,60.4C1787.5,506.2,1758.1,482.4,1723.3,445.8z"/>
	</g>
	<g>
		<path class="st0" d="M1889,404.5c1.2,1.2,2.2,2.5,3,3.9c-7.4,8.9-14.9,17.5-22.2,25.5h-157.6c-7.4-8.1-15-16.8-22.5-25.8
			c0.4-0.7,0.8-1.3,1.3-2l149.2-178.9h-135.4c-4.7,0-8.8-1.7-12.2-5.1c-3.4-3.4-5.1-7.4-5.1-12.2c0-4.7,1.7-8.8,5.1-12.2
			c3.4-3.4,7.4-5.1,12.2-5.1h78.5c4.6,6,7.3,9.9,7.4,9.9c0.1,0,2.6-3.8,6.9-9.9h79.3c4.7,0,8.8,1.7,12.2,5.1c3.4,3.4,5,7.4,5,12.2
			c0,4.3-1.4,8-4.1,11.2l-148.7,178.2h135.6C1881.6,399.4,1885.6,401.1,1889,404.5z"/>
	</g>
	<g>
		<path class="st0" d="M1899.9,398.6c-0.7-0.9-1.5-1.8-2.4-2.7c-5.6-5.6-12.8-8.6-20.7-8.6h-110l132.3-158.5
			c4.5-5.3,6.9-11.8,6.9-19c0-7.9-3-15-8.6-20.6c-5.6-5.6-12.8-8.6-20.7-8.6h-70.3c29.1-36.6,93.1-99.7,150.4-29.9
			C2014.6,221,1961.2,322.2,1899.9,398.6z"/>
	</g>
	<path class="st0" d="M252.2,433.8c-47.5,0-88.1-16.8-121.7-50.5C96.8,349.7,80,309.1,80,261.6c0-47.5,16.8-88.1,50.5-121.7
		c33.6-33.6,74.2-50.5,121.7-50.5c40.4,0,76.5,12.7,108.1,38.2c1.4,1.1,2.6,2.3,3.6,3.8c1.9,2.8,2.8,6.1,2.8,9.6
		c0,4.7-1.7,8.8-5.1,12.2c-3.4,3.4-7.4,5.1-12.2,5.1c-4.5,0-8.3-1.5-11.7-4.6c-0.4-0.4-0.8-0.8-1.3-1.1
		c-24.1-19.2-52.2-28.8-84.4-28.8c-38,0-70.5,13.5-97.4,40.4c-26.9,26.9-40.4,59.4-40.4,97.4c0,38,13.5,70.5,40.4,97.4
		c26.9,26.9,59.4,40.4,97.4,40.4c25.9,0,49.1-6.2,69.8-18.6c5.6-3.4,9-9.4,9-16v-50.1c0-10.3-8.3-18.6-18.6-18.6H263
		c-4.7,0-8.8-1.7-12.2-5.1c-3.4-3.4-5.1-7.4-5.1-12.2c0-4.7,1.7-8.8,5.1-12.2c3.4-3.4,7.4-5.1,12.2-5.1l12.1,0
		c23.5-0.1,58.1-2,74.9,14.3l0,0c17.5,17,15.4,51.3,15.4,75.7v24.7c-0.2,3.3-0.8,6.3-1.8,9.1C349.9,428.1,264.3,433.2,252.2,433.8z"
		/>
	<path class="st0" d="M436.8,141.1c0,5.9-2.1,10.9-6.4,15.2c-4.2,4.2-9.3,6.3-15.2,6.3c-5.9,0-10.9-2.1-15.2-6.3
		c-4.2-4.2-6.4-9.3-6.4-15.2c0-5.9,2.1-10.9,6.4-15.2c4.2-4.2,9.3-6.4,15.2-6.4c5.9,0,10.9,2.1,15.2,6.4
		C434.7,130.1,436.8,135.2,436.8,141.1z M398.1,210c0-4.7,1.7-8.8,5.1-12.2c3.4-3.4,7.4-5.1,12.2-5.1c4.7,0,8.8,1.7,12.2,5.1
		c3.4,3.4,5.1,7.4,5.1,12.2v206.6c0,4.7-1.7,8.8-5.1,12.2c-3.4,3.4-7.4,5.1-12.2,5.1c-4.7,0-8.8-1.7-12.2-5.1
		c-3.4-3.4-5.1-7.4-5.1-12.2V210z"/>
	<path class="st0" d="M462.1,210c0-4.7,1.7-8.8,5.1-12.2c3.4-3.4,7.4-5.1,12.2-5.1s8.8,1.7,12.2,5.1c3.4,3.4,5.1,7.4,5.1,12.2v18.9
		c24.1-24.1,52.8-36.2,86.1-36.2c16.8,0,32.2,2.9,46.3,8.6c2.6,1,5,2.5,7.1,4.5c3.3,3.4,5,7.5,5,12.3s-1.7,8.8-5.1,12.2
		c-3.4,3.4-7.4,5.1-12.2,5.1c-2.7,0-5.2-0.6-7.5-1.7c-10.2-4.3-21.4-6.5-33.6-6.5c-23.8,0-44.1,8.4-60.9,25.2s-25.2,37.1-25.2,60.9
		v103.3c0,4.7-1.7,8.8-5.1,12.2c-3.4,3.4-7.4,5.1-12.2,5.1s-8.8-1.7-12.2-5.1c-3.4-3.4-5.1-7.4-5.1-12.2V210z"/>
	<path class="st0" d="M655.3,425.2c-5.5-5.5-8.6-13-8.6-20.8V106.7c0-4.7,1.7-8.8,5.1-12.2c3.4-3.4,7.4-5.1,12.2-5.1
		s8.8,1.7,12.2,5.1c3.4,3.4,5.1,7.4,5.1,12.2v275.5c0,9.5,7.7,17.2,17.2,17.2l0,0c4.7,0,8.8,1.7,12.2,5.1c3.4,3.4,5.1,7.4,5.1,12.2
		s-1.7,8.8-5.1,12.2c-3.4,3.4-7.4,5.1-12.2,5.1h-22.3C668.3,433.8,660.8,430.7,655.3,425.2L655.3,425.2z"/>
	<path class="st0" d="M1066.7,518.5c-9.4,0-17-7.6-17-17v-66.8c0-4.7,1.7-8.8,5.1-12.2c3.4-3.4,7.4-5.1,12.2-5.1s8.8,1.7,12.2,5.1
		c3.4,3.4,5.1,7.4,5.1,12.2l-0.4,66.8C1083.7,510.9,1076.1,518.5,1066.7,518.5L1066.7,518.5z"/>
	<path class="st0" d="M1016.4,467.7c0-9.4,7.6-17,17-17h66.8c4.7,0,8.8,1.7,12.2,5.1c3.4,3.4,5.1,7.4,5.1,12.2s-1.7,8.8-5.1,12.2
		c-3.4,3.4-7.4,5.1-12.2,5.1l-66.8-0.4C1024,484.7,1016.4,477.1,1016.4,467.7L1016.4,467.7z"/>
	<path class="st1" d="M915.3,374.9c4.7,0,8.8,1.7,12.2,5.1c3.4,3.4,5.1,7.4,5.1,12.2s-1.8,9-5.4,12.7
		c-22.2,19.4-48.4,29.1-78.6,29.1c-33.3,0-61.7-11.8-85.2-35.3C739.8,375,728,346.6,728,313.3c0-33.3,11.8-61.7,35.3-85.2
		c23.5-23.5,51.9-35.3,85.2-35.3c30.1,0,56.3,9.7,78.6,29.1c4,3.6,6,8,6,13.3c0,4.7-1.7,8.8-5.1,12.2c-3.4,3.4-7.4,5.1-12.2,5.1
		c-4.2,0-7.8-1.3-11-3.9c-16.1-14.2-34.9-21.3-56.4-21.3c-23.8,0-44.1,8.4-60.9,25.2s-25.2,37.1-25.2,60.9
		c0,23.8,8.4,44.1,25.2,60.9c16.8,16.8,37.1,25.2,60.9,25.2c21.5,0,40.3-7,56.2-21.1C907.7,376,911.2,374.9,915.3,374.9z"/>
	<path class="st0" d="M1188.1,313.3c0,33.3-11.8,61.7-35.3,85.2c-23.5,23.5-51.9,35.3-85.2,35.3c-33.3,0-61.7-11.8-85.2-35.3
		C958.8,375,947,346.6,947,313.3c0-33.3,11.8-61.7,35.3-85.2c23.5-23.5,51.9-35.3,85.2-35.3c33.3,0,61.7,11.8,85.2,35.3
		C1176.3,251.6,1188.1,280,1188.1,313.3z M1067.6,227.2c-23.8,0-44.1,8.4-60.9,25.2c-16.8,16.8-25.2,37.1-25.2,60.9
		c0,23.8,8.4,44.1,25.2,60.9c16.8,16.8,37.1,25.2,60.9,25.2c23.8,0,44.1-8.4,60.9-25.2c16.8-16.8,25.2-37.1,25.2-60.9
		c0-23.8-8.4-44.1-25.2-60.9C1111.7,235.6,1091.4,227.2,1067.6,227.2z"/>
	<path class="st1" d="M1407.1,106.2c0-4.7,1.7-8.8,5.1-12.2c3.4-3.4,7.4-5.1,12.2-5.1c4.7,0,8.8,1.7,12.2,5.1
		c3.4,3.4,5.1,7.4,5.1,12.2v207.1c0,33.3-11.8,61.7-35.3,85.2c-23.5,23.5-51.9,35.3-85.2,35.3c-33.3,0-61.7-11.8-85.2-35.3
		c-23.5-23.5-35.3-51.9-35.3-85.2c0-33.3,11.8-61.7,35.3-85.2c23.5-23.5,51.9-35.3,85.2-35.3c33.3,0,61.7,11.8,85.2,35.3
		c0.3,0.3,0.6,0.6,0.9,0.9V106.2z M1407.1,313.3c0-23.8-8.4-44.1-25.2-60.9c-16.8-16.8-37.1-25.2-60.9-25.2
		c-23.8,0-44.1,8.4-60.9,25.2c-16.8,16.8-25.2,37.1-25.2,60.9c0,23.8,8.4,44.1,25.2,60.9c16.8,16.8,37.1,25.2,60.9,25.2
		c23.8,0,44.1-8.4,60.9-25.2C1398.7,357.4,1407.1,337.1,1407.1,313.3z"/>
	<g>
		<path class="st1" d="M1659.8,228.1c-16.7-16.7-35.8-27.5-57.5-32.3c-8.8-2-18.1-3-27.8-3c-33.3,0-61.7,11.8-85.2,35.3
			c-23.5,23.5-35.3,52-35.3,85.2c0,33.3,11.8,61.7,35.3,85.2c23.5,23.5,51.9,35.3,85.2,35.3c30.1,0,56.3-9.7,78.6-29.1
			c3.3-3.4,5-7.5,5-12.3c0-4.7-1.7-8.8-5.1-12.2c-3.4-3.4-7.4-5.1-12.2-5.1c-4,0-7.6,1.2-10.8,3.7c-15.5,13.6-34,20.4-55.5,20.4
			c-23.8,0-44.1-8.4-60.9-25.2c-12.6-12.6-20.5-27.2-23.7-43.7h187.9c4.7,0,8.8-1.7,12.2-5.1c3.4-3.4,5-7.4,5-12.2
			C1695.1,280,1683.3,251.6,1659.8,228.1z M1489.9,296.1c3.2-16.5,11.1-31.1,23.7-43.7c16.8-16.8,37.1-25.2,60.9-25.2
			c9,0,17.5,1.2,25.5,3.6c13.2,3.9,25,11.1,35.4,21.6c12.6,12.6,20.5,27.2,23.7,43.7H1489.9z"/>
		<path class="st2" d="M1661.8,372.2c1.6,2.3,3.3,4.5,4.9,6.7C1665.5,376.5,1663.8,374.3,1661.8,372.2z"/>
	</g>
	<g>
		<path class="st1" d="M1892,408.3c1.4,2.5,2.1,5.2,2.1,8.3c0,4.7-1.7,8.8-5,12.2c-3.4,3.4-7.4,5.1-12.2,5.1h-172.2
			c-4.7,0-8.8-1.7-12.2-5.1c-3.4-3.4-5.1-7.4-5.1-12.2c0-3.2,0.7-6,2.2-8.6c0.4-0.7,0.8-1.3,1.3-2l149.2-178.9h-135.4
			c-4.7,0-8.8-1.7-12.2-5.1c-3.4-3.4-5.1-7.4-5.1-12.2c0-4.7,1.7-8.8,5.1-12.2c3.4-3.4,7.4-5.1,12.2-5.1h172.2
			c4.7,0,8.8,1.7,12.2,5.1c3.4,3.4,5,7.4,5,12.2c0,4.3-1.4,8-4.1,11.2l-148.7,178.2h135.6c4.7,0,8.8,1.7,12.2,5.1
			C1890.2,405.7,1891.2,406.9,1892,408.3z"/>
	</g>
</g>
</svg>
