<svg xmlns="http://www.w3.org/2000/svg" xml:space="preserve" style="enable-background:new 0 0 340 340" viewBox="0 0 340 340"><style>.st0,.st1,.st2{fill:none;stroke:#f54838;stroke-width:6;stroke-miterlimit:10}.st1,.st2{stroke:#edf2f7;stroke-linecap:round;stroke-linejoin:round}.st2{stroke:#f54838}</style><g id="Layer_3"><path d="M70.4 131.7v82.5C33.2 204.6 9.3 189.7 9.3 173c0-16.7 23.9-31.6 61.1-41.3zM330.7 173c0 16.7-23.9 31.6-61.2 41.3v-82.5c37.3 9.6 61.2 24.5 61.2 41.2zM82.2 98.3c-7.7-32.6-5.8-56.9 7.5-64.5 17-9.8 48.2 10.1 80.4 47.7 4.5 5.3 9 10.9 13.5 16.8H82.2zM250.4 312.2c-17 9.8-48.2-10.1-80.3-47.7-4.5-5.3-9-10.9-13.5-16.8H258c7.5 32.5 5.6 56.8-7.6 64.5z" class="st0"/><path d="M183.5 247.7c-4.5 5.9-9 11.6-13.5 16.8-32.2 37.6-63.4 57.5-80.4 47.7-13.3-7.7-15.2-32-7.5-64.5h101.4zM257.8 98.3H156.5c4.5-5.9 9-11.6 13.5-16.8 32.1-37.6 63.4-57.5 80.3-47.7 13.3 7.7 15.2 32 7.5 64.5z" class="st0"/></g><g id="Layer_2"><path d="M261.9 247.7H78.1c-4.2 0-7.7-3.5-7.7-7.7V106c0-4.2 3.5-7.7 7.7-7.7h183.8c4.2 0 7.7 3.5 7.7 7.7v134c0 4.2-3.5 7.7-7.7 7.7z" class="st1"/><path d="m70.4 120.3 86.5 64.9c7.7 5.8 18.3 5.8 26.1 0l86.5-64.9M269.6 234.7l-73.8-59.1M144.2 175.6l-73.8 59.1" class="st1"/></g><g id="Layer_4"><path d="M133.6 147.7h-2.9c-3.3 0-6-3.5-6-7.7v-23.9c0-4.3 2.7-7.7 6-7.7h7.7c3.3 0 6 3.5 6 7.7l-4.8 23.9c-1.1 4.4-2.7 7.7-6 7.7zM206.4 147.7h2.9c3.3 0 6-3.5 6-7.7v-23.9c0-4.3-2.7-7.7-6-7.7h-7.7c-3.3 0-6 3.5-6 7.7l4.8 23.9c1.1 4.4 2.7 7.7 6 7.7z" class="st2"/><path d="M195.8 116.7s-13.7-2.4-20.7-2.3c-7 .1-18 11.6-15.4 17.4 2.3 5.2 7.8 2.1 9.6.8 2.4-1.8 4.5-5.4 6.9-3.8 2.4 1.6 14.8 17.2 17.9 23.2M194.1 152.1c1.5 3.3-1.9 8.7-7.9 4.5-3.2-2.2-11.8-13.3-11.8-13.3M190.2 159.2c1.5 3.3-3.2 10.4-8.7 6.3-3.1-2.3-14.3-14.7-14.3-14.7M179.8 164.2c1.5 3.3-.9 9.6-8.2 4.7-3.2-2.2-11-10.6-11-10.6" class="st2"/><path d="M173.6 170.7s-4.8 5-9.1 3.8c-2.3-.6-8.5-5-16.6-16.5-5.9-8.3-8.9-16-8.9-16M144.4 116.1h24.4M201.4 143.3l-9.8 4.4" class="st2"/></g></svg>