<?xml version="1.0" encoding="utf-8"?>
<!-- Generator: Adobe Illustrator 23.0.1, SVG Export Plug-In . SVG Version: 6.00 Build 0)  -->
<svg version="1.1" xmlns="http://www.w3.org/2000/svg" xmlns:xlink="http://www.w3.org/1999/xlink" x="0px" y="0px"
	 viewBox="0 0 340 340" style="enable-background:new 0 0 340 340;" xml:space="preserve">
<style type="text/css">
	.st0{fill:none;stroke:#F54838;stroke-width:6;stroke-miterlimit:10;}
	.st1{fill:none;stroke:#EDF2F7;stroke-width:6;stroke-linecap:round;stroke-linejoin:round;stroke-miterlimit:10;}
	.st2{fill:none;stroke:#F54838;stroke-width:6;stroke-linecap:round;stroke-linejoin:round;stroke-miterlimit:10;}
</style>
<g id="Layer_3">
	<g>
		<path class="st0" d="M70.4,131.7v82.5C33.2,204.6,9.3,189.7,9.3,173C9.3,156.3,33.2,141.4,70.4,131.7z"/>
		<path class="st0" d="M330.7,173c0,16.7-23.9,31.6-61.2,41.3v-82.5C306.8,141.4,330.7,156.3,330.7,173z"/>
		<path class="st0" d="M82.2,98.3c-7.7-32.6-5.8-56.9,7.5-64.5c17-9.8,48.2,10.1,80.4,47.7c4.5,5.3,9,10.9,13.5,16.8H82.2z"/>
		<path class="st0" d="M250.4,312.2c-17,9.8-48.2-10.1-80.3-47.7c-4.5-5.3-9-10.9-13.5-16.8h101.4
			C265.5,280.2,263.6,304.5,250.4,312.2z"/>
		<path class="st0" d="M183.5,247.7c-4.5,5.9-9,11.6-13.5,16.8c-32.2,37.6-63.4,57.5-80.4,47.7c-13.3-7.7-15.2-32-7.5-64.5H183.5z"
			/>
		<path class="st0" d="M257.8,98.3H156.5c4.5-5.9,9-11.6,13.5-16.8c32.1-37.6,63.4-57.5,80.3-47.7C263.6,41.5,265.5,65.8,257.8,98.3
			z"/>
	</g>
</g>
<g id="Layer_2">
	<path class="st1" d="M261.9,247.7H78.1c-4.2,0-7.7-3.5-7.7-7.7V106c0-4.2,3.5-7.7,7.7-7.7h183.8c4.2,0,7.7,3.5,7.7,7.7v134
		C269.6,244.2,266.1,247.7,261.9,247.7z"/>
	<path class="st1" d="M70.4,120.3l86.5,64.9c7.7,5.8,18.3,5.8,26.1,0l86.5-64.9"/>
	<line class="st1" x1="269.6" y1="234.7" x2="195.8" y2="175.6"/>
	<line class="st1" x1="144.2" y1="175.6" x2="70.4" y2="234.7"/>
</g>
<g id="Layer_4">
	<path class="st2" d="M133.6,147.7h-2.9c-3.3,0-6-3.5-6-7.7v-23.9c0-4.3,2.7-7.7,6-7.7h7.7c3.3,0,6,3.5,6,7.7l-4.8,23.9
		C138.5,144.4,136.9,147.7,133.6,147.7z"/>
	<path class="st2" d="M206.4,147.7h2.9c3.3,0,6-3.5,6-7.7v-23.9c0-4.3-2.7-7.7-6-7.7h-7.7c-3.3,0-6,3.5-6,7.7l4.8,23.9
		C201.5,144.4,203.1,147.7,206.4,147.7z"/>
	<path class="st2" d="M195.8,116.7c0,0-13.7-2.4-20.7-2.3c-7,0.1-18,11.6-15.4,17.4c2.3,5.2,7.8,2.1,9.6,0.8
		c2.4-1.8,4.5-5.4,6.9-3.8c2.4,1.6,14.8,17.2,17.9,23.2"/>
	<path class="st2" d="M194.1,152.1c1.5,3.3-1.9,8.7-7.9,4.5c-3.2-2.2-11.8-13.3-11.8-13.3"/>
	<path class="st2" d="M190.2,159.2c1.5,3.3-3.2,10.4-8.7,6.3c-3.1-2.3-14.3-14.7-14.3-14.7"/>
	<path class="st2" d="M179.8,164.2c1.5,3.3-0.9,9.6-8.2,4.7c-3.2-2.2-11-10.6-11-10.6"/>
	<path class="st2" d="M173.6,170.7c0,0-4.8,5-9.1,3.8c-2.3-0.6-8.5-5-16.6-16.5c-5.9-8.3-8.9-16-8.9-16"/>
	<line class="st2" x1="144.4" y1="116.1" x2="168.8" y2="116.1"/>
	<line class="st2" x1="201.4" y1="143.3" x2="191.6" y2="147.7"/>
</g>
</svg>
