<?xml version="1.0" encoding="utf-8"?>
<!-- Generator: Adobe Illustrator 23.0.1, SVG Export Plug-In . SVG Version: 6.00 Build 0)  -->
<svg version="1.1" id="Layer_1" xmlns="http://www.w3.org/2000/svg" xmlns:xlink="http://www.w3.org/1999/xlink" x="0px" y="0px"
	 viewBox="0 0 71 71" style="enable-background:new 0 0 71 71;" xml:space="preserve">
<style type="text/css">
	.st0{fill:#EDF2F7;}
</style>
<path class="st0" d="M60.1,12.9c-4.53-2.08-9.38-3.61-14.45-4.48c-0.09-0.02-0.18,0.03-0.23,0.11c-0.62,1.11-1.32,2.56-1.8,3.7
	c-5.46-0.82-10.89-0.82-16.23,0c-0.48-1.16-1.2-2.59-1.83-3.7c-0.05-0.08-0.14-0.12-0.23-0.11c-5.07,0.87-9.92,2.4-14.45,4.48
	c-0.04,0.02-0.07,0.05-0.1,0.08C1.58,26.73-0.94,40.14,0.29,53.39c0.01,0.06,0.04,0.13,0.09,0.17c6.07,4.46,11.96,7.17,17.73,8.96
	c0.09,0.03,0.19-0.01,0.25-0.08c1.37-1.87,2.58-3.83,3.63-5.9c0.06-0.12,0-0.26-0.12-0.31c-1.93-0.73-3.77-1.63-5.54-2.64
	c-0.14-0.08-0.15-0.28-0.02-0.38c0.37-0.28,0.74-0.57,1.1-0.86c0.06-0.05,0.15-0.06,0.23-0.03c11.62,5.31,24.2,5.31,35.68,0
	c0.08-0.04,0.17-0.03,0.23,0.03c0.36,0.29,0.73,0.59,1.1,0.86c0.13,0.1,0.12,0.3-0.02,0.38c-1.77,1.03-3.61,1.91-5.54,2.64
	c-0.13,0.05-0.18,0.19-0.12,0.32c1.07,2.07,2.28,4.03,3.62,5.9c0.06,0.08,0.16,0.11,0.25,0.08c5.8-1.79,11.68-4.5,17.76-8.96
	c0.05-0.04,0.09-0.1,0.09-0.16c1.48-15.32-2.48-28.62-10.5-40.41C60.18,12.94,60.14,12.91,60.1,12.9z M23.73,45.33
	c-3.5,0-6.38-3.21-6.38-7.16s2.83-7.16,6.38-7.16c3.58,0,6.44,3.24,6.38,7.16C30.11,42.11,27.28,45.33,23.73,45.33z M47.32,45.33
	c-3.5,0-6.38-3.21-6.38-7.16s2.83-7.16,6.38-7.16c3.58,0,6.44,3.24,6.38,7.16C53.7,42.11,50.9,45.33,47.32,45.33z"/>
</svg>
