<svg xmlns="http://www.w3.org/2000/svg" xml:space="preserve" style="enable-background:new 0 0 71 71" viewBox="0 0 71 71"><path d="M60.1 12.9a58.231 58.231 0 0 0-14.45-4.48c-.09-.02-.18.03-.23.11a40.62 40.62 0 0 0-1.8 3.7c-5.46-.82-10.89-.82-16.23 0-.48-1.16-1.2-2.59-1.83-3.7a.239.239 0 0 0-.23-.11c-5.07.87-9.92 2.4-14.45 4.48-.04.02-.07.05-.1.08C1.58 26.73-.94 40.14.29 53.39c.01.06.04.13.09.17 6.07 4.46 11.96 7.17 17.73 8.96.09.03.19-.01.25-.08a42.46 42.46 0 0 0 3.63-5.9c.06-.12 0-.26-.12-.31-1.93-.73-3.77-1.63-5.54-2.64a.23.23 0 0 1-.02-.38c.37-.28.74-.57 1.1-.86.06-.05.15-.06.23-.03 11.62 5.31 24.2 5.31 35.68 0 .08-.04.17-.03.23.03.36.29.73.59 1.1.86.13.1.12.3-.02.38a37.024 37.024 0 0 1-5.54 2.64c-.13.05-.18.19-.12.32 1.07 2.07 2.28 4.03 3.62 5.9.06.08.16.11.25.08 5.8-1.79 11.68-4.5 17.76-8.96.05-.04.09-.1.09-.16 1.48-15.32-2.48-28.62-10.5-40.41a.118.118 0 0 0-.09-.1zM23.73 45.33c-3.5 0-6.38-3.21-6.38-7.16s2.83-7.16 6.38-7.16c3.58 0 6.44 3.24 6.38 7.16 0 3.94-2.83 7.16-6.38 7.16zm23.59 0c-3.5 0-6.38-3.21-6.38-7.16s2.83-7.16 6.38-7.16c3.58 0 6.44 3.24 6.38 7.16 0 3.94-2.8 7.16-6.38 7.16z" style="fill:#edf2f7"/></svg>