<?xml version="1.0" encoding="utf-8"?>
<!-- Generator: Adobe Illustrator 23.0.1, SVG Export Plug-In . SVG Version: 6.00 Build 0)  -->
<svg version="1.1" id="Layer_1" xmlns="http://www.w3.org/2000/svg" xmlns:xlink="http://www.w3.org/1999/xlink" x="0px" y="0px"
	 viewBox="0 0 171 171" style="enable-background:new 0 0 171 171;" xml:space="preserve">
<style type="text/css">
	.st0{fill:#EDF2F7;}
</style>
<g>
	<ellipse transform="matrix(0.7071 -0.7071 0.7071 0.7071 -47.4492 74.2474)" class="st0" cx="65.9" cy="94.4" rx="8.9" ry="8.9"/>
	<path class="st0" d="M106.9,114.6c0.7,1,0.7,2.4-0.2,3.3c-6.1,6.1-17.7,6.5-21.1,6.5s-15.1-0.5-21.1-6.5c-0.9-0.9-0.9-2.4,0-3.3
		c0.9-0.9,2.4-0.9,3.3,0c3.8,3.8,12,5.2,17.9,5.2c5.9,0,14-1.4,17.9-5.2C104.5,113.7,106,113.7,106.9,114.6z"/>
	<ellipse transform="matrix(0.9239 -0.3827 0.3827 0.9239 -28.125 47.4057)" class="st0" cx="105.1" cy="94.4" rx="8.9" ry="8.9"/>
	<path class="st0" d="M85.5,0C38.28,0,0,38.28,0,85.5C0,132.72,38.28,171,85.5,171c47.22,0,85.5-38.28,85.5-85.5
		C171,38.28,132.72,0,85.5,0z M135.3,97c0.2,1.2,0.3,2.4,0.3,3.7c0,19.2-22.3,34.7-49.9,34.7c-27.6,0-49.9-15.5-49.9-34.7
		c0-1.3,0.1-2.6,0.3-3.8c-4.4-2-7.4-6.3-7.4-11.4c0-6.9,5.6-12.5,12.5-12.5c3.3,0,6.4,1.4,8.6,3.5c8.6-6.3,20.5-10.2,33.8-10.6
		l6.3-29.8c0.2-0.6,0.5-1.1,1-1.4c0.5-0.3,1.1-0.4,1.7-0.3l20.7,4.4c1.4-3,4.4-5,7.9-5c4.9,0,8.9,4,8.9,8.9c0,4.9-4,8.9-8.9,8.9
		c-4.8,0-8.7-3.8-8.9-8.5l-18.5-3.9l-5.7,26.7c13,0.5,24.8,4.5,33.3,10.6c2.2-2.2,5.2-3.5,8.6-3.5c6.9,0,12.5,5.6,12.5,12.5
		C142.5,90.6,139.4,95,135.3,97z"/>
</g>
</svg>
