<svg xmlns="http://www.w3.org/2000/svg" xml:space="preserve" id="Layer_1" x="0" y="0" style="enable-background:new 0 0 171 171" version="1.1" viewBox="0 0 171 171"><style>.st0{fill:#edf2f7}</style><circle cx="65.9" cy="94.4" r="8.9" class="st0" transform="rotate(-45.001 65.9 94.401)"/><path d="M106.9 114.6c.7 1 .7 2.4-.2 3.3-6.1 6.1-17.7 6.5-21.1 6.5s-15.1-.5-21.1-6.5c-.9-.9-.9-2.4 0-3.3.9-.9 2.4-.9 3.3 0 3.8 3.8 12 5.2 17.9 5.2 5.9 0 14-1.4 17.9-5.2.9-.9 2.4-.9 3.3 0z" class="st0"/><circle cx="105.1" cy="94.4" r="8.9" class="st0" transform="rotate(-22.5 105.095 94.396)"/><path d="M85.5 0C38.28 0 0 38.28 0 85.5S38.28 171 85.5 171 171 132.72 171 85.5 132.72 0 85.5 0zm49.8 97c.2 1.2.3 2.4.3 3.7 0 19.2-22.3 34.7-49.9 34.7-27.6 0-49.9-15.5-49.9-34.7 0-1.3.1-2.6.3-3.8-4.4-2-7.4-6.3-7.4-11.4 0-6.9 5.6-12.5 12.5-12.5 3.3 0 6.4 1.4 8.6 3.5 8.6-6.3 20.5-10.2 33.8-10.6l6.3-29.8c.2-.6.5-1.1 1-1.4.5-.3 1.1-.4 1.7-.3l20.7 4.4c1.4-3 4.4-5 7.9-5 4.9 0 8.9 4 8.9 8.9s-4 8.9-8.9 8.9c-4.8 0-8.7-3.8-8.9-8.5l-18.5-3.9-5.7 26.7c13 .5 24.8 4.5 33.3 10.6 2.2-2.2 5.2-3.5 8.6-3.5 6.9 0 12.5 5.6 12.5 12.5 0 5.1-3.1 9.5-7.2 11.5z" class="st0"/></svg>