<svg xmlns="http://www.w3.org/2000/svg" xmlns:xlink="http://www.w3.org/1999/xlink" xml:space="preserve" style="enable-background:new 0 0 400 400" viewBox="0 0 400 400"><defs><path id="a" d="M0 0h400v400H0z"/></defs><clipPath id="b"><use xlink:href="#a" style="overflow:visible"/></clipPath><path d="M200 0C89.54 0 0 89.54 0 200s89.54 200 200 200 200-89.54 200-200S310.46 0 200 0m100.45 162.08c.1 2.07.14 4.15.14 6.23 0 63.71-48.5 137.18-137.18 137.18-27.23 0-52.57-7.98-73.9-21.66 3.77.45 7.61.67 11.5.67 22.59 0 43.38-7.71 59.88-20.64-21.11-.39-38.9-14.33-45.04-33.49 2.94.56 5.96.87 9.06.87 4.4 0 8.66-.6 12.71-1.7-22.06-4.42-38.68-23.91-38.68-47.27 0-.21 0-.41.01-.62 6.5 3.62 13.93 5.79 21.84 6.03-12.94-8.64-21.46-23.4-21.46-40.13 0-8.83 2.39-17.11 6.53-24.23 23.78 29.17 59.31 48.36 99.38 50.37-.83-3.53-1.25-7.21-1.25-10.99 0-26.62 21.59-48.21 48.22-48.21 13.86 0 26.39 5.86 35.19 15.23a96.537 96.537 0 0 0 30.61-11.7c-3.6 11.26-11.25 20.7-21.2 26.67 9.75-1.17 19.05-3.75 27.69-7.59a97.83 97.83 0 0 1-24.05 24.98" style="clip-path:url(#b);fill:#edf2f7"/></svg>