<?xml version="1.0" encoding="utf-8"?>
<!-- Generator: Adobe Illustrator 23.0.1, SVG Export Plug-In . SVG Version: 6.00 Build 0)  -->
<svg version="1.1" id="Layer_1" xmlns="http://www.w3.org/2000/svg" xmlns:xlink="http://www.w3.org/1999/xlink" x="0px" y="0px"
	 viewBox="0 0 400 400" style="enable-background:new 0 0 400 400;" xml:space="preserve">
<style type="text/css">
	.st0{clip-path:url(#SVGID_2_);fill:#EDF2F7;}
</style>
<g>
	<defs>
		<rect id="SVGID_1_" width="400" height="400"/>
	</defs>
	<clipPath id="SVGID_2_">
		<use xlink:href="#SVGID_1_"  style="overflow:visible;"/>
	</clipPath>
	<path class="st0" d="M200,0C89.54,0,0,89.54,0,200s89.54,200,200,200s200-89.54,200-200S310.46,0,200,0 M300.45,162.08
		c0.1,2.07,0.14,4.15,0.14,6.23c0,63.71-48.5,137.18-137.18,137.18c-27.23,0-52.57-7.98-73.9-21.66c3.77,0.45,7.61,0.67,11.5,0.67
		c22.59,0,43.38-7.71,59.88-20.64c-21.11-0.39-38.9-14.33-45.04-33.49c2.94,0.56,5.96,0.87,9.06,0.87c4.4,0,8.66-0.6,12.71-1.7
		c-22.06-4.42-38.68-23.91-38.68-47.27c0-0.21,0-0.41,0.01-0.62c6.5,3.62,13.93,5.79,21.84,6.03c-12.94-8.64-21.46-23.4-21.46-40.13
		c0-8.83,2.39-17.11,6.53-24.23c23.78,29.17,59.31,48.36,99.38,50.37c-0.83-3.53-1.25-7.21-1.25-10.99
		c0-26.62,21.59-48.21,48.22-48.21c13.86,0,26.39,5.86,35.19,15.23c10.98-2.16,21.3-6.18,30.61-11.7
		c-3.6,11.26-11.25,20.7-21.2,26.67c9.75-1.17,19.05-3.75,27.69-7.59C318.04,146.79,309.86,155.28,300.45,162.08"/>
</g>
</svg>
