<svg xmlns="http://www.w3.org/2000/svg" xml:space="preserve" style="enable-background:new 0 0 121.48 121.49" viewBox="0 0 121.48 121.49"><path d="M118.95 31.51c-1.4-5.23-5.51-9.34-10.74-10.74-9.47-2.54-47.46-2.54-47.46-2.54s-37.99 0-47.46 2.54c-5.23 1.4-9.34 5.51-10.74 10.74C0 40.98 0 60.75 0 60.75s0 19.77 2.54 29.24c1.4 5.23 5.51 9.34 10.74 10.74 9.47 2.54 47.46 2.54 47.46 2.54s37.99 0 47.46-2.54c5.23-1.4 9.34-5.51 10.74-10.74 2.54-9.47 2.54-29.24 2.54-29.24s0-19.77-2.53-29.24zM48.59 78.97V42.52l31.56 18.22-31.56 18.23z" style="fill:#edf2f7"/></svg>