<?xml version="1.0" encoding="utf-8"?>
<!-- Generator: Adobe Illustrator 23.0.1, SVG Export Plug-In . SVG Version: 6.00 Build 0)  -->
<svg version="1.1" id="Layer_1" xmlns="http://www.w3.org/2000/svg" xmlns:xlink="http://www.w3.org/1999/xlink" x="0px" y="0px"
	 viewBox="0 0 121.48 121.49" style="enable-background:new 0 0 121.48 121.49;" xml:space="preserve">
<style type="text/css">
	.st0{fill:#EDF2F7;}
</style>
<path class="st0" d="M118.95,31.51c-1.4-5.23-5.51-9.34-10.74-10.74c-9.47-2.54-47.46-2.54-47.46-2.54s-37.99,0-47.46,2.54
	c-5.23,1.4-9.34,5.51-10.74,10.74C0,40.98,0,60.75,0,60.75s0,19.77,2.54,29.24c1.4,5.23,5.51,9.34,10.74,10.74
	c9.47,2.54,47.46,2.54,47.46,2.54s37.99,0,47.46-2.54c5.23-1.4,9.34-5.51,10.74-10.74c2.54-9.47,2.54-29.24,2.54-29.24
	S121.48,40.98,118.95,31.51z M48.59,78.97V42.52l31.56,18.22L48.59,78.97z"/>
</svg>
