<?xml version="1.0" encoding="utf-8"?>
<!-- Generator: Adobe Illustrator 23.0.1, SVG Export Plug-In . SVG Version: 6.00 Build 0)  -->
<svg version="1.1" id="Layer_3" xmlns="http://www.w3.org/2000/svg" xmlns:xlink="http://www.w3.org/1999/xlink" x="0px" y="0px"
	 viewBox="0 0 340 340" style="enable-background:new 0 0 340 340;" xml:space="preserve">
<style type="text/css">
	.st0{fill:none;stroke:#F54838;stroke-width:18;stroke-miterlimit:10;}
	.st1{fill:#EDF2F7;}
</style>
<g>
	<ellipse class="st0" cx="170" cy="173" rx="160.7" ry="52.6"/>
	<ellipse transform="matrix(0.866 -0.5 0.5 0.866 -63.7227 108.1771)" class="st0" cx="170" cy="173" rx="52.6" ry="160.7"/>
	<ellipse transform="matrix(0.5 -0.866 0.866 0.5 -64.8195 233.7227)" class="st0" cx="170" cy="173" rx="160.7" ry="52.6"/>
</g>
<g>
	<polygon class="st1" points="254.9,256.5 170,62.9 84.6,256.5 59.1,256.5 162.2,21.3 177.3,21.3 280.4,256.5 	"/>
	<path class="st1" d="M174,26.3l98.7,225.2h-14.6L170,50.5l-88.7,201H66.8l98.7-225.2H174 M180.6,16.3H174h-8.6h-6.5l-2.6,6
		L57.6,247.5l-6.1,14h15.3h14.6h6.5l2.6-6L170,75.3l79,180.2l2.6,6h6.5h14.6H288l-6.1-14L183.2,22.3L180.6,16.3L180.6,16.3z"/>
</g>
<ellipse class="st1" cx="170" cy="173" rx="20.3" ry="21"/>
</svg>
