<svg xmlns="http://www.w3.org/2000/svg" xml:space="preserve" id="Layer_3" x="0" y="0" style="enable-background:new 0 0 340 340" version="1.1" viewBox="0 0 340 340"><style>.st0{fill:none;stroke:#f54838;stroke-width:18;stroke-miterlimit:10}.st1{fill:#edf2f7}</style><ellipse cx="170" cy="173" class="st0" rx="160.7" ry="52.6"/><ellipse cx="170" cy="173" class="st0" rx="52.6" ry="160.7" transform="rotate(-30 169.99 173.003)"/><ellipse cx="170" cy="173" class="st0" rx="160.7" ry="52.6" transform="rotate(-60 170.002 173.003)"/><path d="M254.9 256.5 170 62.9 84.6 256.5H59.1L162.2 21.3h15.1l103.1 235.2z" class="st1"/><path d="m174 26.3 98.7 225.2h-14.6L170 50.5l-88.7 201H66.8l98.7-225.2h8.5m6.6-10h-21.7l-2.6 6-98.7 225.2-6.1 14h36.4l2.6-6L170 75.3l79 180.2 2.6 6H288l-6.1-14-98.7-225.2-2.6-6z" class="st1"/><ellipse cx="170" cy="173" class="st1" rx="20.3" ry="21"/></svg>