<svg xmlns="http://www.w3.org/2000/svg" viewBox="0 0 306.71 284.74"><defs><style>.cls-1,.cls-5{fill:#fbfffe;}.cls-2,.cls-3{fill:#071e22;}.cls-3{stroke:#17bebb;}.cls-3,.cls-4,.cls-5{stroke-miterlimit:10;}.cls-3,.cls-4{stroke-width:6px;}.cls-4{fill:none;stroke:#e4572e;}.cls-5{stroke:#fff;stroke-width:3px;}.cls-6{fill:#17bebb;}</style></defs><title>favicon</title><g id="Layer_3" data-name="Layer 3"><path class="cls-1" d="M235.82,239.63a6,6,0,0,1-5.5-3.59l-77-175.56L75.89,236.05a6,6,0,0,1-5.49,3.58H56.77a6,6,0,0,1-5.5-8.41L143.59,20.58a6,6,0,0,1,5.49-3.6h8a6,6,0,0,1,5.5,3.6l92.31,210.64a6,6,0,0,1-5.5,8.41Z" transform="translate(0 -10.98)"/><path class="cls-2" d="M157.13,23l92.31,210.65H235.82L153.35,45.57,70.4,233.63H56.77L149.08,23h8m0-12h-8a12,12,0,0,0-11,7.19L45.78,228.81a12,12,0,0,0,11,16.82H70.4a12,12,0,0,0,11-7.16L153.32,75.38l71.51,163.07a12,12,0,0,0,11,7.18h13.62a12,12,0,0,0,11-16.82L168.12,18.17a12,12,0,0,0-11-7.19Z" transform="translate(0 -10.98)"/><ellipse class="cls-3" cx="153.35" cy="149.21" rx="150.35" ry="49.17"/><ellipse class="cls-3" cx="153.35" cy="160.19" rx="49.17" ry="150.35" transform="translate(-59.55 87.15) rotate(-30)"/><ellipse class="cls-3" cx="153.35" cy="160.19" rx="150.35" ry="49.17" transform="translate(-62.05 201.92) rotate(-60)"/><ellipse class="cls-4" cx="153.35" cy="149.21" rx="150.35" ry="49.17"/><ellipse class="cls-4" cx="153.35" cy="160.19" rx="49.17" ry="150.35" transform="translate(-59.55 87.15) rotate(-30)"/><ellipse class="cls-4" cx="153.35" cy="160.19" rx="150.35" ry="49.17" transform="translate(-62.05 201.92) rotate(-60)"/><polygon class="cls-1" points="149.08 12 157.13 12 249.44 222.64 235.81 222.64 153.35 34.59 70.4 222.64 56.77 222.64 149.08 12"/></g><g id="Layer_2" data-name="Layer 2"><path class="cls-5" d="M153.35,45.57" transform="translate(0 -10.98)"/><path class="cls-5" d="M153.11,44.67" transform="translate(0 -10.98)"/><ellipse class="cls-6" cx="153.35" cy="149.21" rx="19.02" ry="19.62"/></g></svg>