<?xml version="1.0" encoding="utf-8"?><svg viewBox="0 0 1000.03 1000" xmlns="http://www.w3.org/2000/svg" xmlns:xlink="http://www.w3.org/1999/xlink"><style>:root>svg{display:none}:root>svg:target{display:block}</style><svg viewBox="0 0 1000.033 1000" id="about" xmlns="http://www.w3.org/2000/svg"><defs><style>.abb{fill:none;stroke:#edf2f7;stroke-linecap:round;stroke-miterlimit:10;stroke-width:40px}</style></defs><path d="M350.049 206.848a40.671 40.671 0 0 1 37.557 25.098L506.68 519.422a17.304 17.304 0 0 0 16.353 11.091c9.082 0 18.144-6.584 18.144-17.952l.002-46.71a47.813 47.813 0 1 1 95.625 0s-9.807 129.42-.005 170.437c9.803 41.017 80.523 194.398-189.294 306.16 0 0-42.369 17.552-95.972 17.552-62.86 0-141.162-24.155-184.623-129.078-48.677-117.516-58.3-140.75-58.297-140.747.002.001 2.36 5.695 3.51 8.468l.008.022-.009-.022-69.019-166.617a40.64 40.64 0 1 1 75.094-31.105l62.746 151.49a17.998 17.998 0 0 0 33.25-13.788L107.994 382.22a40.64 40.64 0 1 1 75.094-31.105l99.32 239.786a17.998 17.998 0 0 0 33.252-13.786L190.69 275.41a40.64 40.64 0 1 1 75.094-31.105L383.87 529.39a17.998 17.998 0 0 0 33.252-13.785L312.512 263.05a40.667 40.667 0 0 1 37.537-56.203m.001-40a80.813 80.813 0 0 0-66.194 34.559 80.668 80.668 0 0 0-131.811 84.871q-3.24-.26-6.515-.26a80.666 80.666 0 0 0-74.492 111.51l15.965 38.544q-3.163-.249-6.36-.25A80.65 80.65 0 0 0 6.149 547.334L71.647 705.45l.127.312.391.944 1.757 4.243 8.633 20.842 47.401 114.44c23.108 55.787 57.376 97.216 101.851 123.136 34.878 20.327 75.16 30.634 119.727 30.634 60.861 0 109.251-19.757 111.281-20.599 61.945-25.658 112.022-55.74 148.837-89.408 32.974-30.155 56.164-63.863 68.927-100.188 10.16-28.916 13.77-59.752 10.732-91.65-2.461-25.845-8.727-47.252-12.874-61.417-1.128-3.856-2.195-7.498-2.732-9.747-5.75-24.062-2.885-106.95.986-158.12l.114-1.507v-1.514a87.805 87.805 0 0 0-165.76-40.417L424.561 216.64a80.671 80.671 0 0 0-74.511-49.79Z" style="fill:#edf2f7" transform="translate(.033)"/><path d="M631.678 20c192.391 0 348.355 155.964 348.355 348.355" class="abb"/><path d="M631.678 136.118c128.261 0 232.237 103.976 232.237 232.237M631.678 252.237a116.118 116.118 0 0 1 116.119 116.118" class="abb"/></svg><svg xml:space="preserve" style="enable-background:new 0 0 1000 1000" viewBox="0 0 1000 1000" id="about-glyph" xmlns="http://www.w3.org/2000/svg"><style>.aast1{fill:none;stroke:#376480;stroke-width:40;stroke-linecap:round;stroke-miterlimit:10}</style><path id="aaLayer_2" d="M350.05 206.85c5.38 0 10.67 1.08 15.56 3.1 9.61 3.98 17.7 11.63 22 22l119.08 287.48c3.16 7.62 9.76 11.09 16.35 11.09 9.08 0 18.14-6.58 18.14-17.95v-46.71c0-26.41 21.4-47.81 47.81-47.81 13.21 0 25.16 5.35 33.81 14 8.65 8.66 14.01 20.61 14.01 33.81 0 0-9.81 129.42 0 170.44 9.8 41.02 80.52 194.4-189.29 306.16 0 0-42.37 17.55-95.97 17.55-62.86 0-141.16-24.15-184.62-129.08-48.68-117.52-58.3-140.75-58.3-140.75s2.36 5.7 3.51 8.47l.01.02c0-.01-.01-.02-.01-.02L43.1 532.03c-8.59-20.74 1.26-44.51 21.99-53.1a40.504 40.504 0 0 1 15.54-3.11c5.38 0 10.67 1.08 15.56 3.1 9.61 3.98 17.7 11.63 22 22l62.75 151.49c2.87 6.92 9.57 11.1 16.63 11.1a18 18 0 0 0 6.88-1.37c9.18-3.8 13.54-14.33 9.74-23.52l-106.2-256.4c-8.59-20.74 1.26-44.51 21.99-53.1a40.504 40.504 0 0 1 15.54-3.11c5.38 0 10.67 1.08 15.56 3.1 9.61 3.98 17.7 11.63 22 22L282.4 590.9c2.87 6.92 9.57 11.1 16.63 11.1 2.29 0 4.63-.44 6.88-1.38 9.18-3.8 13.54-14.33 9.74-23.51l-124.96-301.7c-8.59-20.74 1.26-44.51 21.99-53.1a40.504 40.504 0 0 1 15.54-3.11c5.38 0 10.67 1.08 15.56 3.1 9.61 3.98 17.7 11.63 22 22l118.09 285.09c2.87 6.93 9.57 11.11 16.63 11.11 2.3 0 4.63-.44 6.88-1.38 9.18-3.8 13.54-14.33 9.74-23.52L312.51 263.05c-8.59-20.74 1.26-44.51 21.99-53.1a40.69 40.69 0 0 1 15.55-3.1m0-40c-10.62 0-21 2.07-30.85 6.15-14.48 6-26.62 15.83-35.34 28.41-7.09-6.74-15.44-12.19-24.75-16.05-9.87-4.08-20.25-6.15-30.88-6.15-10.62 0-21 2.07-30.85 6.15-19.9 8.24-35.4 23.74-43.64 43.64-7.64 18.43-8.2 38.59-1.69 57.28a83 83 0 0 0-6.52-.26c-10.62 0-21 2.07-30.85 6.15-41.08 17.02-60.66 64.28-43.64 105.36L87 436.07c-2.11-.17-4.23-.25-6.36-.25-10.62 0-21 2.07-30.85 6.15-19.9 8.24-35.4 23.74-43.64 43.64-8.24 19.9-8.24 41.82 0 61.72l65.5 158.12c.04.1.08.21.13.31l.39.94 1.76 4.24 8.63 20.84 47.4 114.44c23.11 55.79 57.38 97.22 101.85 123.14 34.88 20.33 75.16 30.63 119.73 30.63 60.86 0 109.25-19.76 111.28-20.6 61.95-25.66 112.02-55.74 148.84-89.41 32.97-30.16 56.16-63.86 68.93-100.19 10.16-28.92 13.77-59.75 10.73-91.65-2.46-25.85-8.73-47.25-12.87-61.42-1.13-3.86-2.19-7.5-2.73-9.75-5.75-24.06-2.89-106.95.99-158.12l.11-1.51v-1.51c0-23.45-9.13-45.5-25.71-62.09-16.61-16.6-38.66-25.72-62.11-25.72-33.85 0-63.29 19.26-77.94 47.4l-86.48-208.79c-8.24-19.89-23.73-35.39-43.63-43.64-9.89-4.08-20.27-6.14-30.9-6.14z" style="fill:#376480"/><g id="aaLayer_3"><path d="M631.65 20C824.04 20 980 175.96 980 368.35" class="aast1"/><path d="M631.65 136.12c128.26 0 232.24 103.98 232.24 232.24M631.65 252.24c64.13 0 116.12 51.99 116.12 116.12" class="aast1"/></g></svg><svg viewBox="0 0 1000 1000" id="branding" xmlns="http://www.w3.org/2000/svg"><defs><style>.ada{fill:#edf2f7}</style></defs><path d="M960 40v460A460.132 460.132 0 0 1 76.133 679.04 459.853 459.853 0 0 1 500 40h460m40-40H500C223.858 0 0 223.858 0 500s223.858 500 500 500 500-223.858 500-500V0Z" class="ada"/><path d="M960 40v420A420.255 420.255 0 1 1 540 40h420m40-40H540C285.949 0 80 205.949 80 460s205.949 460 460 460 460-205.949 460-460V0Z" class="ada"/><path d="m451.238 204.808-74.56 510.384H540s163.323 0 163.323-127.596S540 460 540 460s163.323 0 163.323-127.596S540 204.808 540 204.808Z" style="fill:none;stroke:#edf2f7;stroke-linecap:round;stroke-linejoin:round;stroke-width:40px"/></svg><svg xml:space="preserve" style="enable-background:new 0 0 1000 1000" viewBox="0 0 1000 1000" id="branding-glyph" xmlns="http://www.w3.org/2000/svg"><style>.acst0{fill:#376480}</style><path id="acLayer_3" d="M960 40v460c0 62.12-12.16 122.36-36.13 179.04-23.17 54.77-56.34 103.97-98.6 146.23-42.26 42.26-91.46 75.43-146.23 98.6C622.36 947.84 562.12 960 500 960s-122.36-12.16-179.04-36.13c-54.77-23.17-103.97-56.34-146.23-98.6-42.26-42.26-75.43-91.46-98.6-146.23C52.16 622.36 40 562.12 40 500s12.16-122.36 36.13-179.04c23.17-54.77 56.34-103.97 98.6-146.23s91.46-75.43 146.23-98.6C377.64 52.16 437.88 40 500 40h460m40-40H500C223.86 0 0 223.86 0 500s223.86 500 500 500 500-223.86 500-500V0z" class="acst0"/><path id="acLayer_3_copy" d="M960 40v420c0 56.72-11.1 111.72-32.99 163.47-21.15 50.01-51.44 94.93-90.03 133.51-38.59 38.58-83.51 68.87-133.51 90.03C651.72 868.9 596.72 880 540 880s-111.72-11.1-163.47-32.99c-50.01-21.15-94.93-51.44-133.51-90.03-38.59-38.59-68.87-83.51-90.03-133.51C131.1 571.72 120 516.72 120 460s11.1-111.72 32.99-163.47c21.15-50.01 51.44-94.93 90.03-133.51s83.51-68.87 133.51-90.03C428.28 51.1 483.28 40 540 40h420m40-40H540C285.95 0 80 205.95 80 460s205.95 460 460 460 460-205.95 460-460V0z" class="acst0"/><path id="acLayer_2" d="m451.24 204.81-74.56 510.38H540s163.32 0 163.32-127.6S540 460 540 460s163.32 0 163.32-127.6S540 204.81 540 204.81h-88.76z" style="fill:none;stroke:#376480;stroke-width:40;stroke-linecap:round;stroke-linejoin:round;stroke-miterlimit:10"/></svg><svg xml:space="preserve" style="enable-background:new 0 0 71 71" viewBox="0 0 71 71" id="discord" xmlns="http://www.w3.org/2000/svg"><path d="M60.1 12.9a58.231 58.231 0 0 0-14.45-4.48c-.09-.02-.18.03-.23.11a40.62 40.62 0 0 0-1.8 3.7c-5.46-.82-10.89-.82-16.23 0-.48-1.16-1.2-2.59-1.83-3.7a.239.239 0 0 0-.23-.11c-5.07.87-9.92 2.4-14.45 4.48-.04.02-.07.05-.1.08C1.58 26.73-.94 40.14.29 53.39c.01.06.04.13.09.17 6.07 4.46 11.96 7.17 17.73 8.96.09.03.19-.01.25-.08a42.46 42.46 0 0 0 3.63-5.9c.06-.12 0-.26-.12-.31-1.93-.73-3.77-1.63-5.54-2.64a.23.23 0 0 1-.02-.38c.37-.28.74-.57 1.1-.86.06-.05.15-.06.23-.03 11.62 5.31 24.2 5.31 35.68 0 .08-.04.17-.03.23.03.36.29.73.59 1.1.86.13.1.12.3-.02.38a37.024 37.024 0 0 1-5.54 2.64c-.13.05-.18.19-.12.32 1.07 2.07 2.28 4.03 3.62 5.9.06.08.16.11.25.08 5.8-1.79 11.68-4.5 17.76-8.96.05-.04.09-.1.09-.16 1.48-15.32-2.48-28.62-10.5-40.41a.118.118 0 0 0-.09-.1zM23.73 45.33c-3.5 0-6.38-3.21-6.38-7.16s2.83-7.16 6.38-7.16c3.58 0 6.44 3.24 6.38 7.16 0 3.94-2.83 7.16-6.38 7.16zm23.59 0c-3.5 0-6.38-3.21-6.38-7.16s2.83-7.16 6.38-7.16c3.58 0 6.44 3.24 6.38 7.16 0 3.94-2.8 7.16-6.38 7.16z" style="fill:#edf2f7"/></svg><svg viewBox="0 0 500 500" id="expand" xmlns="http://www.w3.org/2000/svg"><path d="M140 480H20V360m340 120h120V360M140 20H20v120M360 20h120v120" style="fill:none;stroke:#edf2f7;stroke-linecap:round;stroke-linejoin:round;stroke-width:40px"/></svg><svg xml:space="preserve" style="enable-background:new 0 0 500 500" viewBox="0 0 500 500" id="expand-dark" xmlns="http://www.w3.org/2000/svg"><path d="M140 480H20V360m340 120h120V360M140 20H20v120M360 20h120v120" style="fill:none;stroke:#376480;stroke-width:40;stroke-linecap:round;stroke-linejoin:round;stroke-miterlimit:10"/></svg><svg viewBox="0 0 500 500" id="expand-hover" xmlns="http://www.w3.org/2000/svg"><path d="M140 480H20V360m340 120h120V360M140 20H20v120M360 20h120v120" style="fill:none;stroke:#f54838;stroke-linecap:round;stroke-linejoin:round;stroke-width:40px"/></svg><svg xml:space="preserve" style="enable-background:new 0 0 370 370" viewBox="0 0 370 370" id="external-glyph" xmlns="http://www.w3.org/2000/svg"><path d="M241 225v78.99c0 9.36-7.66 17.01-17.01 17.01H66.01C56.66 321 49 313.34 49 303.99V146.01c0-9.36 7.66-17.01 17.01-17.01H145m16 80L321 49m0 80V49h-80" style="fill:none;stroke:#f54838;stroke-width:30;stroke-linecap:round;stroke-linejoin:round;stroke-miterlimit:10"/></svg><svg viewBox="0 0 668.358 1000" id="games" xmlns="http://www.w3.org/2000/svg"><defs><style>.aja{fill:none;stroke:#edf2f7;stroke-miterlimit:10;stroke-width:40px}</style></defs><path d="m378.697 399.356 236.55 165.584a77.63 77.63 0 0 1 0 127.194l-236.55 165.584a77.63 77.63 0 0 1-89.036 0L53.112 692.134a77.63 77.63 0 0 1 0-127.194l236.55-165.584" class="aja"/><path d="M20 628.537V756.45a42.17 42.17 0 0 0 16.37 33.356l253.291 176.161a77.63 77.63 0 0 0 89.036 0l253.419-177.814a42.17 42.17 0 0 0 16.242-33.257V628.537M381.535 218.99v362.191a47.356 47.356 0 0 1-47.356 47.356 47.356 47.356 0 0 1-47.356-47.356V218.988" class="aja"/><circle cx="334.179" cy="125.12" r="105.12" class="aja"/><ellipse cx="164.67" cy="628.537" class="aja" rx="61.161" ry="51.583"/><path d="m378.697 399.356 236.55 165.584a77.63 77.63 0 0 1 0 127.194l-236.55 165.584a77.63 77.63 0 0 1-89.036 0L53.112 692.134a77.63 77.63 0 0 1 0-127.194l236.55-165.584" class="aja"/><path d="M20 628.537V756.45a42.17 42.17 0 0 0 16.37 33.356l253.291 176.161a77.63 77.63 0 0 0 89.036 0l253.419-177.814a42.17 42.17 0 0 0 16.242-33.257V628.537M381.535 218.99v362.191a47.356 47.356 0 0 1-47.356 47.356 47.356 47.356 0 0 1-47.356-47.356V218.988" class="aja"/><circle cx="334.179" cy="125.12" r="105.12" class="aja"/><ellipse cx="164.67" cy="628.537" class="aja" rx="61.161" ry="51.583"/></svg><svg xml:space="preserve" id="games-glyph" x="0" y="0" style="enable-background:new 0 0 1000 1000" version="1.1" viewBox="0 0 1000 1000" xmlns="http://www.w3.org/2000/svg"><style>.aist0,.aist1{fill:none;stroke:#edf2f7;stroke-width:40;stroke-miterlimit:10}.aist1{stroke:#376480}</style><path d="m544.52 399.36 236.55 165.58c22.07 15.45 33.11 39.52 33.11 63.6 0 24.07-11.04 48.14-33.11 63.6L544.52 857.72c-26.73 18.71-62.31 18.71-89.04 0L218.93 692.13c-22.07-15.45-33.11-39.52-33.11-63.6 0-24.07 11.04-48.14 33.11-63.6l236.55-165.58" class="aist0"/><path d="M185.82 628.54v127.91c0 13.05 6.04 25.37 16.37 33.36l253.29 176.16c26.73 18.71 62.31 18.71 89.04 0l253.42-177.81a42.165 42.165 0 0 0 16.24-33.26V628.54" class="aist0"/><path d="M547.36 218.99v362.19c0 26.15-21.2 47.36-47.36 47.36-26.15 0-47.36-21.2-47.36-47.36V218.99" class="aist0"/><circle cx="500" cy="125.12" r="105.12" class="aist0"/><ellipse cx="330.49" cy="628.54" class="aist0" rx="61.16" ry="51.58"/><path d="m544.52 399.36 236.55 165.58c22.07 15.45 33.11 39.52 33.11 63.6 0 24.07-11.04 48.14-33.11 63.6L544.52 857.72c-26.73 18.71-62.31 18.71-89.04 0L218.93 692.13c-22.07-15.45-33.11-39.52-33.11-63.6 0-24.07 11.04-48.14 33.11-63.6l236.55-165.58" class="aist1"/><path d="M185.82 628.54v127.91c0 13.05 6.04 25.37 16.37 33.36l253.29 176.16c26.73 18.71 62.31 18.71 89.04 0l253.42-177.81a42.165 42.165 0 0 0 16.24-33.26V628.54" class="aist1"/><path d="M547.36 218.99v362.19c0 26.15-21.2 47.36-47.36 47.36-26.15 0-47.36-21.2-47.36-47.36V218.99" class="aist1"/><circle cx="500" cy="125.12" r="105.12" class="aist1"/><ellipse cx="330.49" cy="628.54" class="aist1" rx="61.16" ry="51.58"/></svg><svg xml:space="preserve" id="hire" x="0" y="0" style="enable-background:new 0 0 500 370.95" version="1.1" viewBox="0 0 500 370.95" xmlns="http://www.w3.org/2000/svg"><style>.alst0{fill:none;stroke:#edf2f7;stroke-width:20;stroke-linecap:round;stroke-linejoin:round;stroke-miterlimit:10}</style><path d="M57.12 218.7H41.75C24.29 218.7 10 200.27 10 177.74V50.96C10 28.43 24.29 10 41.75 10H82.6c17.46 0 31.75 18.43 31.75 40.96L88.87 177.74c-5.58 23.11-14.29 40.96-31.75 40.96zm385.76 0h15.37c17.46 0 31.75-18.43 31.75-40.96V50.96C490 28.43 475.71 10 458.25 10H417.4c-17.46 0-31.75 18.43-31.75 40.96l25.48 126.78c5.58 23.11 14.29 40.96 31.75 40.96z" class="alst0"/><path d="M386.36 54.46s-72.52-12.82-109.62-12.28-95.34 61.41-81.53 92.1c12.37 27.47 41.56 11.32 50.84 4.31 12.82-9.69 23.82-28.54 36.64-19.93 12.82 8.62 78.51 91.27 94.76 123.1m-.01 0c8.21 17.63-9.8 46.29-41.73 23.74-16.82-11.88-62.29-70.55-62.29-70.55m83.39 84.47c8.21 17.63-17.03 54.81-46.09 33.47-16.6-12.19-75.85-77.82-75.85-77.82" class="alst0"/><path d="M301.77 305.62c8.21 17.63-4.92 50.64-43.67 24.87-17.15-11.4-58.19-56.05-58.19-56.05" class="alst0"/><path d="M269.32 339.97s-25.63 26.26-48.28 20.02c-12.35-3.4-45.26-26.73-87.85-87.17-31.1-44.14-47.13-84.9-47.13-84.9m28.29-136.96h129.34m172.72 143.99-52.29 23.75" class="alst0"/></svg><svg xml:space="preserve" id="hire-glyph" x="0" y="0" style="enable-background:new 0 0 500 373.64" version="1.1" viewBox="0 0 500 373.64" xmlns="http://www.w3.org/2000/svg"><style>.akst0{fill:none;stroke:#f54838;stroke-width:30;stroke-linecap:round;stroke-linejoin:round;stroke-miterlimit:10}</style><path d="M61.14 219.35H46.09c-17.1 0-31.09-18.05-31.09-40.1V55.1C15 33.05 28.99 15 46.09 15h40c17.1 0 31.09 18.05 31.09 40.1L92.22 179.24c-5.46 22.63-13.99 40.11-31.08 40.11zm377.72 0h15.05c17.1 0 31.09-18.05 31.09-40.1V55.1c0-22.06-13.99-40.1-31.09-40.1h-40c-17.1 0-31.09 18.05-31.09 40.1l24.95 124.14c5.47 22.63 14 40.11 31.09 40.11z" class="akst0"/><path d="M383.52 58.54s-71.01-12.55-107.34-12.03c-36.33.53-93.36 60.13-79.83 90.18 12.11 26.89 40.7 11.09 49.78 4.22 12.56-9.49 23.32-27.95 35.88-19.51s76.87 89.36 92.78 120.54" class="akst0"/><path d="M374.79 241.93c8.04 17.26-9.6 45.33-40.86 23.24-16.47-11.63-60.99-69.08-60.99-69.08m81.64 82.71c8.04 17.26-16.68 53.67-45.13 32.77-16.25-11.94-74.27-76.2-74.27-76.2" class="akst0"/><path d="M300.69 304.46c8.04 17.26-4.82 49.58-42.76 24.35-16.79-11.17-56.98-54.88-56.98-54.88" class="akst0"/><path d="M268.92 338.1s-25.1 25.71-47.27 19.6c-12.09-3.33-44.32-26.17-86.02-85.35-30.45-43.22-46.15-83.14-46.15-83.14M117.17 55.1h126.65m169.12 140.99-51.19 23.26" class="akst0"/></svg><svg xml:space="preserve" style="enable-background:new 0 0 370 370" viewBox="0 0 370 370" id="internal-glyph" xmlns="http://www.w3.org/2000/svg"><style>.amst0{fill:none;stroke:#f54838;stroke-width:30;stroke-linecap:round;stroke-linejoin:round;stroke-miterlimit:10}</style><g id="amLayer_1"><path d="M286.43 202.28v97.68c0 11.57-9.47 21.04-21.04 21.04H70.04C58.47 321 49 311.53 49 299.96V104.61c0-11.57 9.47-21.04 21.04-21.04h97.68" class="amst0"/><path d="M126.43 163.57v80h80m-77.98-2.02 160-160" class="amst0"/></g><path id="amLayer_2" d="M161 209 321 49" class="amst0"/></svg><svg xml:space="preserve" id="mail" x="0" y="0" style="enable-background:new 0 0 1000 1000" version="1.1" viewBox="0 0 1000 1000" xmlns="http://www.w3.org/2000/svg"><style>.anst0{fill:none;stroke:#edf2f7;stroke-width:40;stroke-linecap:round;stroke-linejoin:round;stroke-miterlimit:10}</style><path d="M943 860H57c-20.35 0-37-16.65-37-37V177c0-20.35 16.65-37 37-37h886c20.35 0 37 16.65 37 37v646c0 20.35-16.65 37-37 37z" class="anst0"/><path d="M20 245.85 437.14 558.7c37.25 27.94 88.47 27.94 125.72 0L980 245.85m0 551.46L624.49 512.48m-248.98 0L20 797.31" class="anst0"/></svg><svg viewBox="0 0 1000 985.444" id="music" xmlns="http://www.w3.org/2000/svg"><defs><style>.apa{fill:none;stroke:#edf2f7;stroke-linecap:round;stroke-miterlimit:10;stroke-width:40px}</style></defs><path d="M858.158 383.509C933.938 445.278 980 526.772 980 616.097c0 192.939-214.903 349.347-480 349.347S20 809.036 20 616.097 234.903 266.75 500 266.75c87.888 0 170.259 17.191 241.111 47.205" class="apa"/><path d="M262.202 820.192C182.75 771.108 132.33 697.888 132.33 616.097c0-35.118 9.295-68.656 26.192-99.382m704.152 55.167a198.147 198.147 0 0 1 4.996 44.215c0 147.787-164.612 267.592-367.67 267.592q-21.944 0-43.242-1.831m-78.631-518.302a500.734 500.734 0 0 1 246.386.683m-4.248 311.499c-26.2 27.932-70.29 46.266-120.265 46.266-80.366 0-145.516-47.416-145.516-105.907S419.634 510.189 500 510.189a197.934 197.934 0 0 1 35.332 3.144M500 616.097v1m299.892-102.385V29.322a9.306 9.306 0 0 1 16.065-6.392C948.815 163.63 902 223.156 902 223.156" class="apa"/><circle cx="701.124" cy="514.712" r="98.768" class="apa"/></svg><svg xml:space="preserve" style="enable-background:new 0 0 1000 1000" viewBox="0 0 1000 1000" id="music-glyph" xmlns="http://www.w3.org/2000/svg"><style>.aost0{fill:none;stroke:#376480;stroke-width:40;stroke-linecap:round;stroke-miterlimit:10}</style><g id="aoLayer_2"><path d="M858.16 398.07C933.94 459.83 980 541.33 980 630.65 980 823.59 765.1 980 500 980S20 823.59 20 630.65 234.9 281.3 500 281.3c87.89 0 170.26 17.19 241.11 47.21" class="aost0"/><path d="M262.2 834.75c-79.45-49.08-129.87-122.3-129.87-204.1 0-35.12 9.29-68.66 26.19-99.38m704.15 55.17c3.29 14.38 5 29.15 5 44.21 0 147.79-164.61 267.59-367.67 267.59-14.63 0-29.06-.62-43.24-1.83m-78.63-518.3c38.14-9.75 79.16-15.05 121.87-15.05 43.7 0 85.63 5.55 124.51 15.73m-4.24 311.5c-26.2 27.93-70.29 46.27-120.27 46.27-80.37 0-145.52-47.42-145.52-105.91s65.15-105.9 145.52-105.9c12.19 0 24.02 1.09 35.33 3.14M500 630.65v1" class="aost0"/></g><g id="aoLayer_1"><path d="M799.89 529.27V43.88c0-8.41 10.29-12.51 16.07-6.39C948.82 178.19 902 237.71 902 237.71" class="aost0"/><circle cx="701.12" cy="529.27" r="98.77" class="aost0"/></g></svg><svg xml:space="preserve" style="enable-background:new 0 0 500 500" viewBox="0 0 500 500" id="next" xmlns="http://www.w3.org/2000/svg"><path d="M68.91 119.6c4.8 0 9.73 1.22 14.38 3.91L259.21 225c19.25 11.11 19.25 38.9 0 50.01L83.29 376.49c-4.65 2.68-9.58 3.91-14.38 3.91-15.08 0-28.91-12.06-28.91-28.91V148.51c0-16.85 13.83-28.91 28.91-28.91m0-40C30.91 79.6 0 110.52 0 148.51v202.98c0 38 30.91 68.91 68.91 68.91 11.99 0 23.87-3.2 34.37-9.26L279.2 309.65c10.87-6.27 19.8-15.33 25.82-26.19 5.64-10.18 8.63-21.75 8.63-33.46s-2.98-23.28-8.63-33.46c-6.02-10.86-14.95-19.92-25.82-26.19L103.28 88.86C92.78 82.8 80.9 79.6 68.91 79.6zm362.79 40c15.56 0 28.3 12.73 28.3 28.3v204.2c0 15.56-12.73 28.3-28.3 28.3h-7.89c-15.56 0-28.3-12.73-28.3-28.3V147.9c0-15.56 12.73-28.3 28.3-28.3h7.89m0-40h-7.89c-37.66 0-68.3 30.64-68.3 68.3v204.2c0 37.66 30.64 68.3 68.3 68.3h7.89c37.66 0 68.3-30.64 68.3-68.3V147.9c0-37.66-30.64-68.3-68.3-68.3z" style="fill:#edf2f7"/></svg><svg xml:space="preserve" style="enable-background:new 0 0 500 500" viewBox="0 0 500 500" id="next-hover" xmlns="http://www.w3.org/2000/svg"><path d="M68.91 119.6c4.8 0 9.73 1.22 14.38 3.91L259.21 225c19.25 11.11 19.25 38.9 0 50.01L83.29 376.49c-4.65 2.68-9.58 3.91-14.38 3.91-15.08 0-28.91-12.06-28.91-28.91V148.51c0-16.85 13.83-28.91 28.91-28.91m0-40C30.91 79.6 0 110.52 0 148.51v202.98c0 38 30.91 68.91 68.91 68.91 11.99 0 23.87-3.2 34.37-9.26L279.2 309.65c10.87-6.27 19.8-15.33 25.82-26.19 5.64-10.18 8.63-21.75 8.63-33.46s-2.98-23.28-8.63-33.46c-6.02-10.86-14.95-19.92-25.82-26.19L103.28 88.86C92.78 82.8 80.9 79.6 68.91 79.6zm362.79 40c15.56 0 28.3 12.73 28.3 28.3v204.2c0 15.56-12.73 28.3-28.3 28.3h-7.89c-15.56 0-28.3-12.73-28.3-28.3V147.9c0-15.56 12.73-28.3 28.3-28.3h7.89m0-40h-7.89c-37.66 0-68.3 30.64-68.3 68.3v204.2c0 37.66 30.64 68.3 68.3 68.3h7.89c37.66 0 68.3-30.64 68.3-68.3V147.9c0-37.66-30.64-68.3-68.3-68.3z" style="fill:#f54838"/></svg><svg xml:space="preserve" style="enable-background:new 0 0 500 500" viewBox="0 0 500 500" id="pause" xmlns="http://www.w3.org/2000/svg"><path d="M350 40c22 0 40 18 40 40v340c0 22-18 40-40 40s-40-18-40-40V80c0-22 18-40 40-40m0-40c-44.11 0-80 35.89-80 80v340c0 44.11 35.89 80 80 80s80-35.89 80-80V80c0-44.11-35.89-80-80-80zM150 40c22 0 40 18 40 40v340c0 22-18 40-40 40s-40-18-40-40V80c0-22 18-40 40-40m0-40c-44.11 0-80 35.89-80 80v340c0 44.11 35.89 80 80 80s80-35.89 80-80V80c0-44.11-35.89-80-80-80z" style="fill:#edf2f7"/></svg><svg xml:space="preserve" style="enable-background:new 0 0 500 500" viewBox="0 0 500 500" id="pause-hover" xmlns="http://www.w3.org/2000/svg"><path d="M350 40c22 0 40 18 40 40v340c0 22-18 40-40 40s-40-18-40-40V80c0-22 18-40 40-40m0-40c-44.11 0-80 35.89-80 80v340c0 44.11 35.89 80 80 80s80-35.89 80-80V80c0-44.11-35.89-80-80-80zM150 40c22 0 40 18 40 40v340c0 22-18 40-40 40s-40-18-40-40V80c0-22 18-40 40-40m0-40c-44.11 0-80 35.89-80 80v340c0 44.11 35.89 80 80 80s80-35.89 80-80V80c0-44.11-35.89-80-80-80z" style="fill:#f54838"/></svg><svg xml:space="preserve" style="enable-background:new 0 0 500 500" viewBox="0 0 500 500" id="play" xmlns="http://www.w3.org/2000/svg"><path d="M108.42 40c7.74 0 15.67 1.97 23.16 6.29l283.31 163.45c31.01 17.89 31.01 62.64 0 80.53L131.58 453.71c-7.49 4.32-15.42 6.29-23.16 6.29-24.28 0-46.56-19.42-46.56-46.55V86.55C61.86 59.42 84.14 40 108.42 40m0-40v40V0h-.01C85.98 0 64.65 8.61 48.36 24.23c-17.09 16.38-26.5 38.51-26.5 62.33v326.89c0 23.82 9.41 45.95 26.49 62.33C64.65 491.4 85.98 500 108.42 500c15.03 0 29.95-4.03 43.15-11.64l283.31-163.45c13.67-7.89 24.89-19.25 32.44-32.87 7.09-12.78 10.83-27.32 10.83-42.05s-3.75-29.27-10.83-42.05c-7.55-13.61-18.76-24.98-32.44-32.87L151.57 11.64C138.36 4.03 123.45 0 108.42 0z" style="fill:#edf2f7"/></svg><svg xml:space="preserve" style="enable-background:new 0 0 500 500" viewBox="0 0 500 500" id="play-hover" xmlns="http://www.w3.org/2000/svg"><path d="M108.42 40c7.74 0 15.67 1.97 23.16 6.29l283.31 163.45c31.01 17.89 31.01 62.64 0 80.53L131.58 453.71c-7.49 4.32-15.42 6.29-23.16 6.29-24.28 0-46.56-19.42-46.56-46.55V86.55C61.86 59.42 84.14 40 108.42 40m0-40v40V0h-.01C85.98 0 64.65 8.61 48.36 24.23c-17.09 16.38-26.5 38.51-26.5 62.33v326.89c0 23.82 9.41 45.95 26.49 62.33C64.65 491.4 85.98 500 108.42 500c15.03 0 29.95-4.03 43.15-11.64l283.31-163.45c13.67-7.89 24.89-19.25 32.44-32.87 7.09-12.78 10.83-27.32 10.83-42.05s-3.75-29.27-10.83-42.05c-7.55-13.61-18.76-24.98-32.44-32.87L151.57 11.64C138.36 4.03 123.45 0 108.42 0z" style="fill:#f54838"/></svg><svg xml:space="preserve" style="enable-background:new 0 0 500 500" viewBox="0 0 500 500" id="previous" xmlns="http://www.w3.org/2000/svg"><path d="M431.09 119.6c15.08 0 28.91 12.06 28.91 28.91v202.98c0 16.85-13.83 28.91-28.91 28.91-4.8 0-9.73-1.22-14.38-3.91L240.79 275c-19.25-11.11-19.25-38.9 0-50.01L416.71 123.5c4.65-2.68 9.58-3.9 14.38-3.9m0-40c-11.99 0-23.87 3.2-34.37 9.26L220.8 190.35c-10.87 6.27-19.8 15.33-25.82 26.19-5.64 10.18-8.63 21.75-8.63 33.46s2.98 23.28 8.63 33.46c6.02 10.86 14.95 19.92 25.82 26.19l175.92 101.49c10.5 6.06 22.38 9.26 34.37 9.26 38 0 68.91-30.91 68.91-68.91V148.51c0-38-30.91-68.91-68.91-68.91zm-354.9 40c15.56 0 28.3 12.73 28.3 28.3v204.2c0 15.56-12.73 28.3-28.3 28.3H68.3c-15.56 0-28.3-12.73-28.3-28.3V147.9c0-15.56 12.73-28.3 28.3-28.3h7.89m0-40H68.3C30.64 79.6 0 110.24 0 147.9v204.2c0 37.66 30.64 68.3 68.3 68.3h7.89c37.66 0 68.3-30.64 68.3-68.3V147.9c-.01-37.66-30.64-68.3-68.3-68.3z" style="fill:#edf2f7"/></svg><svg xml:space="preserve" style="enable-background:new 0 0 500 500" viewBox="0 0 500 500" id="previous-hover" xmlns="http://www.w3.org/2000/svg"><path d="M431.09 119.6c15.08 0 28.91 12.06 28.91 28.91v202.98c0 16.85-13.83 28.91-28.91 28.91-4.8 0-9.73-1.22-14.38-3.91L240.79 275c-19.25-11.11-19.25-38.9 0-50.01L416.71 123.5c4.65-2.68 9.58-3.9 14.38-3.9m0-40c-11.99 0-23.87 3.2-34.37 9.26L220.8 190.35c-10.87 6.27-19.8 15.33-25.82 26.19-5.64 10.18-8.63 21.75-8.63 33.46s2.98 23.28 8.63 33.46c6.02 10.86 14.95 19.92 25.82 26.19l175.92 101.49c10.5 6.06 22.38 9.26 34.37 9.26 38 0 68.91-30.91 68.91-68.91V148.51c0-38-30.91-68.91-68.91-68.91zm-354.9 40c15.56 0 28.3 12.73 28.3 28.3v204.2c0 15.56-12.73 28.3-28.3 28.3H68.3c-15.56 0-28.3-12.73-28.3-28.3V147.9c0-15.56 12.73-28.3 28.3-28.3h7.89m0-40H68.3C30.64 79.6 0 110.24 0 147.9v204.2c0 37.66 30.64 68.3 68.3 68.3h7.89c37.66 0 68.3-30.64 68.3-68.3V147.9c-.01-37.66-30.64-68.3-68.3-68.3z" style="fill:#f54838"/></svg><svg viewBox="0 0 1000 998.749" id="print" xmlns="http://www.w3.org/2000/svg"><defs><style>.aza{fill:none;stroke:#edf2f7;stroke-linecap:round;stroke-linejoin:round;stroke-width:40px}</style></defs><path d="M584.107 340.826C356.109 267.656 91.56 195.876 91.56 334.64v278.2C47.15 601.8 20 599.99 20 614.29V233.87c0-163.981 369.432-33.942 611.414 44.961m102.784 32.091c62.517 17.898 102.682 24.334 102.682 6.937v102.22c-37.73-9.384-87.914-25.435-144.48-43.934" class="aza"/><path d="M535.333 404.745C343.876 349.86 163.12 320.708 163.12 435.41v278.2c-44.41-11.04-71.56-12.85-71.56 1.45V334.64c0-138.765 264.548-66.983 492.546 6.188m108.292 35.318C815.54 416.42 908.44 445.088 908.44 418.63v102.22c-61.425-15.28-155.858-48.227-257.096-80.641" class="aza"/><path d="M651.344 440.209C825.772 496.059 980 553.489 980 519.4v380.42c0 243.84-816.88-162.446-816.88-83.994v-380.42c0-114.702 180.756-85.548 372.212-30.661" class="aza"/><path d="M887.44 58.609a46.197 46.197 0 0 1-8.51 26.47l-317.7 495.76a173.353 173.353 0 0 0-18.71-14.96c-39.42-22.79-56.35-16.8-107.23-24.56l-1.05-.12a43.78 43.78 0 0 1 5.99-11.82l373.74-489.79c13.81-19.71 39.54-25.52 57.48-12.95 10.49 7.34 15.99 19.34 15.99 31.97Z" class="aza"/><path d="M542.52 565.883c194.624 136.277-324.912 236.873-284.598 187.89 76.868-93.396 56.679-227.029 177.371-212.457 50.873 7.758 67.81 1.773 107.226 24.567Z" class="aza"/></svg><svg xml:space="preserve" style="enable-background:new 0 0 1000 1000" viewBox="0 0 1000 1000" id="print-glyph" xmlns="http://www.w3.org/2000/svg"><style>.ayst0{fill:none;stroke:#376480;stroke-width:40;stroke-linecap:round;stroke-linejoin:round;stroke-miterlimit:10}</style><g id="ayLayer_1"><path d="M584.11 342.08c-228-73.17-492.55-144.95-492.55-6.19v278.2C47.15 603.05 20 601.24 20 615.54V235.12c0-163.98 369.43-33.94 611.41 44.96m102.79 32.09c62.52 17.9 102.68 24.33 102.68 6.94v102.22c-37.73-9.38-87.91-25.43-144.48-43.93" class="ayst0"/><path d="M535.33 406c-191.46-54.88-372.21-84.04-372.21 30.66v278.2c-44.41-11.04-71.56-12.85-71.56 1.45V335.89c0-138.76 264.55-66.98 492.55 6.19M692.4 377.4c123.14 40.27 216.04 68.94 216.04 42.48V522.1c-61.43-15.28-155.86-48.23-257.1-80.64" class="ayst0"/><path d="M651.34 441.46C825.77 497.31 980 554.74 980 520.65v380.42c0 243.84-816.88-162.45-816.88-83.99V436.66c0-114.7 180.76-85.55 372.21-30.66" class="ayst0"/></g><g id="ayLayer_2"><path d="M887.44 59.86c0 8.98-2.77 18.28-8.51 26.47l-317.7 495.76c-5.3-4.94-11.52-9.92-18.71-14.96-39.42-22.79-56.35-16.8-107.23-24.56l-1.05-.12c1.23-3.86 3.18-7.81 5.99-11.82L813.97 40.84c13.81-19.71 39.54-25.52 57.48-12.95 10.49 7.34 15.99 19.34 15.99 31.97z" class="ayst0"/><path d="M542.52 567.13C737.14 703.41 217.61 804 257.92 755.02c76.87-93.4 56.68-227.03 177.37-212.46 50.88 7.77 67.81 1.78 107.23 24.57z" class="ayst0"/></g></svg><svg xml:space="preserve" id="reddit" x="0" y="0" style="enable-background:new 0 0 171 171" version="1.1" viewBox="0 0 171 171" xmlns="http://www.w3.org/2000/svg"><style>.best0{fill:#edf2f7}</style><circle cx="65.9" cy="94.4" r="8.9" class="best0" transform="rotate(-45.001 65.9 94.401)"/><path d="M106.9 114.6c.7 1 .7 2.4-.2 3.3-6.1 6.1-17.7 6.5-21.1 6.5s-15.1-.5-21.1-6.5c-.9-.9-.9-2.4 0-3.3.9-.9 2.4-.9 3.3 0 3.8 3.8 12 5.2 17.9 5.2 5.9 0 14-1.4 17.9-5.2.9-.9 2.4-.9 3.3 0z" class="best0"/><circle cx="105.1" cy="94.4" r="8.9" class="best0" transform="rotate(-22.5 105.095 94.396)"/><path d="M85.5 0C38.28 0 0 38.28 0 85.5S38.28 171 85.5 171 171 132.72 171 85.5 132.72 0 85.5 0zm49.8 97c.2 1.2.3 2.4.3 3.7 0 19.2-22.3 34.7-49.9 34.7-27.6 0-49.9-15.5-49.9-34.7 0-1.3.1-2.6.3-3.8-4.4-2-7.4-6.3-7.4-11.4 0-6.9 5.6-12.5 12.5-12.5 3.3 0 6.4 1.4 8.6 3.5 8.6-6.3 20.5-10.2 33.8-10.6l6.3-29.8c.2-.6.5-1.1 1-1.4.5-.3 1.1-.4 1.7-.3l20.7 4.4c1.4-3 4.4-5 7.9-5 4.9 0 8.9 4 8.9 8.9s-4 8.9-8.9 8.9c-4.8 0-8.7-3.8-8.9-8.5l-18.5-3.9-5.7 26.7c13 .5 24.8 4.5 33.3 10.6 2.2-2.2 5.2-3.5 8.6-3.5 6.9 0 12.5 5.6 12.5 12.5 0 5.1-3.1 9.5-7.2 11.5z" class="best0"/></svg><svg viewBox="0 0 500 500" id="restore" xmlns="http://www.w3.org/2000/svg"><path d="M20 360h120v120m340-120H360v120M20 140h120V20m340 120H360V20" style="fill:none;stroke:#edf2f7;stroke-linecap:round;stroke-linejoin:round;stroke-width:40px"/></svg><svg xml:space="preserve" style="enable-background:new 0 0 500 500" viewBox="0 0 500 500" id="restore-dark" xmlns="http://www.w3.org/2000/svg"><path d="M20 360h120v120m340-120H360v120M20 140h120V20m340 120H360V20" style="fill:none;stroke:#376480;stroke-width:40;stroke-linecap:round;stroke-linejoin:round;stroke-miterlimit:10"/></svg><svg viewBox="0 0 500 500" id="restore-hover" xmlns="http://www.w3.org/2000/svg"><path d="M20 360h120v120m340-120H360v120M20 140h120V20m340 120H360V20" style="fill:none;stroke:#f54838;stroke-linecap:round;stroke-linejoin:round;stroke-width:40px"/></svg><svg xml:space="preserve" style="enable-background:new 0 0 400 400" viewBox="0 0 400 400" id="twitter" xmlns="http://www.w3.org/2000/svg"><defs><path id="bfa" d="M0 0h400v400H0z"/></defs><clipPath id="bfb"><use xlink:href="#bfa" style="overflow:visible"/></clipPath><path d="M200 0C89.54 0 0 89.54 0 200s89.54 200 200 200 200-89.54 200-200S310.46 0 200 0m100.45 162.08c.1 2.07.14 4.15.14 6.23 0 63.71-48.5 137.18-137.18 137.18-27.23 0-52.57-7.98-73.9-21.66 3.77.45 7.61.67 11.5.67 22.59 0 43.38-7.71 59.88-20.64-21.11-.39-38.9-14.33-45.04-33.49 2.94.56 5.96.87 9.06.87 4.4 0 8.66-.6 12.71-1.7-22.06-4.42-38.68-23.91-38.68-47.27 0-.21 0-.41.01-.62 6.5 3.62 13.93 5.79 21.84 6.03-12.94-8.64-21.46-23.4-21.46-40.13 0-8.83 2.39-17.11 6.53-24.23 23.78 29.17 59.31 48.36 99.38 50.37-.83-3.53-1.25-7.21-1.25-10.99 0-26.62 21.59-48.21 48.22-48.21 13.86 0 26.39 5.86 35.19 15.23a96.537 96.537 0 0 0 30.61-11.7c-3.6 11.26-11.25 20.7-21.2 26.67 9.75-1.17 19.05-3.75 27.69-7.59a97.83 97.83 0 0 1-24.05 24.98" style="clip-path:url(#bfb);fill:#edf2f7"/></svg><svg xml:space="preserve" style="enable-background:new 0 0 121.48 121.49" viewBox="0 0 121.48 121.49" id="youtube" xmlns="http://www.w3.org/2000/svg"><path d="M118.95 31.51c-1.4-5.23-5.51-9.34-10.74-10.74-9.47-2.54-47.46-2.54-47.46-2.54s-37.99 0-47.46 2.54c-5.23 1.4-9.34 5.51-10.74 10.74C0 40.98 0 60.75 0 60.75s0 19.77 2.54 29.24c1.4 5.23 5.51 9.34 10.74 10.74 9.47 2.54 47.46 2.54 47.46 2.54s37.99 0 47.46-2.54c5.23-1.4 9.34-5.51 10.74-10.74 2.54-9.47 2.54-29.24 2.54-29.24s0-19.77-2.53-29.24zM48.59 78.97V42.52l31.56 18.22-31.56 18.23z" style="fill:#edf2f7"/></svg></svg>