<svg xmlns="http://www.w3.org/2000/svg" xml:space="preserve" id="Layer_1" x="0" y="0" style="enable-background:new 0 0 1827.2 586.2" version="1.1" viewBox="0 0 1827.2 586.2"><style>.st0{fill:#376480}.st1{fill:#f54838}</style><path d="M641.7 179.1h-12.4V326c.4 25.7 16.8 40.6 49.3 40.6h6.2v-12.4h-6.2c-22.7 0-36.6-9.3-36.9-28.2v-95.8h43.1v-12.4h-43.1v-38.7z" class="st0"/><path d="M655.7 268.2c-3.5-5.4-8.2-10.7-14-15.9v14c7.8 8.7 11.9 17.7 11.9 26.7s-4.1 18-11.9 26.7c-3.4 3.8-7.4 7.4-12.1 11.1-3.8 3-8.1 5.8-12.7 8.7-8.4 5.1-18.2 10-29.3 14.7-4.5 1.9-9.1 3.7-14 5.5-3.9 1.4-7.9 2.8-12.1 4.2h-.1c-4.5 1.5-9.1 2.9-13.8 4.3-16 4.7-33.2 8.8-51.3 12.2-3.1-8.7-6.5-17.5-10.1-26.5-4.3-10.8-9-21.7-14-32.6-4-8.7-8.1-17.5-12.4-26.3-.3-.6-.6-1.3-.9-1.9.3-.7.6-1.3 1-1.9 11-22.3 20.7-44.3 29.2-65.8 2.4-6.1 4.7-12.1 6.8-18.1.2-.5.4-1.1.6-1.6 1 .2 1.9.4 2.8.6 22.4 4.4 43.3 9.7 62.2 15.9.2.1.4.1.6.2 21.2 7 39.1 14.8 53.3 23.2 5.2 3.1 9.8 6.2 14 9.4v-12.3c-4.3-2.9-9-5.8-14-8.6-14.1-7.8-31.1-15-50.9-21.4-19.7-6.5-41.5-12-64.8-16.5 7.7-22.5 13.8-44.1 18.1-64.4 13.8-65.8 6.8-110.6-20-126.1-26.8-15.4-69.2.9-119.3 45.8-15.5 13.8-31.1 30-46.7 47.9-15.6-18-31.3-34.1-46.8-47.9-50-45-92.3-61.2-119.1-45.7-26.8 15.4-33.9 60.2-20 126 4.3 20.3 10.4 41.9 18.1 64.4-23.3 4.6-45.1 10.1-64.9 16.5C35.2 233.7 0 262.2 0 293.1c0 30.9 35.2 59.4 99.2 80.3 19.7 6.5 41.5 12 64.9 16.5-7.7 22.5-13.8 44.1-18.1 64.4-13.9 65.8-6.8 110.6 20 126 6.6 3.8 14.2 5.7 22.5 5.7 25.6 0 58.9-17.6 96.6-51.4 15.5-13.9 31.1-30 46.8-47.9 15.6 17.9 31.3 34 46.7 47.9 37.7 33.8 71.1 51.4 96.6 51.4 8.4 0 15.9-1.9 22.5-5.7 26.8-15.5 33.8-60.2 20-126-4.3-20.3-10.4-41.9-18.1-64.4 16.9-3.3 32.9-7.1 48-11.4 5.8-1.6 11.4-3.4 16.9-5.2 8.2-2.7 15.9-5.5 23.2-8.4 12.2-4.9 23.1-10.2 32.4-15.7 4.3-2.5 8.3-5.1 11.9-7.7 3.9-2.8 7.4-5.6 10.6-8.5 5.4-4.9 9.8-9.9 13.2-15.1 5.2-8 7.9-16.4 7.9-24.9-.1-8.4-2.8-16.8-8-24.8zm-172.6-55.6c-3.3 8.7-6.8 17.6-10.6 26.5-3.6 8.5-7.3 17.1-11.3 25.7-2.6 5.7-5.3 11.4-8.1 17.1-2.2-4.3-4.4-8.6-6.7-12.9-5.6-10.6-11.5-21.3-17.6-31.9-8.6-14.9-17.5-29.4-26.6-43.5 29.5 2.1 57.8 5.6 84.2 10.2-1.2 3-2.2 5.9-3.3 8.8zM385.2 58.9c35.6-31.9 67.1-48.8 89.9-48.8 6.6 0 12.5 1.4 17.6 4.3 22.4 12.9 27.9 55 15.2 115.3-4.3 20.3-10.4 42-18.3 64.6-29.5-5.3-61.3-9.1-94.4-11.2-18.4-27.7-37.5-53.3-56.8-76.1 15.6-18 31.4-34.2 46.8-48.1zm-2.5 123.6c-6.8-.3-13.7-.6-20.6-.8l4.4 10.2c7.8.3 15.4.6 23.1 1.1 10.4 15.8 20.6 32.3 30.4 49.3 9.1 15.8 17.7 31.6 25.6 47.3.6 1.2 1.3 2.5 1.9 3.7-.6 1.2-1.3 2.5-1.9 3.7-5.8 11.3-11.8 22.7-18.2 34.1l5 11.5c4.5-8 8.9-15.9 13.1-23.8 2.5-4.8 5-9.5 7.5-14.3 2.2 4.6 4.4 9.2 6.5 13.8 4.4 9.5 8.6 18.8 12.5 28.1 4.9 11.6 9.4 23 13.5 34.3.2.6.4 1.2.7 1.8-26.4 4.7-54.7 8.1-84.1 10.2 2.5-3.9 5-7.8 7.5-11.8h-11.8l-8.1 12.6c-18.9 1.1-38.3 1.7-57.9 1.7s-39-.6-57.9-1.7c-2.7-4.2-5.5-8.4-8.1-12.6H254c2.5 4 5 7.9 7.5 11.8-29.5-2.1-57.7-5.6-84.1-10.2 9.2-25.2 20.3-51.4 33.2-78 6.4 12.5 13.1 25 20.2 37.5l5-11.5c-6.9-12.4-13.5-24.9-19.7-37.3 8.5-16.9 17.7-34 27.5-51s20-33.5 30.4-49.3c7.4-.4 15-.8 22.5-1l4.5-10.1c-6.7.2-13.4.5-20 .8 16.6-24.4 33.7-47.2 50.9-67.7 17.2 20.4 34.3 43.1 50.8 67.6zm-205.4 21.4c26.4-4.7 54.7-8.1 84.2-10.2-9.1 14-18 28.6-26.6 43.5-8.6 14.9-16.7 29.9-24.4 44.8-12.9-26.7-24-52.9-33.2-78.1zm-21.6-74.1C143 69.4 148.5 27.3 170.9 14.4c5-2.9 10.9-4.3 17.6-4.3 22.8 0 54.3 16.9 89.9 48.8 15.5 13.9 31.2 30.1 46.9 48.2-19.3 22.9-38.5 48.5-56.8 76.1-33.2 2.1-65 5.9-94.4 11.2-8-22.6-14.1-44.3-18.4-64.6zm-53.4 234.1c-58.6-19.2-92.3-45-92.3-70.8 0-25.8 33.6-51.7 92.3-70.8 19.8-6.5 41.6-12 65.1-16.5 10.2 28.2 22.8 57.6 37.5 87.4-14.8 29.8-27.4 59.2-37.5 87.3-23.5-4.6-45.4-10.1-65.1-16.6zm176.1 163.4c-35.6 31.9-67.1 48.8-89.9 48.8-6.6 0-12.5-1.4-17.6-4.3-22.4-12.9-27.9-55-15.2-115.3 4.3-20.3 10.5-42 18.3-64.6 29.5 5.3 61.2 9.1 94.4 11.2 18.4 27.7 37.6 53.3 56.9 76.2-15.7 18-31.4 34.1-46.9 48zm2.5-123.6c16.7.8 33.7 1.3 50.9 1.3 17.2 0 34.3-.4 51-1.3-16.6 24.5-33.7 47.2-50.9 67.8-17.3-20.5-34.5-43.3-51-67.8zm227 52.8c12.7 60.4 7.2 102.4-15.2 115.3-22.4 12.9-61.5-3.3-107.5-44.5-15.5-13.9-31.2-30-46.8-48.1 19.3-22.9 38.5-48.5 56.9-76.2 33.1-2.1 64.9-5.9 94.4-11.2 7.8 22.6 13.9 44.3 18.2 64.7z" class="st1"/><path d="m327.5 155.9-92.2 210.6h13.6l82.9-188 82.4 188.1h13.6l-92.2-210.7zM721.9 180.4h-6.2v12.4h12.7v-12.4h-6.2zM715.7 217.8h12.4v148.7h-12.4zM1070.6 155.9l-85.4 189.3-85.8-189.3h-10.2v210.6h12.4l-.2-175.5L981 366.6h8.1l79.3-175.6.3 175.6h12.4l-.3-210.7zM1248.5 249.5c-12.4-19.2-32.9-31.6-55.8-31.6-37.1 0-68.1 32.8-68.1 74.3s30.9 74.3 68.1 74.3c23 0 43.4-12.4 55.8-31.6v31.6h12.4V230.2h-12.4v19.3zm-55.7 104.7c-31 0-55.8-27.9-55.8-62s24.8-62 55.8-62 55.8 27.9 55.8 62-24.8 62-55.8 62zM1329.4 179.1H1317V326c.4 25.7 16.8 40.6 49.3 40.6h6.2v-12.4h-6.2c-22.6 0-36.6-9.3-36.9-28.2v-95.8h43.1v-12.4h-43.1v-38.7zM1422.3 179.1h-12.4V326c.4 25.7 16.8 40.6 49.3 40.6h6.2v-12.4h-6.2c-22.7 0-36.6-9.3-36.9-28.2v-95.8h43.1v-12.4h-43.1v-38.7zM1607.9 255v12.4c0 54.7 44.4 99.1 99.1 99.1v-12.4c-47.9 0-86.7-38.8-86.7-86.7h64.6V255h-64.6c0-47.9 38.8-86.7 86.7-86.7v-12.4c-54.7 0-99.1 44.4-99.1 99.1zM1821 217.9h-.8c-27.7.2-52.5 17.1-63.7 42.4-3.9 8.7-6 18.1-6.1 27.7V366.6h12.4v-75.9c.3-38.7 24.4-60.4 58.2-60.4h6.2v-12.4h-6.2z" class="st0"/><path d="M771.5 285.7h-6.2l39.5 68.3 41-68.3h-6.2c-22.7 45.6-45.4 45.6-68.1 0zM1490.2 285.7h-6.2l39.5 68.3 41-68.3h-6.2c-22.7 45.6-45.4 45.6-68.1 0zM331.8 273.5c-10.5 0-19 8.8-19 19.6s8.5 19.6 19 19.6 19-8.8 19-19.6-8.5-19.6-19-19.6z" class="st1"/><path d="M514.4 217.8s-54.5 2-54.7 62.9c-.2 60.9 0 85.8 0 85.8h12.4v-85.8c0-27.6 16.3-50.5 42.3-50.5 26.1 0 46.5 22.9 46.5 50.5l.6 86.1h12.1l-.3-86.1c0-35-26.7-62.9-58.9-62.9z" class="st0"/></svg>