<?xml version="1.0" encoding="utf-8"?>
<!-- Generator: Adobe Illustrator 22.1.0, SVG Export Plug-In . SVG Version: 6.00 Build 0)  -->
<svg version="1.1" xmlns="http://www.w3.org/2000/svg" xmlns:xlink="http://www.w3.org/1999/xlink" x="0px" y="0px"
	 viewBox="0 0 1827.2 586.2" style="enable-background:new 0 0 1827.2 586.2;" xml:space="preserve">
<style type="text/css">
	.st0{opacity:0.5;}
	.st1{fill:none;stroke:#17BEBB;stroke-width:10;stroke-miterlimit:10;}
	.st2{fill:#FBFFFE;}
	.st3{fill:#E4572E;}
</style>
<g id="Layer_3">
	<g class="st0">
		<ellipse class="st1" cx="331.8" cy="293.1" rx="326.8" ry="106.9"/>
		<ellipse transform="matrix(0.866 -0.5 0.5 0.866 -102.0912 205.1822)" class="st1" cx="331.8" cy="293.1" rx="106.9" ry="326.8"/>
		<ellipse transform="matrix(0.5 -0.866 0.866 0.5 -87.9136 433.9209)" class="st1" cx="331.8" cy="293.1" rx="326.8" ry="106.9"/>
	</g>
</g>
<g id="Layer_2">
	<g>
		<path class="st2" d="M331.8,178.5l-81.4,184.3l-1.5,3.7h-13.6l4-8.7L326,159.6l1.5-3.7h8.1l1.5,3.7l86.7,198.3l4,8.7h-13.6
			l-1.5-3.7L331.8,178.5 M331.6,177.6"/>
		<path class="st2" d="M514.4,217.8c32.2,0,58.9,27.9,58.9,62.9v79.6l0.3,6.5h-12.1l-0.3-6.2l-0.3-79.9c0-27.6-20.4-50.5-46.5-50.5
			c-26,0-42.3,22.9-42.3,50.5v6.2v73.4v6.2h-12.4v-6.2v-73.4c0,0-0.2,54.7,0-6.2C459.9,219.8,514.4,217.8,514.4,217.8z"/>
		<path class="st2" d="M629.3,217.8v-32.5v-6.2h12.4v6.2v32.5h36.9h6.2v12.4h-6.2h-36.9V326c0.3,18.9,14.2,28.2,36.9,28.2h6.2v12.4
			h-6.2c-32.5,0-48.9-14.9-49.3-40.6v-95.7"/>
		<path class="st2" d="M721.9,192.8h-6.2v-12.4h6.2h0.3h6.2v12.4h-6.2H721.9z M715.7,224v-6.2h12.4v6.2v136.3v6.2h-12.4v-6.2V224z"
			/>
		<path class="st3" d="M804.8,354l-39.5-68.3h6.2c22.7,45.6,45.4,45.6,68.1,0h6.2L804.8,354"/>
		<path class="st2" d="M901.6,360.3v6.2h-12.4v-6.2V162.1v-6.2h10.2l1.5,3.7l84.3,185.6l83.9-185.6l1.5-3.7h10.2v6.2l0.3,198.3v6.2
			h-12.4v-6.2l-0.3-169.4l-77.8,171.9l-1.5,3.7h-8.1l-1.5-3.7l-78.1-171.9V360.3z"/>
		<path class="st2" d="M1260.9,230.1v62.1v68.1v6.2h-12.4v-6.2v-25.4c-12.4,19.2-32.8,31.6-55.8,31.6c-37.2,0-68.1-32.8-68.1-74.3
			s31-74.3,68.1-74.3c22.9,0,43.4,12.4,55.8,31.6v-19.3H1260.9z M1137,292.2c0,34.1,24.8,62,55.8,62c31,0,55.8-27.9,55.8-62
			s-24.8-62-55.8-62C1161.8,230.2,1137,258.1,1137,292.2z"/>
		<path class="st2" d="M1317,217.8v-32.5v-6.2h12.4v6.2v32.5h36.9h6.2v12.4h-6.2h-36.9V326c0.3,18.9,14.3,28.2,36.9,28.2h6.2v12.4
			h-6.2c-32.5,0-48.9-14.9-49.3-40.6v-95.7"/>
		<path class="st2" d="M1409.9,217.8v-32.5v-6.2h12.4v6.2v32.5h36.9h6.2v12.4h-6.2h-36.9V326c0.3,18.9,14.2,28.2,36.9,28.2h6.2v12.4
			h-6.2c-32.5,0-48.9-14.9-49.3-40.6v-95.7"/>
		<path class="st3" d="M1523.5,354l-39.5-68.3h6.2c22.7,45.6,45.4,45.6,68.1,0h6.2L1523.5,354"/>
		<path class="st2" d="M1707,366.5c-54.7,0-99.1-44.4-99.1-99.1v0V255v0c0-54.7,44.4-99.1,99.1-99.1v12.4
			c-47.9,0-86.7,38.8-86.7,86.7v0h58.4h6.2v12.4h-6.2h-58.4v0c0,47.9,38.8,86.7,86.7,86.7V366.5z"/>
		<path class="st2" d="M1756.5,260.3c11.2-25.3,36-42.2,63.7-42.4c0.3,0,0.5,0,0.8,0h6.2v12.4h-6.2c-33.8,0-57.9,21.7-58.2,60.4v1.5
			v6.2v62v6.2h-12.4v-6.2v-62v-6.2c0-0.6,0-0.9,0-1.5l0-2.7C1750.5,278.4,1752.6,269,1756.5,260.3L1756.5,260.3z"/>
	</g>
	<ellipse class="st3" cx="331.8" cy="293.1" rx="19" ry="19.6"/>
</g>
</svg>
