<?xml version="1.0" encoding="utf-8"?>
<!-- Generator: Adobe Illustrator 23.0.1, SVG Export Plug-In . SVG Version: 6.00 Build 0)  -->
<svg version="1.1" id="Layer_1" xmlns="http://www.w3.org/2000/svg" xmlns:xlink="http://www.w3.org/1999/xlink" x="0px" y="0px"
	 viewBox="0 0 1827.2 586.2" style="enable-background:new 0 0 1827.2 586.2;" xml:space="preserve">
<style type="text/css">
	.st0{fill:#376480;}
	.st1{fill:#F54838;}
</style>
<path class="st0" d="M641.7,179.1h-12.4V326c0.4,25.7,16.8,40.6,49.3,40.6h6.2v-12.4h-6.2c-22.7,0-36.6-9.3-36.9-28.2v-95.8h43.1
	v-12.4h-43.1V179.1z"/>
<path class="st1" d="M655.7,268.2c-3.5-5.4-8.2-10.7-14-15.9v14c7.8,8.7,11.9,17.7,11.9,26.7c0,9-4.1,18-11.9,26.7
	c-3.4,3.8-7.4,7.4-12.1,11.1c-3.8,3-8.1,5.8-12.7,8.7c-8.4,5.1-18.2,10-29.3,14.7c-4.5,1.9-9.1,3.7-14,5.5
	c-3.9,1.4-7.9,2.8-12.1,4.2c0,0-0.1,0-0.1,0c-4.5,1.5-9.1,2.9-13.8,4.3c-16,4.7-33.2,8.8-51.3,12.2c-3.1-8.7-6.5-17.5-10.1-26.5
	c-4.3-10.8-9-21.7-14-32.6c-4-8.7-8.1-17.5-12.4-26.3c-0.3-0.6-0.6-1.3-0.9-1.9c0.3-0.7,0.6-1.3,1-1.9c11-22.3,20.7-44.3,29.2-65.8
	c2.4-6.1,4.7-12.1,6.8-18.1c0.2-0.5,0.4-1.1,0.6-1.6c1,0.2,1.9,0.4,2.8,0.6c22.4,4.4,43.3,9.7,62.2,15.9c0.2,0.1,0.4,0.1,0.6,0.2
	c21.2,7,39.1,14.8,53.3,23.2c5.2,3.1,9.8,6.2,14,9.4v-12.3c-4.3-2.9-9-5.8-14-8.6c-14.1-7.8-31.1-15-50.9-21.4
	c-19.7-6.5-41.5-12-64.8-16.5c7.7-22.5,13.8-44.1,18.1-64.4c13.8-65.8,6.8-110.6-20-126.1C471-9.7,428.6,6.6,378.5,51.5
	c-15.5,13.8-31.1,30-46.7,47.9c-15.6-18-31.3-34.1-46.8-47.9C235,6.5,192.7-9.7,165.9,5.8c-26.8,15.4-33.9,60.2-20,126
	c4.3,20.3,10.4,41.9,18.1,64.4c-23.3,4.6-45.1,10.1-64.9,16.5C35.2,233.7,0,262.2,0,293.1c0,30.9,35.2,59.4,99.2,80.3
	c19.7,6.5,41.5,12,64.9,16.5c-7.7,22.5-13.8,44.1-18.1,64.4c-13.9,65.8-6.8,110.6,20,126c6.6,3.8,14.2,5.7,22.5,5.7
	c25.6,0,58.9-17.6,96.6-51.4c15.5-13.9,31.1-30,46.8-47.9c15.6,17.9,31.3,34,46.7,47.9c37.7,33.8,71.1,51.4,96.6,51.4
	c8.4,0,15.9-1.9,22.5-5.7c26.8-15.5,33.8-60.2,20-126c-4.3-20.3-10.4-41.9-18.1-64.4c16.9-3.3,32.9-7.1,48-11.4
	c5.8-1.6,11.4-3.4,16.9-5.2c8.2-2.7,15.9-5.5,23.2-8.4c12.2-4.9,23.1-10.2,32.4-15.7c4.3-2.5,8.3-5.1,11.9-7.7
	c3.9-2.8,7.4-5.6,10.6-8.5c5.4-4.9,9.8-9.9,13.2-15.1c5.2-8,7.9-16.4,7.9-24.9C663.6,284.6,660.9,276.2,655.7,268.2z M483.1,212.6
	c-3.3,8.7-6.8,17.6-10.6,26.5c-3.6,8.5-7.3,17.1-11.3,25.7c-2.6,5.7-5.3,11.4-8.1,17.1c-2.2-4.3-4.4-8.6-6.7-12.9
	c-5.6-10.6-11.5-21.3-17.6-31.9c-8.6-14.9-17.5-29.4-26.6-43.5c29.5,2.1,57.8,5.6,84.2,10.2C485.2,206.8,484.2,209.7,483.1,212.6z
	 M385.2,58.9c35.6-31.9,67.1-48.8,89.9-48.8c6.6,0,12.5,1.4,17.6,4.3c22.4,12.9,27.9,55,15.2,115.3c-4.3,20.3-10.4,42-18.3,64.6
	c-29.5-5.3-61.3-9.1-94.4-11.2c-18.4-27.7-37.5-53.3-56.8-76.1C354,89,369.8,72.8,385.2,58.9z M382.7,182.5
	c-6.8-0.3-13.7-0.6-20.6-0.8l4.4,10.2c7.8,0.3,15.4,0.6,23.1,1.1c10.4,15.8,20.6,32.3,30.4,49.3c9.1,15.8,17.7,31.6,25.6,47.3
	c0.6,1.2,1.3,2.5,1.9,3.7c-0.6,1.2-1.3,2.5-1.9,3.7c-5.8,11.3-11.8,22.7-18.2,34.1l5,11.5c4.5-8,8.9-15.9,13.1-23.8
	c2.5-4.8,5-9.5,7.5-14.3c2.2,4.6,4.4,9.2,6.5,13.8c4.4,9.5,8.6,18.8,12.5,28.1c4.9,11.6,9.4,23,13.5,34.3c0.2,0.6,0.4,1.2,0.7,1.8
	c-26.4,4.7-54.7,8.1-84.1,10.2c2.5-3.9,5-7.8,7.5-11.8h-11.8c-2.7,4.2-5.4,8.4-8.1,12.6c-18.9,1.1-38.3,1.7-57.9,1.7
	c-19.6,0-39-0.6-57.9-1.7c-2.7-4.2-5.5-8.4-8.1-12.6H254c2.5,4,5,7.9,7.5,11.8c-29.5-2.1-57.7-5.6-84.1-10.2
	c9.2-25.2,20.3-51.4,33.2-78c6.4,12.5,13.1,25,20.2,37.5l5-11.5c-6.9-12.4-13.5-24.9-19.7-37.3c8.5-16.9,17.7-34,27.5-51
	c9.8-17,20-33.5,30.4-49.3c7.4-0.4,15-0.8,22.5-1l4.5-10.1c-6.7,0.2-13.4,0.5-20,0.8c16.6-24.4,33.7-47.2,50.9-67.7
	C349.1,135.3,366.2,158,382.7,182.5z M177.3,203.9c26.4-4.7,54.7-8.1,84.2-10.2c-9.1,14-18,28.6-26.6,43.5
	c-8.6,14.9-16.7,29.9-24.4,44.8C197.6,255.3,186.5,229.1,177.3,203.9z M155.7,129.8C143,69.4,148.5,27.3,170.9,14.4
	c5-2.9,10.9-4.3,17.6-4.3c22.8,0,54.3,16.9,89.9,48.8c15.5,13.9,31.2,30.1,46.9,48.2c-19.3,22.9-38.5,48.5-56.8,76.1
	c-33.2,2.1-65,5.9-94.4,11.2C166.1,171.8,160,150.1,155.7,129.8z M102.3,363.9c-58.6-19.2-92.3-45-92.3-70.8
	c0-25.8,33.6-51.7,92.3-70.8c19.8-6.5,41.6-12,65.1-16.5c10.2,28.2,22.8,57.6,37.5,87.4c-14.8,29.8-27.4,59.2-37.5,87.3
	C143.9,375.9,122,370.4,102.3,363.9z M278.4,527.3c-35.6,31.9-67.1,48.8-89.9,48.8c-6.6,0-12.5-1.4-17.6-4.3
	c-22.4-12.9-27.9-55-15.2-115.3c4.3-20.3,10.5-42,18.3-64.6c29.5,5.3,61.2,9.1,94.4,11.2c18.4,27.7,37.6,53.3,56.9,76.2
	C309.6,497.3,293.9,513.4,278.4,527.3z M280.9,403.7c16.7,0.8,33.7,1.3,50.9,1.3c17.2,0,34.3-0.4,51-1.3
	c-16.6,24.5-33.7,47.2-50.9,67.8C314.6,451,297.4,428.2,280.9,403.7z M507.9,456.5c12.7,60.4,7.2,102.4-15.2,115.3
	c-22.4,12.9-61.5-3.3-107.5-44.5c-15.5-13.9-31.2-30-46.8-48.1c19.3-22.9,38.5-48.5,56.9-76.2c33.1-2.1,64.9-5.9,94.4-11.2
	C497.5,414.4,503.6,436.1,507.9,456.5z"/>
<g>
	<polygon class="st0" points="327.5,155.9 235.3,366.5 248.9,366.5 331.8,178.5 414.2,366.6 427.8,366.6 335.6,155.9 	"/>
	<polygon class="st0" points="721.9,180.4 715.7,180.4 715.7,192.8 721.9,192.8 722.2,192.8 728.4,192.8 728.4,180.4 722.2,180.4 	
		"/>
	<rect x="715.7" y="217.8" class="st0" width="12.4" height="148.7"/>
	<polygon class="st0" points="1070.6,155.9 985.2,345.2 899.4,155.9 889.2,155.9 889.2,366.5 901.6,366.5 901.4,191 981,366.6 
		989.1,366.6 1068.4,191 1068.7,366.6 1081.1,366.6 1080.8,155.9 	"/>
	<path class="st0" d="M1248.5,249.5c-12.4-19.2-32.9-31.6-55.8-31.6c-37.1,0-68.1,32.8-68.1,74.3s30.9,74.3,68.1,74.3
		c23,0,43.4-12.4,55.8-31.6v31.6h12.4v-74.3v-62h-12.4V249.5z M1192.8,354.2c-31,0-55.8-27.9-55.8-62c0-34.1,24.8-62,55.8-62
		s55.8,27.9,55.8,62C1248.6,326.3,1223.8,354.2,1192.8,354.2z"/>
	<path class="st0" d="M1329.4,179.1H1317V326c0.4,25.7,16.8,40.6,49.3,40.6h6.2v-12.4h-6.2c-22.6,0-36.6-9.3-36.9-28.2v-95.8h43.1
		v-12.4h-43.1V179.1z"/>
	<path class="st0" d="M1422.3,179.1h-12.4V326c0.4,25.7,16.8,40.6,49.3,40.6h6.2v-12.4h-6.2c-22.7,0-36.6-9.3-36.9-28.2v-95.8h43.1
		v-12.4h-43.1V179.1z"/>
	<path class="st0" d="M1607.9,255v12.4c0,54.7,44.4,99.1,99.1,99.1v-12.4c-47.9,0-86.7-38.8-86.7-86.7h64.6V255h-64.6
		c0-47.9,38.8-86.7,86.7-86.7v-12.4C1652.3,155.9,1607.9,200.3,1607.9,255z"/>
	<path class="st0" d="M1821,217.9c-0.3,0-0.5,0-0.8,0c-27.7,0.2-52.5,17.1-63.7,42.4c-3.9,8.7-6,18.1-6.1,27.7v2.7
		c0,0.6,0,7.7,0,7.7v68.2h12.4v-68.2v-7.7c0.3-38.7,24.4-60.4,58.2-60.4h6.2v-12.4H1821z"/>
	<path class="st1" d="M771.5,285.7h-6.2l39.5,68.3l41-68.3h-6.2C816.9,331.3,794.2,331.3,771.5,285.7z"/>
	<path class="st1" d="M1490.2,285.7h-6.2l39.5,68.3l41-68.3h-6.2C1535.6,331.3,1512.9,331.3,1490.2,285.7z"/>
	<path class="st1" d="M331.8,273.5c-10.5,0-19,8.8-19,19.6c0,10.8,8.5,19.6,19,19.6c10.5,0,19-8.8,19-19.6
		C350.8,282.3,342.3,273.5,331.8,273.5z"/>
	<path class="st0" d="M514.4,217.8c0,0-54.5,2-54.7,62.9c-0.2,60.9,0,85.8,0,85.8h12.4v-85.8c0-27.6,16.3-50.5,42.3-50.5
		c26.1,0,46.5,22.9,46.5,50.5l0.6,86.1h12.1l-0.3-86.1C573.3,245.7,546.6,217.8,514.4,217.8z"/>
</g>
</svg>
